<svg width="360" height="359" viewBox="0 0 360 359" fill="none" xmlns="http://www.w3.org/2000/svg">
<mask id="mask0_49_831" style="mask-type:luminance" maskUnits="userSpaceOnUse" x="0" y="0" width="360" height="359">
<path d="M359.584 179.5C359.584 80.3649 279.219 0 180.084 0C80.9491 0 0.584167 80.3649 0.584167 179.5C0.584167 278.635 80.9491 359 180.084 359C279.219 359 359.584 278.635 359.584 179.5Z" fill="white"/>
</mask>
<g mask="url(#mask0_49_831)">
<path d="M359.584 179.5C359.584 80.3649 279.219 0 180.084 0C80.9491 0 0.584167 80.3649 0.584167 179.5C0.584167 278.635 80.9491 359 180.084 359C279.219 359 359.584 278.635 359.584 179.5Z" fill="#F7B50A"/>
<path d="M180.084 387.256C294.824 387.256 387.839 294.241 387.839 179.501C387.839 64.7613 294.824 -28.2537 180.084 -28.2537C65.3445 -28.2537 -27.6704 64.7613 -27.6704 179.501C-27.6704 294.241 65.3445 387.256 180.084 387.256Z" fill="#F7B50A"/>
<path fill-rule="evenodd" clip-rule="evenodd" d="M180.084 0.000171235C80.9492 0.000171235 0.584339 80.3651 0.584339 179.5C0.584339 278.635 80.9492 359 180.084 359C279.22 359 359.584 278.635 359.584 179.5C359.584 80.3651 279.22 0.000171235 180.084 0.000171235ZM-55.925 179.5C-55.925 49.1558 49.74 -56.5092 180.084 -56.5092C310.429 -56.5092 416.094 49.1558 416.094 179.5C416.094 309.845 310.429 415.51 180.084 415.51C49.74 415.51 -55.925 309.845 -55.925 179.5Z" fill="black"/>
<path d="M134.73 361.26C238.455 361.26 322.54 277.175 322.54 173.45C322.54 69.7255 238.455 -14.36 134.73 -14.36C31.0054 -14.36 -53.08 69.7255 -53.08 173.45C-53.08 277.175 31.0054 361.26 134.73 361.26Z" fill="#FAC63E"/>
</g>
</svg>
