<svg width="33" height="25" viewBox="0 0 33 25" fill="none" xmlns="http://www.w3.org/2000/svg">
<g clip-path="url(#clip0_32_535)">
<rect x="5" width="25" height="25" rx="12.5" fill="#F7B50A"/>
<circle cx="17.5" cy="12.5" r="14.4676" fill="#F7B50A" stroke="black" stroke-width="3.93519"/>
<circle cx="14.8379" cy="11.9212" r="13.0787" fill="#FAC63E"/>
</g>
<path d="M19.4523 13.2547L19.4498 13.2648V13.2753C19.4498 13.2773 19.4497 13.2794 19.4497 13.2816C19.4496 13.3335 19.4493 13.4445 19.5225 13.5267C19.5618 13.5975 19.6396 13.6745 19.7592 13.6769C20.8352 13.8174 21.6349 14.7568 21.6073 15.8334L21.6073 15.8334V15.8356C21.6073 17.0543 20.6098 18.0517 19.3912 18.0517C19.3418 18.0517 19.2335 18.0387 19.0855 18.0134C18.9407 17.9887 18.7639 17.9534 18.5796 17.9109C18.4636 17.8743 18.3121 17.9105 18.2307 18.0268C17.7867 18.5242 17.1784 18.7997 16.5144 18.7997C15.8229 18.7997 15.1906 18.5253 14.7768 18.0359C14.7251 17.9098 14.5948 17.8791 14.5007 17.8791C14.4221 17.8791 14.3137 17.9158 14.2391 17.9904L14.239 17.9903L14.2362 17.9935C13.7043 18.5813 12.9787 18.9148 12.2569 18.9148C11.4755 18.9148 10.7236 18.5799 10.2229 17.9679L10.2232 17.9677L10.2172 17.9616C10.1834 17.9278 10.1462 17.8991 10.1016 17.8793C10.0567 17.8593 10.0086 17.8504 9.95554 17.8504H9.92677C9.8487 17.8504 9.77522 17.8872 9.72295 17.9134C9.72061 17.9146 9.71831 17.9158 9.71605 17.9169L9.70676 17.9215L9.69885 17.9283C9.21902 18.3376 8.77048 18.5336 8.3302 18.5336C7.89052 18.5336 7.44261 18.3381 6.96352 17.93C6.93449 17.9026 6.8916 17.884 6.85766 17.8727C6.81969 17.8601 6.77431 17.8504 6.73362 17.8504C5.51494 17.8504 4.51749 16.8529 4.51749 15.6342C4.51749 14.4156 5.51494 13.4181 6.73362 13.4181H6.76239C6.98751 13.4181 7.13529 13.2305 7.13529 13.0452V13.045V13.0449V13.0447V13.0445V13.0444V13.0442V13.044V13.0438V13.0437V13.0435V13.0433V13.0432V13.043V13.0428V13.0427V13.0425V13.0423V13.0422V13.042V13.0418V13.0417V13.0415V13.0413V13.0411V13.041V13.0408V13.0406V13.0405V13.0403V13.0401V13.04V13.0398V13.0396V13.0395V13.0393V13.0391V13.039V13.0388V13.0386V13.0385V13.0383V13.0381V13.0379V13.0378V13.0376V13.0374V13.0373V13.0371V13.0369V13.0368V13.0366V13.0364V13.0363V13.0361V13.0359V13.0358V13.0356V13.0354V13.0352V13.0351V13.0349V13.0347V13.0346V13.0344V13.0342V13.0341V13.0339V13.0337V13.0336V13.0334V13.0332V13.0331V13.0329V13.0327V13.0326V13.0324V13.0322V13.032V13.0319V13.0317V13.0315V13.0314V13.0312V13.031V13.0309V13.0307V13.0305V13.0304V13.0302V13.03V13.0299V13.0297V13.0295V13.0293V13.0292V13.029V13.0288V13.0287V13.0285V13.0283V13.0282V13.028V13.0278V13.0277V13.0275V13.0273V13.0272V13.027V13.0268V13.0267V13.0265V13.0263V13.0261V13.026V13.0258V13.0256V13.0255V13.0253V13.0251V13.025V13.0248V13.0246V13.0245V13.0243V13.0241V13.024V13.0238V13.0236V13.0234V13.0233V13.0231V13.0229V13.0228V13.0226V13.0224V13.0223V13.0221V13.0219V13.0218V13.0216V13.0214V13.0213V13.0211V13.0209V13.0208V13.0206V13.0204V13.0202V13.0201V13.0199V13.0197V13.0196V13.0194V13.0192V13.0191V13.0189V13.0187V13.0186V13.0184V13.0182V13.0181V13.0179V13.0177V13.0176V13.0174V13.0172V13.017V13.0169V13.0167V13.0165V13.0164V13.0162V13.016V13.0159V13.0157V13.0155V13.0154V13.0152V13.015V13.0149V13.0147V13.0145V13.0143V13.0142V13.014V13.0138V13.0137V13.0135V13.0133V13.0132V13.013V13.0128V13.0127V13.0125V13.0123V13.0122V13.012V13.0118V13.0117V13.0115V13.0113V13.0111V13.011V13.0108V13.0106V13.0105V13.0103V13.0101V13.01V13.0098V13.0096V13.0095V13.0093V13.0091V13.009V13.0088V13.0086V13.0084V13.0083V13.0081V13.0079V13.0078V13.0076V13.0074V13.0073V13.0071V13.0069V13.0068V13.0066V13.0064V13.0063V13.0061V13.0059V13.0058V13.0056V13.0054V13.0052V13.0051V13.0049V13.0047V13.0046V13.0044V13.0042V13.0041V13.0039V13.0037V13.0036V13.0034V13.0032V13.0031V13.0029V13.0027V13.0025V13.0024V13.0022V13.002V13.0019V13.0017V13.0015V13.0014V13.0012V13.001V13.0009V13.0007V13.0005V13.0004V13.0002V13V12.9999V12.9997V12.9995V12.9993V12.9992V12.999V12.9988V12.9987V12.9985V12.9983V12.9982V12.998V12.9978V12.9977V12.9975V12.9973V12.9972V12.997V12.9968V12.9966V12.9965V12.9963V12.9961V12.996V12.9958V12.9956V12.9955V12.9953V12.9951V12.995V12.9948V12.9946V12.9945V12.9943V12.9941V12.994V12.9938V12.9936V12.9934V12.9933V12.9931V12.9929V12.9928V12.9926V12.9924V12.9923V12.9921V12.9919V12.9918V12.9916V12.9914V12.9913V12.9911V12.9909V12.9907V12.9906V12.9904V12.9902V12.9901V12.9899V12.9897V12.9896V12.9894V12.9892V12.9891V12.9889V12.9887V12.9886V12.9884V12.9882V12.9881V12.9879V12.9877V12.9875V12.9874V12.9872V12.987V12.9869V12.9867V12.9865V12.9864V12.9862V12.986V12.9859V12.9857V12.9855V12.9854V12.9852V12.985V12.9848V12.9847V12.9845V12.9843V12.9842V12.984V12.9838V12.9837V12.9835V12.9833V12.9832V12.983V12.9828V12.9827V12.9825V12.9823V12.9822V12.982V12.9818V12.9816V12.9815V12.9813V12.9811V12.981V12.9808V12.9806V12.9805V12.9803V12.9801V12.98V12.9798V12.9796V12.9795V12.9793V12.9791V12.979V12.9788V12.9786V12.9784V12.9783V12.9781V12.9779V12.9778V12.9776V12.9774V12.9773V12.9771V12.9769V12.9768V12.9766V12.9764V12.9763V12.9761V12.9759V12.9757V12.9756V12.9754V12.9752V12.9751V12.9749V12.9747V12.9746V12.9744V12.9742V12.9741V12.9739V12.9737V12.9736V12.9734V12.9732V12.9731V12.9729V12.9727V12.9725V12.9724V12.9722V12.972V12.9719V12.9717V12.9715V12.9714V12.9712V12.971V12.9709V12.9707V12.9705V12.9704V12.9702V12.97V12.9698V12.9697V12.9695V12.9693V12.9692V12.969V12.9688V12.9687V12.9685V12.9683V12.9682V12.968V12.9678V12.9677V12.9675V12.9673V12.9672V12.967V12.9668V12.9666V12.9665V12.9663V12.9661V12.966V12.9658V12.9656V12.9655V12.9653V12.9651V12.965V12.9648V12.9646V12.9645V12.9643V12.9641V12.9639V12.9638V12.9636V12.9634V12.9633V12.9631V12.9629V12.9628V12.9626V12.9624V12.9623V12.9621V12.9619V12.9618V12.9616V12.9614V12.9613V12.9611V12.9609V12.9607V12.9606V12.9604V12.9602V12.9601V12.9599V12.9597V12.9596V12.9594V12.9592V12.9591V12.9589V12.9505L7.13364 12.9422C7.10685 12.8082 7.10653 12.6446 7.10653 12.4986C7.10653 11.2799 8.10398 10.2825 9.32266 10.2825C9.82175 10.2825 10.2618 10.4202 10.6472 10.7217C10.7243 10.7962 10.8415 10.8356 10.9606 10.7959L10.9608 10.7967L10.9717 10.7913C10.9763 10.789 10.9824 10.7862 10.9894 10.7829C11.0132 10.7718 11.0485 10.7553 11.078 10.7356C11.119 10.7083 11.162 10.6677 11.1849 10.6045C11.9481 9.0825 13.442 8.15372 15.1336 8.15372C17.5318 8.15372 19.5073 10.1293 19.5073 12.5274C19.5073 12.7888 19.5068 13.0366 19.4523 13.2547ZM17.6076 12.3537H17.616L17.6243 12.3521C17.7178 12.3334 17.8018 12.2777 17.854 12.2017C17.9056 12.1267 17.9276 12.0288 17.8917 11.9298C17.6822 10.6618 16.8882 10.0463 16.1468 9.75127C15.7766 9.60393 15.4192 9.53604 15.153 9.50489C15.0197 9.48929 14.9088 9.48284 14.8301 9.4803C14.7907 9.47903 14.7593 9.47874 14.7372 9.47877L14.7111 9.47897L14.7038 9.4791C14.7022 9.47913 14.7017 9.47913 14.7017 9.47914H14.7021C14.6006 9.47914 14.5137 9.52988 14.4543 9.59845C14.3951 9.66677 14.358 9.7582 14.358 9.85204C14.358 9.95358 14.4087 10.0404 14.4773 10.0998C14.5456 10.1591 14.637 10.1962 14.7309 10.1962C14.7331 10.1962 14.7367 10.1961 14.7414 10.1961C14.8293 10.1947 15.3349 10.1868 15.8681 10.3987C16.4257 10.6204 17.0118 11.0813 17.1784 12.0527L17.1783 12.0528L17.1788 12.0551C17.2161 12.2417 17.3687 12.3537 17.5501 12.3537H17.5502H17.5504H17.5506H17.5507H17.5509H17.5511H17.5512H17.5514H17.5515H17.5517H17.5519H17.552H17.5522H17.5524H17.5525H17.5527H17.5528H17.553H17.5531H17.5533H17.5535H17.5536H17.5538H17.5539H17.5541H17.5542H17.5544H17.5545H17.5547H17.5548H17.555H17.5551H17.5553H17.5554H17.5556H17.5557H17.5559H17.556H17.5562H17.5563H17.5564H17.5566H17.5567H17.5569H17.557H17.5572H17.5573H17.5574H17.5576H17.5577H17.5579H17.558H17.5581H17.5583H17.5584H17.5585H17.5587H17.5588H17.5589H17.5591H17.5592H17.5593H17.5595H17.5596H17.5597H17.5599H17.56H17.5601H17.5603H17.5604H17.5605H17.5606H17.5608H17.5609H17.561H17.5612H17.5613H17.5614H17.5615H17.5617H17.5618H17.5619H17.562H17.5621H17.5623H17.5624H17.5625H17.5626H17.5628H17.5629H17.563H17.5631H17.5632H17.5633H17.5635H17.5636H17.5637H17.5638H17.5639H17.564H17.5642H17.5643H17.5644H17.5645H17.5646H17.5647H17.5648H17.565H17.5651H17.5652H17.5653H17.5654H17.5655H17.5656H17.5657H17.5658H17.566H17.5661H17.5662H17.5663H17.5664H17.5665H17.5666H17.5667H17.5668H17.5669H17.567H17.5671H17.5672H17.5673H17.5675H17.5676H17.5677H17.5678H17.5679H17.568H17.5681H17.5682H17.5683H17.5684H17.5685H17.5686H17.5687H17.5688H17.5689H17.569H17.5691H17.5692H17.5693H17.5694H17.5695H17.5696H17.5697H17.5698H17.5699H17.57H17.5701H17.5702H17.5703H17.5704H17.5705H17.5705H17.5706H17.5707H17.5708H17.5709H17.571H17.5711H17.5712H17.5713H17.5714H17.5715H17.5716H17.5717H17.5718H17.5719H17.572H17.572H17.5721H17.5722H17.5723H17.5724H17.5725H17.5726H17.5727H17.5728H17.5729H17.573H17.573H17.5731H17.5732H17.5733H17.5734H17.5735H17.5736H17.5737H17.5738H17.5739H17.5739H17.574H17.5741H17.5742H17.5743H17.5744H17.5745H17.5746H17.5746H17.5747H17.5748H17.5749H17.575H17.5751H17.5752H17.5753H17.5753H17.5754H17.5755H17.5756H17.5757H17.5758H17.5759H17.5759H17.576H17.5761H17.5762H17.5763H17.5764H17.5765H17.5765H17.5766H17.5767H17.5768H17.5769H17.577H17.5771H17.5771H17.5772H17.5773H17.5774H17.5775H17.5776H17.5776H17.5777H17.5778H17.5779H17.578H17.5781H17.5782H17.5782H17.5783H17.5784H17.5785H17.5786H17.5787H17.5787H17.5788H17.5789H17.579H17.5791H17.5792H17.5792H17.5793H17.5794H17.5795H17.5796H17.5797H17.5798H17.5798H17.5799H17.58H17.5801H17.5802H17.5803H17.5803H17.5804H17.5805H17.5806H17.5807H17.5808H17.5809H17.5809H17.581H17.5811H17.5812H17.5813H17.5814H17.5815H17.5815H17.5816H17.5817H17.5818H17.5819H17.582H17.5821H17.5821H17.5822H17.5823H17.5824H17.5825H17.5826H17.5827H17.5827H17.5828H17.5829H17.583H17.5831H17.5832H17.5833H17.5834H17.5834H17.5835H17.5836H17.5837H17.5838H17.5839H17.584H17.5841H17.5842H17.5842H17.5843H17.5844H17.5845H17.5846H17.5847H17.5848H17.5849H17.585H17.5851H17.5851H17.5852H17.5853H17.5854H17.5855H17.5856H17.5857H17.5858H17.5859H17.586H17.5861H17.5862H17.5863H17.5863H17.5864H17.5865H17.5866H17.5867H17.5868H17.5869H17.587H17.5871H17.5872H17.5873H17.5874H17.5875H17.5876H17.5877H17.5878H17.5879H17.588H17.5881H17.5882H17.5883H17.5884H17.5885H17.5886H17.5887H17.5888H17.5889H17.589H17.5891H17.5892H17.5893H17.5894H17.5895H17.5896H17.5897H17.5898H17.5899H17.59H17.5901H17.5902H17.5903H17.5904H17.5905H17.5906H17.5907H17.5908H17.5909H17.591H17.5911H17.5913H17.5914H17.5915H17.5916H17.5917H17.5918H17.5919H17.592H17.5921H17.5922H17.5924H17.5925H17.5926H17.5927H17.5928H17.5929H17.593H17.5931H17.5933H17.5934H17.5935H17.5936H17.5937H17.5938H17.5939H17.5941H17.5942H17.5943H17.5944H17.5945H17.5947H17.5948H17.5949H17.595H17.5951H17.5953H17.5954H17.5955H17.5956H17.5957H17.5959H17.596H17.5961H17.5962H17.5964H17.5965H17.5966H17.5967H17.5969H17.597H17.5971H17.5973H17.5974H17.5975H17.5976H17.5978H17.5979H17.598H17.5982H17.5983H17.5984H17.5986H17.5987H17.5988H17.599H17.5991H17.5992H17.5994H17.5995H17.5997H17.5998H17.5999H17.6001H17.6002H17.6004H17.6005H17.6006H17.6008H17.6009H17.6011H17.6012H17.6013H17.6015H17.6016H17.6018H17.6019H17.6021H17.6022H17.6024H17.6025H17.6027H17.6028H17.603H17.6031H17.6033H17.6034H17.6036H17.6037H17.6039H17.604H17.6042H17.6043H17.6045H17.6047H17.6048H17.605H17.6051H17.6053H17.6055H17.6056H17.6058H17.6059H17.6061H17.6063H17.6064H17.6066H17.6068H17.6069H17.6071H17.6073H17.6074H17.6076Z" fill="white" stroke="black" stroke-width="0.170472"/>
<path d="M15.02 10.1862L15.0175 10.1964V10.2068C15.0175 10.2088 15.0175 10.2109 15.0175 10.2132C15.0173 10.265 15.017 10.376 15.0903 10.4582C15.1295 10.529 15.2074 10.606 15.3269 10.6085C16.403 10.7489 17.2027 11.6883 17.1751 12.7649L17.175 12.7649V12.7671C17.175 13.9858 16.1776 14.9833 14.9589 14.9833C14.9096 14.9833 14.8013 14.9702 14.6532 14.9449C14.5085 14.9202 14.3317 14.8849 14.1474 14.8424C14.0313 14.8058 13.8798 14.842 13.7985 14.9583C13.3545 15.4557 12.7461 15.7312 12.0822 15.7312C11.3906 15.7312 10.7584 15.4568 10.3446 14.9674C10.2929 14.8413 10.1625 14.8107 10.0685 14.8107C9.98987 14.8107 9.88142 14.8474 9.80685 14.9219L9.80678 14.9218L9.80392 14.925C9.27208 15.5128 8.54648 15.8463 7.82466 15.8463C7.04329 15.8463 6.29135 15.5114 5.79063 14.8995L5.79096 14.8992L5.78493 14.8932C5.75113 14.8594 5.71394 14.8306 5.66938 14.8108C5.62444 14.7908 5.57638 14.7819 5.52329 14.7819H5.49452C5.41645 14.7819 5.34297 14.8187 5.2907 14.845C5.28836 14.8461 5.28606 14.8473 5.2838 14.8484L5.27451 14.8531L5.2666 14.8598C4.78677 15.2691 4.33823 15.4651 3.89794 15.4651C3.45827 15.4651 3.01036 15.2696 2.53127 14.8615C2.50224 14.8341 2.45935 14.8156 2.42541 14.8042C2.38744 14.7916 2.34206 14.7819 2.30137 14.7819C1.08269 14.7819 0.0852359 13.7844 0.0852359 12.5658C0.0852359 11.3471 1.08269 10.3496 2.30137 10.3496H2.33014C2.55526 10.3496 2.70304 10.162 2.70304 9.97671V9.97654V9.97638V9.97621V9.97604V9.97587V9.9757V9.97553V9.97536V9.9752V9.97503V9.97486V9.97469V9.97452V9.97435V9.97418V9.97402V9.97385V9.97368V9.97351V9.97334V9.97317V9.973V9.97284V9.97267V9.9725V9.97233V9.97216V9.97199V9.97182V9.97166V9.97149V9.97132V9.97115V9.97098V9.97081V9.97064V9.97048V9.97031V9.97014V9.96997V9.9698V9.96963V9.96946V9.9693V9.96913V9.96896V9.96879V9.96862V9.96845V9.96828V9.96812V9.96795V9.96778V9.96761V9.96744V9.96727V9.9671V9.96694V9.96677V9.9666V9.96643V9.96626V9.96609V9.96592V9.96576V9.96559V9.96542V9.96525V9.96508V9.96491V9.96474V9.96458V9.96441V9.96424V9.96407V9.9639V9.96373V9.96356V9.9634V9.96323V9.96306V9.96289V9.96272V9.96255V9.96238V9.96222V9.96205V9.96188V9.96171V9.96154V9.96137V9.96121V9.96104V9.96087V9.9607V9.96053V9.96036V9.96019V9.96002V9.95986V9.95969V9.95952V9.95935V9.95918V9.95901V9.95885V9.95868V9.95851V9.95834V9.95817V9.958V9.95783V9.95767V9.9575V9.95733V9.95716V9.95699V9.95682V9.95665V9.95649V9.95632V9.95615V9.95598V9.95581V9.95564V9.95547V9.95531V9.95514V9.95497V9.9548V9.95463V9.95446V9.95429V9.95413V9.95396V9.95379V9.95362V9.95345V9.95328V9.95311V9.95295V9.95278V9.95261V9.95244V9.95227V9.9521V9.95193V9.95177V9.9516V9.95143V9.95126V9.95109V9.95092V9.95075V9.95059V9.95042V9.95025V9.95008V9.94991V9.94974V9.94957V9.94941V9.94924V9.94907V9.9489V9.94873V9.94856V9.94839V9.94823V9.94806V9.94789V9.94772V9.94755V9.94738V9.94721V9.94705V9.94688V9.94671V9.94654V9.94637V9.9462V9.94603V9.94587V9.9457V9.94553V9.94536V9.94519V9.94502V9.94485V9.94469V9.94452V9.94435V9.94418V9.94401V9.94384V9.94368V9.94351V9.94334V9.94317V9.943V9.94283V9.94266V9.94249V9.94233V9.94216V9.94199V9.94182V9.94165V9.94148V9.94132V9.94115V9.94098V9.94081V9.94064V9.94047V9.9403V9.94014V9.93997V9.9398V9.93963V9.93946V9.93929V9.93912V9.93896V9.93879V9.93862V9.93845V9.93828V9.93811V9.93794V9.93778V9.93761V9.93744V9.93727V9.9371V9.93693V9.93676V9.9366V9.93643V9.93626V9.93609V9.93592V9.93575V9.93558V9.93542V9.93525V9.93508V9.93491V9.93474V9.93457V9.9344V9.93424V9.93407V9.9339V9.93373V9.93356V9.93339V9.93322V9.93306V9.93289V9.93272V9.93255V9.93238V9.93221V9.93204V9.93188V9.93171V9.93154V9.93137V9.9312V9.93103V9.93086V9.9307V9.93053V9.93036V9.93019V9.93002V9.92985V9.92968V9.92952V9.92935V9.92918V9.92901V9.92884V9.92867V9.9285V9.92834V9.92817V9.928V9.92783V9.92766V9.92749V9.92732V9.92716V9.92699V9.92682V9.92665V9.92648V9.92631V9.92615V9.92598V9.92581V9.92564V9.92547V9.9253V9.92513V9.92496V9.9248V9.92463V9.92446V9.92429V9.92412V9.92395V9.92379V9.92362V9.92345V9.92328V9.92311V9.92294V9.92277V9.92261V9.92244V9.92227V9.9221V9.92193V9.92176V9.92159V9.92143V9.92126V9.92109V9.92092V9.92075V9.92058V9.92041V9.92025V9.92008V9.91991V9.91974V9.91957V9.9194V9.91923V9.91907V9.9189V9.91873V9.91856V9.91839V9.91822V9.91805V9.91789V9.91772V9.91755V9.91738V9.91721V9.91704V9.91687V9.91671V9.91654V9.91637V9.9162V9.91603V9.91586V9.91569V9.91553V9.91536V9.91519V9.91502V9.91485V9.91468V9.91451V9.91435V9.91418V9.91401V9.91384V9.91367V9.9135V9.91333V9.91317V9.913V9.91283V9.91266V9.91249V9.91232V9.91215V9.91199V9.91182V9.91165V9.91148V9.91131V9.91114V9.91097V9.91081V9.91064V9.91047V9.9103V9.91013V9.90996V9.90979V9.90963V9.90946V9.90929V9.90912V9.90895V9.90878V9.90862V9.90845V9.90828V9.90811V9.90794V9.90777V9.9076V9.90744V9.90727V9.9071V9.90693V9.90676V9.90659V9.90642V9.90626V9.90609V9.90592V9.90575V9.90558V9.90541V9.90524V9.90508V9.90491V9.90474V9.90457V9.9044V9.90423V9.90406V9.9039V9.90373V9.90356V9.90339V9.90322V9.90305V9.90288V9.90272V9.90255V9.90238V9.90221V9.90204V9.90187V9.9017V9.90154V9.90137V9.9012V9.90103V9.90086V9.90069V9.90052V9.90036V9.90019V9.90002V9.89985V9.89968V9.89951V9.89934V9.89918V9.89901V9.89884V9.89867V9.8985V9.89833V9.89816V9.898V9.89783V9.89766V9.89749V9.89732V9.89715V9.89698V9.89682V9.89665V9.89648V9.89631V9.89614V9.89597V9.8958V9.89564V9.89547V9.8953V9.89513V9.89496V9.89479V9.89462V9.89446V9.89429V9.89412V9.89395V9.89378V9.89361V9.89345V9.89328V9.89311V9.89294V9.89277V9.8926V9.89243V9.89226V9.8921V9.89193V9.89176V9.89159V9.89142V9.89125V9.89109V9.89092V9.89075V9.89058V9.89041V9.88197L2.70139 9.87369C2.67459 9.73972 2.67428 9.57608 2.67428 9.43014C2.67428 8.21146 3.67173 7.214 4.89041 7.214C5.3895 7.214 5.82953 7.35171 6.21491 7.65319C6.29201 7.72771 6.4092 7.76714 6.52832 7.72744L6.5286 7.72826L6.53949 7.72281C6.54408 7.72052 6.55011 7.7177 6.55714 7.71442C6.58097 7.70329 6.61627 7.6868 6.64574 7.66715C6.68671 7.63984 6.72973 7.59918 6.75264 7.53601C7.51582 6.01402 9.00978 5.08524 10.7014 5.08524C13.0995 5.08524 15.075 7.06077 15.075 9.4589C15.075 9.72031 15.0746 9.96813 15.02 10.1862ZM13.1753 9.28524H13.1838L13.1921 9.28358C13.2855 9.26489 13.3695 9.20922 13.4218 9.13322C13.4734 9.05817 13.4954 8.96031 13.4594 8.8613C13.2499 7.59329 12.4559 6.97785 11.7146 6.68279C11.3444 6.53544 10.9869 6.46756 10.7207 6.4364C10.5874 6.4208 10.4766 6.41436 10.3978 6.41182C10.3585 6.41055 10.3271 6.41026 10.305 6.41029L10.2789 6.41049L10.2715 6.41062C10.27 6.41065 10.2695 6.41065 10.2695 6.41065H10.2699C10.1683 6.41065 10.0815 6.4614 10.0221 6.52996C9.96284 6.59829 9.92572 6.68971 9.92572 6.78356C9.92572 6.8851 9.97646 6.97194 10.045 7.03136C10.1134 7.09058 10.2048 7.1277 10.2986 7.1277C10.3009 7.1277 10.3044 7.12765 10.3092 7.12757C10.397 7.1262 10.9026 7.11829 11.4358 7.33023C11.9935 7.55192 12.5796 8.01284 12.7461 8.98426L12.7461 8.98427L12.7466 8.98658C12.7839 9.17321 12.9364 9.28524 13.1178 9.28524H13.118H13.1181H13.1183H13.1185H13.1186H13.1188H13.119H13.1191H13.1193H13.1195H13.1196H13.1198H13.1199H13.1201H13.1203H13.1204H13.1206H13.1207H13.1209H13.121H13.1212H13.1214H13.1215H13.1217H13.1218H13.122H13.1221H13.1223H13.1224H13.1226H13.1227H13.1229H13.123H13.1232H13.1233H13.1235H13.1236H13.1238H13.1239H13.124H13.1242H13.1243H13.1245H13.1246H13.1248H13.1249H13.125H13.1252H13.1253H13.1255H13.1256H13.1257H13.1259H13.126H13.1262H13.1263H13.1264H13.1266H13.1267H13.1268H13.127H13.1271H13.1272H13.1274H13.1275H13.1276H13.1278H13.1279H13.128H13.1281H13.1283H13.1284H13.1285H13.1287H13.1288H13.1289H13.129H13.1292H13.1293H13.1294H13.1295H13.1297H13.1298H13.1299H13.13H13.1301H13.1303H13.1304H13.1305H13.1306H13.1307H13.1309H13.131H13.1311H13.1312H13.1313H13.1315H13.1316H13.1317H13.1318H13.1319H13.132H13.1321H13.1323H13.1324H13.1325H13.1326H13.1327H13.1328H13.1329H13.133H13.1332H13.1333H13.1334H13.1335H13.1336H13.1337H13.1338H13.1339H13.134H13.1341H13.1342H13.1344H13.1345H13.1346H13.1347H13.1348H13.1349H13.135H13.1351H13.1352H13.1353H13.1354H13.1355H13.1356H13.1357H13.1358H13.1359H13.136H13.1361H13.1362H13.1363H13.1364H13.1365H13.1366H13.1367H13.1368H13.1369H13.137H13.1371H13.1372H13.1373H13.1374H13.1375H13.1376H13.1377H13.1378H13.1379H13.138H13.1381H13.1382H13.1383H13.1384H13.1385H13.1386H13.1387H13.1388H13.1389H13.139H13.1391H13.1391H13.1392H13.1393H13.1394H13.1395H13.1396H13.1397H13.1398H13.1399H13.14H13.1401H13.1402H13.1403H13.1403H13.1404H13.1405H13.1406H13.1407H13.1408H13.1409H13.141H13.1411H13.1412H13.1412H13.1413H13.1414H13.1415H13.1416H13.1417H13.1418H13.1419H13.142H13.142H13.1421H13.1422H13.1423H13.1424H13.1425H13.1426H13.1427H13.1427H13.1428H13.1429H13.143H13.1431H13.1432H13.1433H13.1433H13.1434H13.1435H13.1436H13.1437H13.1438H13.1439H13.1439H13.144H13.1441H13.1442H13.1443H13.1444H13.1445H13.1445H13.1446H13.1447H13.1448H13.1449H13.145H13.1451H13.1451H13.1452H13.1453H13.1454H13.1455H13.1456H13.1456H13.1457H13.1458H13.1459H13.146H13.1461H13.1462H13.1462H13.1463H13.1464H13.1465H13.1466H13.1467H13.1467H13.1468H13.1469H13.147H13.1471H13.1472H13.1472H13.1473H13.1474H13.1475H13.1476H13.1477H13.1478H13.1478H13.1479H13.148H13.1481H13.1482H13.1483H13.1483H13.1484H13.1485H13.1486H13.1487H13.1488H13.1489H13.1489H13.149H13.1491H13.1492H13.1493H13.1494H13.1495H13.1495H13.1496H13.1497H13.1498H13.1499H13.15H13.1501H13.1501H13.1502H13.1503H13.1504H13.1505H13.1506H13.1507H13.1508H13.1508H13.1509H13.151H13.1511H13.1512H13.1513H13.1514H13.1515H13.1515H13.1516H13.1517H13.1518H13.1519H13.152H13.1521H13.1522H13.1523H13.1523H13.1524H13.1525H13.1526H13.1527H13.1528H13.1529H13.153H13.1531H13.1532H13.1533H13.1534H13.1534H13.1535H13.1536H13.1537H13.1538H13.1539H13.154H13.1541H13.1542H13.1543H13.1544H13.1545H13.1546H13.1547H13.1548H13.1549H13.1549H13.155H13.1551H13.1552H13.1553H13.1554H13.1555H13.1556H13.1557H13.1558H13.1559H13.156H13.1561H13.1562H13.1563H13.1564H13.1565H13.1566H13.1567H13.1568H13.1569H13.157H13.1571H13.1572H13.1573H13.1574H13.1575H13.1576H13.1577H13.1578H13.1579H13.1581H13.1582H13.1583H13.1584H13.1585H13.1586H13.1587H13.1588H13.1589H13.159H13.1591H13.1592H13.1593H13.1594H13.1595H13.1597H13.1598H13.1599H13.16H13.1601H13.1602H13.1603H13.1604H13.1605H13.1607H13.1608H13.1609H13.161H13.1611H13.1612H13.1613H13.1615H13.1616H13.1617H13.1618H13.1619H13.162H13.1622H13.1623H13.1624H13.1625H13.1626H13.1628H13.1629H13.163H13.1631H13.1633H13.1634H13.1635H13.1636H13.1637H13.1639H13.164H13.1641H13.1642H13.1644H13.1645H13.1646H13.1648H13.1649H13.165H13.1651H13.1653H13.1654H13.1655H13.1657H13.1658H13.1659H13.1661H13.1662H13.1663H13.1665H13.1666H13.1667H13.1669H13.167H13.1671H13.1673H13.1674H13.1675H13.1677H13.1678H13.168H13.1681H13.1682H13.1684H13.1685H13.1687H13.1688H13.169H13.1691H13.1692H13.1694H13.1695H13.1697H13.1698H13.17H13.1701H13.1703H13.1704H13.1706H13.1707H13.1709H13.171H13.1712H13.1713H13.1715H13.1716H13.1718H13.1719H13.1721H13.1723H13.1724H13.1726H13.1727H13.1729H13.173H13.1732H13.1734H13.1735H13.1737H13.1739H13.174H13.1742H13.1743H13.1745H13.1747H13.1748H13.175H13.1752H13.1753Z" fill="white" stroke="black" stroke-width="0.170472"/>
<path d="M31.2427 16.8462L31.2441 16.8465C31.274 16.7269 31.2743 16.5908 31.2743 16.4474C31.2743 15.1311 30.19 14.0468 28.8737 14.0468C27.9452 14.0468 27.1252 14.5566 26.7063 15.3919C26.6938 15.4266 26.6701 15.4489 26.6477 15.4639C26.6315 15.4747 26.6121 15.4838 26.599 15.4899C26.5952 15.4917 26.5919 15.4932 26.5893 15.4945L26.5834 15.4975L26.5832 15.497C26.5178 15.5188 26.4535 15.4972 26.4112 15.4563C26.1997 15.2908 25.9581 15.2152 25.6842 15.2152C25.0153 15.2152 24.4678 15.7627 24.4678 16.4316C24.4678 16.5117 24.468 16.6015 24.4827 16.675L24.4846 16.6842H24.4836V16.6843V16.6844V16.6845V16.6846V16.6847V16.6848V16.6849V16.685V16.685V16.6851V16.6852V16.6853V16.6854V16.6855V16.6856V16.6857V16.6858V16.6859V16.686V16.6861V16.6862V16.6862V16.6863V16.6864V16.6865V16.6866V16.6867V16.6868V16.6869V16.687V16.6871V16.6872V16.6873V16.6874V16.6874V16.6875V16.6876V16.6877V16.6878V16.6879V16.688V16.6881V16.6882V16.6883V16.6884V16.6885V16.6886V16.6887V16.6887V16.6888V16.6889V16.689V16.6891V16.6892V16.6893V16.6894V16.6895V16.6896V16.6897V16.6898V16.6899V16.6899V16.69V16.6901V16.6902V16.6903V16.6904V16.6905V16.6906V16.6907V16.6908V16.6909V16.691V16.6911V16.6911V16.6912V16.6913V16.6914V16.6915V16.6916V16.6917V16.6918V16.6919V16.692V16.6921V16.6922V16.6923V16.6924V16.6924V16.6925V16.6926V16.6927V16.6928V16.6929V16.693V16.6931V16.6932V16.6933V16.6934V16.6935V16.6936V16.6936V16.6937V16.6938V16.6939V16.694V16.6941V16.6942V16.6943V16.6944V16.6945V16.6946V16.6947V16.6948V16.6948V16.6949V16.695V16.6951V16.6952V16.6953V16.6954V16.6955V16.6956V16.6957V16.6958V16.6959V16.696V16.6961V16.6961V16.6962V16.6963V16.6964V16.6965V16.6966V16.6967V16.6968V16.6969V16.697V16.6971V16.6972V16.6973V16.6973V16.6974V16.6975V16.6976V16.6977V16.6978V16.6979V16.698V16.6981V16.6982V16.6983V16.6984V16.6985V16.6986V16.6986V16.6987V16.6988V16.6989V16.699V16.6991V16.6992V16.6993V16.6994V16.6995V16.6996V16.6997V16.6998V16.6998V16.6999V16.7V16.7001V16.7002V16.7003V16.7004V16.7005V16.7006V16.7007V16.7008V16.7009V16.701V16.701V16.7011V16.7012V16.7013V16.7014V16.7015V16.7016V16.7017V16.7018V16.7019V16.702V16.7021V16.7022V16.7023V16.7023V16.7024V16.7025V16.7026V16.7027V16.7028V16.7029V16.703V16.7031V16.7032V16.7033V16.7034V16.7035V16.7035V16.7036V16.7037V16.7038V16.7039V16.704V16.7041V16.7042V16.7043V16.7044V16.7045V16.7046V16.7047V16.7047V16.7048V16.7049V16.705V16.7051V16.7052V16.7053V16.7054V16.7055V16.7056V16.7057V16.7058V16.7059V16.706V16.706V16.7061V16.7062V16.7063V16.7064V16.7065V16.7066V16.7067V16.7068V16.7069V16.707V16.7071V16.7072V16.7072V16.7073V16.7074V16.7075V16.7076V16.7077V16.7078V16.7079V16.708V16.7081V16.7082V16.7083V16.7084V16.7084V16.7085V16.7086V16.7087V16.7088V16.7089V16.709V16.7091V16.7092V16.7093V16.7094V16.7095V16.7096V16.7097V16.7097V16.7098V16.7099V16.71V16.7101V16.7102V16.7103V16.7104V16.7105V16.7106V16.7107V16.7108V16.7109V16.7109V16.711V16.7111V16.7112V16.7113V16.7114V16.7115V16.7116V16.7117V16.7118V16.7119V16.712V16.7121V16.7122V16.7122V16.7123V16.7124V16.7125V16.7126V16.7127V16.7128V16.7129V16.713V16.7131V16.7132V16.7133V16.7134V16.7134V16.7135V16.7136V16.7137V16.7138V16.7139V16.714V16.7141V16.7142V16.7143V16.7144V16.7145V16.7146V16.7146V16.7147V16.7148V16.7149V16.715V16.7151V16.7152V16.7153V16.7154V16.7155V16.7156V16.7157V16.7158V16.7159V16.7159V16.716V16.7161V16.7162V16.7163V16.7164V16.7165V16.7166V16.7167V16.7168V16.7169V16.717V16.7171V16.7171V16.7172V16.7173V16.7174V16.7175V16.7176V16.7177V16.7178V16.7179V16.718V16.7181V16.7182V16.7183V16.7183V16.7184V16.7185V16.7186V16.7187V16.7188V16.7189V16.719V16.7191V16.7192V16.7193V16.7194V16.7195V16.7196V16.7196V16.7197V16.7198V16.7199V16.72V16.7201V16.7202V16.7203V16.7204V16.7205V16.7206V16.7207V16.7208V16.7208V16.7209V16.721V16.7211V16.7212V16.7213V16.7214V16.7215V16.7216V16.7217V16.7218V16.7219V16.722V16.722V16.7221V16.7222V16.7223V16.7224V16.7225V16.7226V16.7227V16.7228V16.7229V16.723V16.7231V16.7232V16.7233V16.7233V16.7234V16.7235V16.7236V16.7237V16.7238V16.7239V16.724V16.7241V16.7242V16.7243V16.7244V16.7245V16.7245V16.7246V16.7247V16.7248V16.7249V16.725V16.7251V16.7252V16.7253V16.7254V16.7255V16.7256V16.7257V16.7258V16.7258V16.7259V16.726V16.7261V16.7262V16.7263V16.7264V16.7265V16.7266V16.7267V16.7268V16.7269V16.727V16.727V16.7271V16.7272V16.7273V16.7274V16.7275V16.7276V16.7277V16.7278V16.7279V16.728V16.7281V16.7282V16.7282V16.7283V16.7284V16.7285V16.7286V16.7287V16.7288V16.7289V16.729V16.7291V16.7292V16.7293V16.7294V16.7295V16.7295V16.7296V16.7297V16.7298V16.7299V16.73V16.7301V16.7302V16.7303V16.7304V16.7305V16.7306V16.7307V16.7307V16.7308V16.7309V16.731V16.7311V16.7312V16.7313V16.7314V16.7315V16.7316C24.4836 16.8333 24.4025 16.9363 24.2789 16.9363H24.2632C23.5943 16.9363 23.0468 17.4837 23.0468 18.1526C23.0468 18.8215 23.5943 19.369 24.2632 19.369C24.2855 19.369 24.3104 19.3743 24.3312 19.3813C24.3499 19.3875 24.3734 19.3977 24.3893 19.4127C24.6523 19.6367 24.8981 19.744 25.1395 19.744C25.3811 19.744 25.6273 19.6364 25.8907 19.4118L25.8995 19.4043L25.9001 19.4055C25.9014 19.4049 25.9026 19.4043 25.9039 19.4036C25.9326 19.3892 25.9729 19.369 26.0158 19.369H26.0316C26.0607 19.369 26.0871 19.3739 26.1118 19.3849C26.1362 19.3958 26.1566 19.4115 26.1752 19.4301L26.1785 19.4334L26.1783 19.4335C26.4531 19.7694 26.8659 19.9532 27.2947 19.9532C27.6909 19.9532 28.0892 19.7702 28.3811 19.4476L28.3827 19.4458L28.3827 19.4459C28.4236 19.4049 28.4832 19.3848 28.5263 19.3848C28.5779 19.3848 28.6495 19.4016 28.6778 19.4708C28.905 19.7394 29.252 19.8901 29.6316 19.8901C29.996 19.8901 30.3299 19.7388 30.5736 19.4659C30.6182 19.402 30.7014 19.3821 30.7651 19.4022C30.8663 19.4255 30.9633 19.4449 31.0427 19.4585C31.124 19.4724 31.1835 19.4795 31.2105 19.4795C31.8794 19.4795 32.4269 18.9321 32.4269 18.2632V18.262L32.4269 18.262C32.4421 17.671 32.0031 17.1554 31.4125 17.0783C31.4116 17.0782 31.4107 17.0781 31.4098 17.078L31.4158 17.0316C31.3684 17.0316 31.3368 17 31.3211 16.9684L31.2427 16.8462ZM31.2427 16.8462V16.8579C31.2427 16.859 31.2427 16.8601 31.2427 16.8614C31.2426 16.8898 31.2424 16.9507 31.2826 16.9959L31.2427 16.8462ZM30.2316 16.352V16.353L30.2408 16.3511C30.292 16.3409 30.3382 16.3103 30.3668 16.2686C30.3952 16.2274 30.4072 16.1737 30.3875 16.1194C30.2725 15.4234 29.8367 15.0856 29.4298 14.9236C29.2266 14.8428 29.0304 14.8055 28.8843 14.7884C28.8112 14.7798 28.7503 14.7763 28.7071 14.7749C28.6855 14.7742 28.6683 14.7741 28.6561 14.7741L28.6418 14.7742L28.6378 14.7742C28.6368 14.7743 28.6366 14.7743 28.6367 14.7743L28.6368 14.7743C28.5811 14.7743 28.5334 14.8021 28.5008 14.8398C28.4683 14.8773 28.448 14.9274 28.448 14.9789C28.448 15.0347 28.4758 15.0823 28.5134 15.115C28.5509 15.1475 28.6011 15.1678 28.6526 15.1678C28.6539 15.1678 28.6558 15.1678 28.6584 15.1678C28.7066 15.167 28.9842 15.1627 29.2768 15.279C29.5829 15.4007 29.9046 15.6537 29.996 16.1869L29.996 16.1869L29.9962 16.1881C30.0167 16.2906 30.1004 16.352 30.2 16.352H30.2001H30.2002H30.2003H30.2004H30.2005H30.2005H30.2006H30.2007H30.2008H30.2009H30.201H30.2011H30.2012H30.2013H30.2013H30.2014H30.2015H30.2016H30.2017H30.2018H30.2019H30.2019H30.202H30.2021H30.2022H30.2023H30.2024H30.2025H30.2025H30.2026H30.2027H30.2028H30.2029H30.2029H30.203H30.2031H30.2032H30.2033H30.2033H30.2034H30.2035H30.2036H30.2037H30.2037H30.2038H30.2039H30.204H30.204H30.2041H30.2042H30.2043H30.2044H30.2044H30.2045H30.2046H30.2047H30.2047H30.2048H30.2049H30.205H30.205H30.2051H30.2052H30.2052H30.2053H30.2054H30.2055H30.2055H30.2056H30.2057H30.2057H30.2058H30.2059H30.206H30.206H30.2061H30.2062H30.2062H30.2063H30.2064H30.2064H30.2065H30.2066H30.2066H30.2067H30.2068H30.2068H30.2069H30.207H30.207H30.2071H30.2072H30.2072H30.2073H30.2074H30.2074H30.2075H30.2076H30.2076H30.2077H30.2077H30.2078H30.2079H30.2079H30.208H30.2081H30.2081H30.2082H30.2082H30.2083H30.2084H30.2084H30.2085H30.2085H30.2086H30.2087H30.2087H30.2088H30.2088H30.2089H30.209H30.209H30.2091H30.2091H30.2092H30.2093H30.2093H30.2094H30.2094H30.2095H30.2095H30.2096H30.2097H30.2097H30.2098H30.2098H30.2099H30.2099H30.21H30.2101H30.2101H30.2102H30.2102H30.2103H30.2103H30.2104H30.2104H30.2105H30.2106H30.2106H30.2107H30.2107H30.2108H30.2108H30.2109H30.2109H30.211H30.211H30.2111H30.2111H30.2112H30.2112H30.2113H30.2113H30.2114H30.2115H30.2115H30.2116H30.2116H30.2117H30.2117H30.2118H30.2118H30.2119H30.2119H30.212H30.212H30.2121H30.2121H30.2122H30.2122H30.2123H30.2123H30.2124H30.2124H30.2125H30.2125H30.2126H30.2126H30.2127H30.2127H30.2128H30.2128H30.2129H30.2129H30.213H30.213H30.2131H30.2131H30.2132H30.2132H30.2133H30.2133H30.2133H30.2134H30.2134H30.2135H30.2135H30.2136H30.2136H30.2137H30.2137H30.2138H30.2138H30.2139H30.2139H30.214H30.214H30.2141H30.2141H30.2142H30.2142H30.2143H30.2143H30.2143H30.2144H30.2144H30.2145H30.2145H30.2146H30.2146H30.2147H30.2147H30.2148H30.2148H30.2149H30.2149H30.215H30.215H30.215H30.2151H30.2151H30.2152H30.2152H30.2153H30.2153H30.2154H30.2154H30.2155H30.2155H30.2156H30.2156H30.2156H30.2157H30.2157H30.2158H30.2158H30.2159H30.2159H30.216H30.216H30.2161H30.2161H30.2162H30.2162H30.2163H30.2163H30.2163H30.2164H30.2164H30.2165H30.2165H30.2166H30.2166H30.2167H30.2167H30.2168H30.2168H30.2169H30.2169H30.2169H30.217H30.217H30.2171H30.2171H30.2172H30.2172H30.2173H30.2173H30.2174H30.2174H30.2175H30.2175H30.2176H30.2176H30.2177H30.2177H30.2177H30.2178H30.2178H30.2179H30.2179H30.218H30.218H30.2181H30.2181H30.2182H30.2182H30.2183H30.2183H30.2184H30.2184H30.2185H30.2185H30.2186H30.2186H30.2187H30.2187H30.2188H30.2188H30.2189H30.2189H30.219H30.219H30.2191H30.2191H30.2192H30.2192H30.2193H30.2193H30.2194H30.2194H30.2195H30.2195H30.2196H30.2196H30.2197H30.2197H30.2198H30.2198H30.2199H30.2199H30.22H30.22H30.2201H30.2201H30.2202H30.2202H30.2203H30.2203H30.2204H30.2204H30.2205H30.2205H30.2206H30.2206H30.2207H30.2208H30.2208H30.2209H30.2209H30.221H30.221H30.2211H30.2211H30.2212H30.2212H30.2213H30.2214H30.2214H30.2215H30.2215H30.2216H30.2216H30.2217H30.2217H30.2218H30.2219H30.2219H30.222H30.222H30.2221H30.2221H30.2222H30.2223H30.2223H30.2224H30.2224H30.2225H30.2226H30.2226H30.2227H30.2227H30.2228H30.2229H30.2229H30.223H30.223H30.2231H30.2232H30.2232H30.2233H30.2233H30.2234H30.2235H30.2235H30.2236H30.2236H30.2237H30.2238H30.2238H30.2239H30.224H30.224H30.2241H30.2242H30.2242H30.2243H30.2243H30.2244H30.2245H30.2245H30.2246H30.2247H30.2247H30.2248H30.2249H30.2249H30.225H30.2251H30.2251H30.2252H30.2253H30.2253H30.2254H30.2255H30.2256H30.2256H30.2257H30.2258H30.2258H30.2259H30.226H30.226H30.2261H30.2262H30.2263H30.2263H30.2264H30.2265H30.2266H30.2266H30.2267H30.2268H30.2268H30.2269H30.227H30.2271H30.2271H30.2272H30.2273H30.2274H30.2275H30.2275H30.2276H30.2277H30.2278H30.2278H30.2279H30.228H30.2281H30.2282H30.2282H30.2283H30.2284H30.2285H30.2286H30.2286H30.2287H30.2288H30.2289H30.229H30.229H30.2291H30.2292H30.2293H30.2294H30.2295H30.2295H30.2296H30.2297H30.2298H30.2299H30.23H30.2301H30.2301H30.2302H30.2303H30.2304H30.2305H30.2306H30.2307H30.2308H30.2308H30.2309H30.231H30.2311H30.2312H30.2313H30.2314H30.2315H30.2316Z" fill="white" stroke="black" stroke-width="0.0935673"/>
<path d="M28.2427 19.8462L28.2441 19.8465C28.274 19.7269 28.2743 19.5908 28.2743 19.4474C28.2743 18.1311 27.19 17.0468 25.8737 17.0468C24.9452 17.0468 24.1252 17.5566 23.7063 18.3919C23.6938 18.4266 23.6701 18.4489 23.6477 18.4639C23.6315 18.4747 23.6121 18.4838 23.599 18.4899C23.5952 18.4917 23.5919 18.4932 23.5893 18.4945L23.5834 18.4975L23.5832 18.497C23.5178 18.5188 23.4535 18.4972 23.4112 18.4563C23.1997 18.2908 22.9581 18.2152 22.6842 18.2152C22.0153 18.2152 21.4678 18.7627 21.4678 19.4316C21.4678 19.5117 21.468 19.6015 21.4827 19.675L21.4846 19.6842H21.4836V19.6843V19.6844V19.6845V19.6846V19.6847V19.6848V19.6849V19.685V19.685V19.6851V19.6852V19.6853V19.6854V19.6855V19.6856V19.6857V19.6858V19.6859V19.686V19.6861V19.6862V19.6862V19.6863V19.6864V19.6865V19.6866V19.6867V19.6868V19.6869V19.687V19.6871V19.6872V19.6873V19.6874V19.6874V19.6875V19.6876V19.6877V19.6878V19.6879V19.688V19.6881V19.6882V19.6883V19.6884V19.6885V19.6886V19.6887V19.6887V19.6888V19.6889V19.689V19.6891V19.6892V19.6893V19.6894V19.6895V19.6896V19.6897V19.6898V19.6899V19.6899V19.69V19.6901V19.6902V19.6903V19.6904V19.6905V19.6906V19.6907V19.6908V19.6909V19.691V19.6911V19.6911V19.6912V19.6913V19.6914V19.6915V19.6916V19.6917V19.6918V19.6919V19.692V19.6921V19.6922V19.6923V19.6924V19.6924V19.6925V19.6926V19.6927V19.6928V19.6929V19.693V19.6931V19.6932V19.6933V19.6934V19.6935V19.6936V19.6936V19.6937V19.6938V19.6939V19.694V19.6941V19.6942V19.6943V19.6944V19.6945V19.6946V19.6947V19.6948V19.6948V19.6949V19.695V19.6951V19.6952V19.6953V19.6954V19.6955V19.6956V19.6957V19.6958V19.6959V19.696V19.6961V19.6961V19.6962V19.6963V19.6964V19.6965V19.6966V19.6967V19.6968V19.6969V19.697V19.6971V19.6972V19.6973V19.6973V19.6974V19.6975V19.6976V19.6977V19.6978V19.6979V19.698V19.6981V19.6982V19.6983V19.6984V19.6985V19.6986V19.6986V19.6987V19.6988V19.6989V19.699V19.6991V19.6992V19.6993V19.6994V19.6995V19.6996V19.6997V19.6998V19.6998V19.6999V19.7V19.7001V19.7002V19.7003V19.7004V19.7005V19.7006V19.7007V19.7008V19.7009V19.701V19.701V19.7011V19.7012V19.7013V19.7014V19.7015V19.7016V19.7017V19.7018V19.7019V19.702V19.7021V19.7022V19.7023V19.7023V19.7024V19.7025V19.7026V19.7027V19.7028V19.7029V19.703V19.7031V19.7032V19.7033V19.7034V19.7035V19.7035V19.7036V19.7037V19.7038V19.7039V19.704V19.7041V19.7042V19.7043V19.7044V19.7045V19.7046V19.7047V19.7047V19.7048V19.7049V19.705V19.7051V19.7052V19.7053V19.7054V19.7055V19.7056V19.7057V19.7058V19.7059V19.706V19.706V19.7061V19.7062V19.7063V19.7064V19.7065V19.7066V19.7067V19.7068V19.7069V19.707V19.7071V19.7072V19.7072V19.7073V19.7074V19.7075V19.7076V19.7077V19.7078V19.7079V19.708V19.7081V19.7082V19.7083V19.7084V19.7084V19.7085V19.7086V19.7087V19.7088V19.7089V19.709V19.7091V19.7092V19.7093V19.7094V19.7095V19.7096V19.7097V19.7097V19.7098V19.7099V19.71V19.7101V19.7102V19.7103V19.7104V19.7105V19.7106V19.7107V19.7108V19.7109V19.7109V19.711V19.7111V19.7112V19.7113V19.7114V19.7115V19.7116V19.7117V19.7118V19.7119V19.712V19.7121V19.7122V19.7122V19.7123V19.7124V19.7125V19.7126V19.7127V19.7128V19.7129V19.713V19.7131V19.7132V19.7133V19.7134V19.7134V19.7135V19.7136V19.7137V19.7138V19.7139V19.714V19.7141V19.7142V19.7143V19.7144V19.7145V19.7146V19.7146V19.7147V19.7148V19.7149V19.715V19.7151V19.7152V19.7153V19.7154V19.7155V19.7156V19.7157V19.7158V19.7159V19.7159V19.716V19.7161V19.7162V19.7163V19.7164V19.7165V19.7166V19.7167V19.7168V19.7169V19.717V19.7171V19.7171V19.7172V19.7173V19.7174V19.7175V19.7176V19.7177V19.7178V19.7179V19.718V19.7181V19.7182V19.7183V19.7183V19.7184V19.7185V19.7186V19.7187V19.7188V19.7189V19.719V19.7191V19.7192V19.7193V19.7194V19.7195V19.7196V19.7196V19.7197V19.7198V19.7199V19.72V19.7201V19.7202V19.7203V19.7204V19.7205V19.7206V19.7207V19.7208V19.7208V19.7209V19.721V19.7211V19.7212V19.7213V19.7214V19.7215V19.7216V19.7217V19.7218V19.7219V19.722V19.722V19.7221V19.7222V19.7223V19.7224V19.7225V19.7226V19.7227V19.7228V19.7229V19.723V19.7231V19.7232V19.7233V19.7233V19.7234V19.7235V19.7236V19.7237V19.7238V19.7239V19.724V19.7241V19.7242V19.7243V19.7244V19.7245V19.7245V19.7246V19.7247V19.7248V19.7249V19.725V19.7251V19.7252V19.7253V19.7254V19.7255V19.7256V19.7257V19.7258V19.7258V19.7259V19.726V19.7261V19.7262V19.7263V19.7264V19.7265V19.7266V19.7267V19.7268V19.7269V19.727V19.727V19.7271V19.7272V19.7273V19.7274V19.7275V19.7276V19.7277V19.7278V19.7279V19.728V19.7281V19.7282V19.7282V19.7283V19.7284V19.7285V19.7286V19.7287V19.7288V19.7289V19.729V19.7291V19.7292V19.7293V19.7294V19.7295V19.7295V19.7296V19.7297V19.7298V19.7299V19.73V19.7301V19.7302V19.7303V19.7304V19.7305V19.7306V19.7307V19.7307V19.7308V19.7309V19.731V19.7311V19.7312V19.7313V19.7314V19.7315V19.7316C21.4836 19.8333 21.4025 19.9363 21.2789 19.9363H21.2632C20.5943 19.9363 20.0468 20.4837 20.0468 21.1526C20.0468 21.8215 20.5943 22.369 21.2632 22.369C21.2855 22.369 21.3104 22.3743 21.3312 22.3813C21.3499 22.3875 21.3734 22.3977 21.3893 22.4127C21.6523 22.6367 21.8981 22.744 22.1395 22.744C22.3811 22.744 22.6273 22.6364 22.8907 22.4118L22.8995 22.4043L22.9001 22.4055C22.9014 22.4049 22.9026 22.4043 22.9039 22.4036C22.9326 22.3892 22.9729 22.369 23.0158 22.369H23.0316C23.0607 22.369 23.0871 22.3739 23.1118 22.3849C23.1362 22.3958 23.1566 22.4115 23.1752 22.4301L23.1785 22.4334L23.1783 22.4335C23.4531 22.7694 23.8659 22.9532 24.2947 22.9532C24.6909 22.9532 25.0892 22.7702 25.3811 22.4476L25.3827 22.4458L25.3827 22.4459C25.4236 22.4049 25.4832 22.3848 25.5263 22.3848C25.5779 22.3848 25.6495 22.4016 25.6778 22.4708C25.905 22.7394 26.252 22.8901 26.6316 22.8901C26.996 22.8901 27.3299 22.7388 27.5736 22.4659C27.6182 22.402 27.7014 22.3821 27.7651 22.4022C27.8663 22.4255 27.9633 22.4449 28.0427 22.4585C28.124 22.4724 28.1835 22.4795 28.2105 22.4795C28.8794 22.4795 29.4269 21.9321 29.4269 21.2632V21.262L29.4269 21.262C29.4421 20.671 29.0031 20.1554 28.4125 20.0783C28.4116 20.0782 28.4107 20.0781 28.4098 20.078L28.4158 20.0316C28.3684 20.0316 28.3368 20 28.3211 19.9684L28.2427 19.8462ZM28.2427 19.8462V19.8579C28.2427 19.859 28.2427 19.8601 28.2427 19.8614C28.2426 19.8898 28.2424 19.9507 28.2826 19.9959L28.2427 19.8462ZM27.2316 19.352V19.353L27.2408 19.3511C27.292 19.3409 27.3382 19.3103 27.3668 19.2686C27.3952 19.2274 27.4072 19.1737 27.3875 19.1194C27.2725 18.4234 26.8367 18.0856 26.4298 17.9236C26.2266 17.8428 26.0304 17.8055 25.8843 17.7884C25.8112 17.7798 25.7503 17.7763 25.7071 17.7749C25.6855 17.7742 25.6683 17.7741 25.6561 17.7741L25.6418 17.7742L25.6378 17.7742C25.6368 17.7743 25.6366 17.7743 25.6367 17.7743L25.6368 17.7743C25.5811 17.7743 25.5334 17.8021 25.5008 17.8398C25.4683 17.8773 25.448 17.9274 25.448 17.9789C25.448 18.0347 25.4758 18.0823 25.5134 18.115C25.5509 18.1475 25.6011 18.1678 25.6526 18.1678C25.6539 18.1678 25.6558 18.1678 25.6584 18.1678C25.7066 18.167 25.9842 18.1627 26.2768 18.279C26.5829 18.4007 26.9046 18.6537 26.996 19.1869L26.996 19.1869L26.9962 19.1881C27.0167 19.2906 27.1004 19.352 27.2 19.352H27.2001H27.2002H27.2003H27.2004H27.2005H27.2005H27.2006H27.2007H27.2008H27.2009H27.201H27.2011H27.2012H27.2013H27.2013H27.2014H27.2015H27.2016H27.2017H27.2018H27.2019H27.2019H27.202H27.2021H27.2022H27.2023H27.2024H27.2025H27.2025H27.2026H27.2027H27.2028H27.2029H27.2029H27.203H27.2031H27.2032H27.2033H27.2033H27.2034H27.2035H27.2036H27.2037H27.2037H27.2038H27.2039H27.204H27.204H27.2041H27.2042H27.2043H27.2044H27.2044H27.2045H27.2046H27.2047H27.2047H27.2048H27.2049H27.205H27.205H27.2051H27.2052H27.2052H27.2053H27.2054H27.2055H27.2055H27.2056H27.2057H27.2057H27.2058H27.2059H27.206H27.206H27.2061H27.2062H27.2062H27.2063H27.2064H27.2064H27.2065H27.2066H27.2066H27.2067H27.2068H27.2068H27.2069H27.207H27.207H27.2071H27.2072H27.2072H27.2073H27.2074H27.2074H27.2075H27.2076H27.2076H27.2077H27.2077H27.2078H27.2079H27.2079H27.208H27.2081H27.2081H27.2082H27.2082H27.2083H27.2084H27.2084H27.2085H27.2085H27.2086H27.2087H27.2087H27.2088H27.2088H27.2089H27.209H27.209H27.2091H27.2091H27.2092H27.2093H27.2093H27.2094H27.2094H27.2095H27.2095H27.2096H27.2097H27.2097H27.2098H27.2098H27.2099H27.2099H27.21H27.2101H27.2101H27.2102H27.2102H27.2103H27.2103H27.2104H27.2104H27.2105H27.2106H27.2106H27.2107H27.2107H27.2108H27.2108H27.2109H27.2109H27.211H27.211H27.2111H27.2111H27.2112H27.2112H27.2113H27.2113H27.2114H27.2115H27.2115H27.2116H27.2116H27.2117H27.2117H27.2118H27.2118H27.2119H27.2119H27.212H27.212H27.2121H27.2121H27.2122H27.2122H27.2123H27.2123H27.2124H27.2124H27.2125H27.2125H27.2126H27.2126H27.2127H27.2127H27.2128H27.2128H27.2129H27.2129H27.213H27.213H27.2131H27.2131H27.2132H27.2132H27.2133H27.2133H27.2133H27.2134H27.2134H27.2135H27.2135H27.2136H27.2136H27.2137H27.2137H27.2138H27.2138H27.2139H27.2139H27.214H27.214H27.2141H27.2141H27.2142H27.2142H27.2143H27.2143H27.2143H27.2144H27.2144H27.2145H27.2145H27.2146H27.2146H27.2147H27.2147H27.2148H27.2148H27.2149H27.2149H27.215H27.215H27.215H27.2151H27.2151H27.2152H27.2152H27.2153H27.2153H27.2154H27.2154H27.2155H27.2155H27.2156H27.2156H27.2156H27.2157H27.2157H27.2158H27.2158H27.2159H27.2159H27.216H27.216H27.2161H27.2161H27.2162H27.2162H27.2163H27.2163H27.2163H27.2164H27.2164H27.2165H27.2165H27.2166H27.2166H27.2167H27.2167H27.2168H27.2168H27.2169H27.2169H27.2169H27.217H27.217H27.2171H27.2171H27.2172H27.2172H27.2173H27.2173H27.2174H27.2174H27.2175H27.2175H27.2176H27.2176H27.2177H27.2177H27.2177H27.2178H27.2178H27.2179H27.2179H27.218H27.218H27.2181H27.2181H27.2182H27.2182H27.2183H27.2183H27.2184H27.2184H27.2185H27.2185H27.2186H27.2186H27.2187H27.2187H27.2188H27.2188H27.2189H27.2189H27.219H27.219H27.2191H27.2191H27.2192H27.2192H27.2193H27.2193H27.2194H27.2194H27.2195H27.2195H27.2196H27.2196H27.2197H27.2197H27.2198H27.2198H27.2199H27.2199H27.22H27.22H27.2201H27.2201H27.2202H27.2202H27.2203H27.2203H27.2204H27.2204H27.2205H27.2205H27.2206H27.2206H27.2207H27.2208H27.2208H27.2209H27.2209H27.221H27.221H27.2211H27.2211H27.2212H27.2212H27.2213H27.2214H27.2214H27.2215H27.2215H27.2216H27.2216H27.2217H27.2217H27.2218H27.2219H27.2219H27.222H27.222H27.2221H27.2221H27.2222H27.2223H27.2223H27.2224H27.2224H27.2225H27.2226H27.2226H27.2227H27.2227H27.2228H27.2229H27.2229H27.223H27.223H27.2231H27.2232H27.2232H27.2233H27.2233H27.2234H27.2235H27.2235H27.2236H27.2236H27.2237H27.2238H27.2238H27.2239H27.224H27.224H27.2241H27.2242H27.2242H27.2243H27.2243H27.2244H27.2245H27.2245H27.2246H27.2247H27.2247H27.2248H27.2249H27.2249H27.225H27.2251H27.2251H27.2252H27.2253H27.2253H27.2254H27.2255H27.2256H27.2256H27.2257H27.2258H27.2258H27.2259H27.226H27.226H27.2261H27.2262H27.2263H27.2263H27.2264H27.2265H27.2266H27.2266H27.2267H27.2268H27.2268H27.2269H27.227H27.2271H27.2271H27.2272H27.2273H27.2274H27.2275H27.2275H27.2276H27.2277H27.2278H27.2278H27.2279H27.228H27.2281H27.2282H27.2282H27.2283H27.2284H27.2285H27.2286H27.2286H27.2287H27.2288H27.2289H27.229H27.229H27.2291H27.2292H27.2293H27.2294H27.2295H27.2295H27.2296H27.2297H27.2298H27.2299H27.23H27.2301H27.2301H27.2302H27.2303H27.2304H27.2305H27.2306H27.2307H27.2308H27.2308H27.2309H27.231H27.2311H27.2312H27.2313H27.2314H27.2315H27.2316Z" fill="white" stroke="black" stroke-width="0.0935673"/>
<defs>
<clipPath id="clip0_32_535">
<rect x="5" width="25" height="25" rx="12.5" fill="white"/>
</clipPath>
</defs>
</svg>
