<svg width="31" height="25" viewBox="0 0 31 25" fill="none" xmlns="http://www.w3.org/2000/svg">
<g clip-path="url(#clip0_34_826)">
<rect x="5.23706" width="25" height="25" rx="12.5" fill="#F7B50A"/>
<circle cx="17.7371" cy="12.5" r="14.4676" fill="#F7B50A" stroke="black" stroke-width="3.93519"/>
<circle cx="15.075" cy="11.9212" r="13.0787" fill="#FAC63E"/>
<path d="M9.23706 20.2709V14.7292" stroke="#3F69FF" stroke-width="0.583333" stroke-linecap="round"/>
<path d="M11.2563 21L11.2563 14" stroke="#3F69FF" stroke-width="0.583333" stroke-linecap="round"/>
<path d="M13.2755 19.5417L13.2755 15.4584" stroke="#3F69FF" stroke-width="0.583333" stroke-linecap="round"/>
<path d="M15.2948 19.5417L15.2948 15.4584" stroke="#3F69FF" stroke-width="0.583333" stroke-linecap="round"/>
<path d="M17.314 20.2709V14.7292" stroke="#3F69FF" stroke-width="0.583333" stroke-linecap="round"/>
<path d="M19.3333 18.9584L19.3333 16.0417" stroke="#3F69FF" stroke-width="0.583333" stroke-linecap="round"/>
<path d="M16.8263 21.125L15.5763 19.4286L16.0228 18L14.4156 18.0893L14.2371 19.5179L16.2013 21.125L15.3978 23L16.8263 21.125Z" fill="#F7B50A" stroke="black" stroke-width="0.0625"/>
</g>
<path d="M19.6894 13.2547L19.6868 13.2648V13.2753C19.6868 13.2773 19.6868 13.2794 19.6868 13.2816C19.6867 13.3335 19.6863 13.4445 19.7596 13.5267C19.7988 13.5975 19.8767 13.6745 19.9962 13.6769C21.0723 13.8174 21.872 14.7568 21.8444 15.8334L21.8443 15.8334V15.8356C21.8443 17.0543 20.8469 18.0517 19.6282 18.0517C19.5789 18.0517 19.4706 18.0387 19.3225 18.0134C19.1778 17.9887 19.001 17.9534 18.8167 17.9109C18.7006 17.8743 18.5491 17.9105 18.4678 18.0268C18.0238 18.5242 17.4154 18.7997 16.7515 18.7997C16.06 18.7997 15.4277 18.5253 15.0139 18.0359C14.9622 17.9098 14.8318 17.8791 14.7378 17.8791C14.6592 17.8791 14.5507 17.9158 14.4762 17.9904L14.4761 17.9903L14.4732 17.9935C13.9414 18.5813 13.2158 18.9148 12.494 18.9148C11.7126 18.9148 10.9607 18.5799 10.4599 17.9679L10.4603 17.9677L10.4542 17.9616C10.4204 17.9278 10.3833 17.8991 10.3387 17.8793C10.2938 17.8593 10.2457 17.8504 10.1926 17.8504H10.1638C10.0858 17.8504 10.0123 17.8872 9.96001 17.9134C9.95767 17.9146 9.95537 17.9158 9.95311 17.9169L9.94382 17.9215L9.93592 17.9283C9.45608 18.3376 9.00754 18.5336 8.56726 18.5336C8.12758 18.5336 7.67967 18.3381 7.20058 17.93C7.17155 17.9026 7.12866 17.884 7.09472 17.8727C7.05675 17.8601 7.01137 17.8504 6.97068 17.8504C5.752 17.8504 4.75455 16.8529 4.75455 15.6342C4.75455 14.4156 5.752 13.4181 6.97068 13.4181H6.99945C7.22457 13.4181 7.37236 13.2305 7.37236 13.0452V13.045V13.0449V13.0447V13.0445V13.0444V13.0442V13.044V13.0438V13.0437V13.0435V13.0433V13.0432V13.043V13.0428V13.0427V13.0425V13.0423V13.0422V13.042V13.0418V13.0417V13.0415V13.0413V13.0411V13.041V13.0408V13.0406V13.0405V13.0403V13.0401V13.04V13.0398V13.0396V13.0395V13.0393V13.0391V13.039V13.0388V13.0386V13.0385V13.0383V13.0381V13.0379V13.0378V13.0376V13.0374V13.0373V13.0371V13.0369V13.0368V13.0366V13.0364V13.0363V13.0361V13.0359V13.0358V13.0356V13.0354V13.0352V13.0351V13.0349V13.0347V13.0346V13.0344V13.0342V13.0341V13.0339V13.0337V13.0336V13.0334V13.0332V13.0331V13.0329V13.0327V13.0326V13.0324V13.0322V13.032V13.0319V13.0317V13.0315V13.0314V13.0312V13.031V13.0309V13.0307V13.0305V13.0304V13.0302V13.03V13.0299V13.0297V13.0295V13.0293V13.0292V13.029V13.0288V13.0287V13.0285V13.0283V13.0282V13.028V13.0278V13.0277V13.0275V13.0273V13.0272V13.027V13.0268V13.0267V13.0265V13.0263V13.0261V13.026V13.0258V13.0256V13.0255V13.0253V13.0251V13.025V13.0248V13.0246V13.0245V13.0243V13.0241V13.024V13.0238V13.0236V13.0234V13.0233V13.0231V13.0229V13.0228V13.0226V13.0224V13.0223V13.0221V13.0219V13.0218V13.0216V13.0214V13.0213V13.0211V13.0209V13.0208V13.0206V13.0204V13.0202V13.0201V13.0199V13.0197V13.0196V13.0194V13.0192V13.0191V13.0189V13.0187V13.0186V13.0184V13.0182V13.0181V13.0179V13.0177V13.0176V13.0174V13.0172V13.017V13.0169V13.0167V13.0165V13.0164V13.0162V13.016V13.0159V13.0157V13.0155V13.0154V13.0152V13.015V13.0149V13.0147V13.0145V13.0143V13.0142V13.014V13.0138V13.0137V13.0135V13.0133V13.0132V13.013V13.0128V13.0127V13.0125V13.0123V13.0122V13.012V13.0118V13.0117V13.0115V13.0113V13.0111V13.011V13.0108V13.0106V13.0105V13.0103V13.0101V13.01V13.0098V13.0096V13.0095V13.0093V13.0091V13.009V13.0088V13.0086V13.0084V13.0083V13.0081V13.0079V13.0078V13.0076V13.0074V13.0073V13.0071V13.0069V13.0068V13.0066V13.0064V13.0063V13.0061V13.0059V13.0058V13.0056V13.0054V13.0052V13.0051V13.0049V13.0047V13.0046V13.0044V13.0042V13.0041V13.0039V13.0037V13.0036V13.0034V13.0032V13.0031V13.0029V13.0027V13.0025V13.0024V13.0022V13.002V13.0019V13.0017V13.0015V13.0014V13.0012V13.001V13.0009V13.0007V13.0005V13.0004V13.0002V13V12.9999V12.9997V12.9995V12.9993V12.9992V12.999V12.9988V12.9987V12.9985V12.9983V12.9982V12.998V12.9978V12.9977V12.9975V12.9973V12.9972V12.997V12.9968V12.9966V12.9965V12.9963V12.9961V12.996V12.9958V12.9956V12.9955V12.9953V12.9951V12.995V12.9948V12.9946V12.9945V12.9943V12.9941V12.994V12.9938V12.9936V12.9934V12.9933V12.9931V12.9929V12.9928V12.9926V12.9924V12.9923V12.9921V12.9919V12.9918V12.9916V12.9914V12.9913V12.9911V12.9909V12.9907V12.9906V12.9904V12.9902V12.9901V12.9899V12.9897V12.9896V12.9894V12.9892V12.9891V12.9889V12.9887V12.9886V12.9884V12.9882V12.9881V12.9879V12.9877V12.9875V12.9874V12.9872V12.987V12.9869V12.9867V12.9865V12.9864V12.9862V12.986V12.9859V12.9857V12.9855V12.9854V12.9852V12.985V12.9848V12.9847V12.9845V12.9843V12.9842V12.984V12.9838V12.9837V12.9835V12.9833V12.9832V12.983V12.9828V12.9827V12.9825V12.9823V12.9822V12.982V12.9818V12.9816V12.9815V12.9813V12.9811V12.981V12.9808V12.9806V12.9805V12.9803V12.9801V12.98V12.9798V12.9796V12.9795V12.9793V12.9791V12.979V12.9788V12.9786V12.9784V12.9783V12.9781V12.9779V12.9778V12.9776V12.9774V12.9773V12.9771V12.9769V12.9768V12.9766V12.9764V12.9763V12.9761V12.9759V12.9757V12.9756V12.9754V12.9752V12.9751V12.9749V12.9747V12.9746V12.9744V12.9742V12.9741V12.9739V12.9737V12.9736V12.9734V12.9732V12.9731V12.9729V12.9727V12.9725V12.9724V12.9722V12.972V12.9719V12.9717V12.9715V12.9714V12.9712V12.971V12.9709V12.9707V12.9705V12.9704V12.9702V12.97V12.9698V12.9697V12.9695V12.9693V12.9692V12.969V12.9688V12.9687V12.9685V12.9683V12.9682V12.968V12.9678V12.9677V12.9675V12.9673V12.9672V12.967V12.9668V12.9666V12.9665V12.9663V12.9661V12.966V12.9658V12.9656V12.9655V12.9653V12.9651V12.965V12.9648V12.9646V12.9645V12.9643V12.9641V12.9639V12.9638V12.9636V12.9634V12.9633V12.9631V12.9629V12.9628V12.9626V12.9624V12.9623V12.9621V12.9619V12.9618V12.9616V12.9614V12.9613V12.9611V12.9609V12.9607V12.9606V12.9604V12.9602V12.9601V12.9599V12.9597V12.9596V12.9594V12.9592V12.9591V12.9589V12.9505L7.3707 12.9422C7.34391 12.8082 7.34359 12.6446 7.34359 12.4986C7.34359 11.2799 8.34104 10.2825 9.55972 10.2825C10.0588 10.2825 10.4988 10.4202 10.8842 10.7217C10.9613 10.7962 11.0785 10.8356 11.1976 10.7959L11.1979 10.7967L11.2088 10.7913C11.2134 10.789 11.2194 10.7862 11.2264 10.7829C11.2503 10.7718 11.2856 10.7553 11.3151 10.7356C11.356 10.7083 11.399 10.6677 11.4219 10.6045C12.1851 9.0825 13.6791 8.15372 15.3707 8.15372C17.7688 8.15372 19.7443 10.1293 19.7443 12.5274C19.7443 12.7888 19.7439 13.0366 19.6894 13.2547ZM17.8447 12.3537H17.8531L17.8614 12.3521C17.9548 12.3334 18.0388 12.2777 18.0911 12.2017C18.1427 12.1267 18.1647 12.0288 18.1287 11.9298C17.9192 10.6618 17.1252 10.0463 16.3839 9.75127C16.0137 9.60393 15.6563 9.53604 15.39 9.50489C15.2568 9.48929 15.1459 9.48284 15.0672 9.4803C15.0278 9.47903 14.9964 9.47874 14.9743 9.47877L14.9482 9.47897L14.9409 9.4791C14.9393 9.47913 14.9388 9.47913 14.9388 9.47914H14.9392C14.8376 9.47914 14.7508 9.52988 14.6914 9.59845C14.6322 9.66677 14.595 9.7582 14.595 9.85204C14.595 9.95358 14.6458 10.0404 14.7143 10.0998C14.7827 10.1591 14.8741 10.1962 14.9679 10.1962C14.9702 10.1962 14.9737 10.1961 14.9785 10.1961C15.0663 10.1947 15.5719 10.1868 16.1051 10.3987C16.6628 10.6204 17.2489 11.0813 17.4154 12.0527L17.4154 12.0528L17.4159 12.0551C17.4532 12.2417 17.6057 12.3537 17.7871 12.3537H17.7873H17.7875H17.7876H17.7878H17.788H17.7881H17.7883H17.7884H17.7886H17.7888H17.7889H17.7891H17.7893H17.7894H17.7896H17.7897H17.7899H17.79H17.7902H17.7904H17.7905H17.7907H17.7908H17.791H17.7911H17.7913H17.7914H17.7916H17.7917H17.7919H17.792H17.7922H17.7923H17.7925H17.7926H17.7928H17.7929H17.7931H17.7932H17.7934H17.7935H17.7936H17.7938H17.7939H17.7941H17.7942H17.7944H17.7945H17.7946H17.7948H17.7949H17.7951H17.7952H17.7953H17.7955H17.7956H17.7957H17.7959H17.796H17.7961H17.7963H17.7964H17.7965H17.7967H17.7968H17.7969H17.7971H17.7972H17.7973H17.7975H17.7976H17.7977H17.7978H17.798H17.7981H17.7982H17.7983H17.7985H17.7986H17.7987H17.7988H17.799H17.7991H17.7992H17.7993H17.7995H17.7996H17.7997H17.7998H17.7999H17.8001H17.8002H17.8003H17.8004H17.8005H17.8006H17.8008H17.8009H17.801H17.8011H17.8012H17.8013H17.8015H17.8016H17.8017H17.8018H17.8019H17.802H17.8021H17.8022H17.8024H17.8025H17.8026H17.8027H17.8028H17.8029H17.803H17.8031H17.8032H17.8033H17.8035H17.8036H17.8037H17.8038H17.8039H17.804H17.8041H17.8042H17.8043H17.8044H17.8045H17.8046H17.8047H17.8048H17.8049H17.805H17.8051H17.8052H17.8053H17.8054H17.8055H17.8056H17.8057H17.8058H17.8059H17.806H17.8061H17.8062H17.8063H17.8064H17.8065H17.8066H17.8067H17.8068H17.8069H17.807H17.8071H17.8072H17.8073H17.8074H17.8075H17.8076H17.8077H17.8078H17.8079H17.808H17.8081H17.8082H17.8083H17.8084H17.8085H17.8086H17.8086H17.8087H17.8088H17.8089H17.809H17.8091H17.8092H17.8093H17.8094H17.8095H17.8096H17.8097H17.8097H17.8098H17.8099H17.81H17.8101H17.8102H17.8103H17.8104H17.8105H17.8106H17.8106H17.8107H17.8108H17.8109H17.811H17.8111H17.8112H17.8113H17.8114H17.8114H17.8115H17.8116H17.8117H17.8118H17.8119H17.812H17.8121H17.8121H17.8122H17.8123H17.8124H17.8125H17.8126H17.8127H17.8127H17.8128H17.8129H17.813H17.8131H17.8132H17.8133H17.8133H17.8134H17.8135H17.8136H17.8137H17.8138H17.8139H17.8139H17.814H17.8141H17.8142H17.8143H17.8144H17.8145H17.8145H17.8146H17.8147H17.8148H17.8149H17.815H17.815H17.8151H17.8152H17.8153H17.8154H17.8155H17.8155H17.8156H17.8157H17.8158H17.8159H17.816H17.8161H17.8161H17.8162H17.8163H17.8164H17.8165H17.8166H17.8166H17.8167H17.8168H17.8169H17.817H17.8171H17.8172H17.8172H17.8173H17.8174H17.8175H17.8176H17.8177H17.8177H17.8178H17.8179H17.818H17.8181H17.8182H17.8183H17.8183H17.8184H17.8185H17.8186H17.8187H17.8188H17.8189H17.8189H17.819H17.8191H17.8192H17.8193H17.8194H17.8195H17.8195H17.8196H17.8197H17.8198H17.8199H17.82H17.8201H17.8202H17.8202H17.8203H17.8204H17.8205H17.8206H17.8207H17.8208H17.8209H17.8209H17.821H17.8211H17.8212H17.8213H17.8214H17.8215H17.8216H17.8217H17.8218H17.8218H17.8219H17.822H17.8221H17.8222H17.8223H17.8224H17.8225H17.8226H17.8227H17.8228H17.8228H17.8229H17.823H17.8231H17.8232H17.8233H17.8234H17.8235H17.8236H17.8237H17.8238H17.8239H17.824H17.8241H17.8242H17.8243H17.8244H17.8245H17.8245H17.8246H17.8247H17.8248H17.8249H17.825H17.8251H17.8252H17.8253H17.8254H17.8255H17.8256H17.8257H17.8258H17.8259H17.826H17.8261H17.8262H17.8263H17.8264H17.8265H17.8266H17.8267H17.8268H17.8269H17.827H17.8272H17.8273H17.8274H17.8275H17.8276H17.8277H17.8278H17.8279H17.828H17.8281H17.8282H17.8283H17.8284H17.8285H17.8286H17.8288H17.8289H17.829H17.8291H17.8292H17.8293H17.8294H17.8295H17.8296H17.8297H17.8299H17.83H17.8301H17.8302H17.8303H17.8304H17.8305H17.8307H17.8308H17.8309H17.831H17.8311H17.8312H17.8314H17.8315H17.8316H17.8317H17.8318H17.832H17.8321H17.8322H17.8323H17.8324H17.8326H17.8327H17.8328H17.8329H17.8331H17.8332H17.8333H17.8334H17.8336H17.8337H17.8338H17.8339H17.8341H17.8342H17.8343H17.8344H17.8346H17.8347H17.8348H17.835H17.8351H17.8352H17.8354H17.8355H17.8356H17.8358H17.8359H17.836H17.8362H17.8363H17.8364H17.8366H17.8367H17.8369H17.837H17.8371H17.8373H17.8374H17.8376H17.8377H17.8378H17.838H17.8381H17.8383H17.8384H17.8386H17.8387H17.8388H17.839H17.8391H17.8393H17.8394H17.8396H17.8397H17.8399H17.84H17.8402H17.8403H17.8405H17.8406H17.8408H17.8409H17.8411H17.8413H17.8414H17.8416H17.8417H17.8419H17.842H17.8422H17.8424H17.8425H17.8427H17.8428H17.843H17.8432H17.8433H17.8435H17.8437H17.8438H17.844H17.8441H17.8443H17.8445H17.8447Z" fill="white" stroke="black" stroke-width="0.170472"/>
<path d="M4.23706 16.2709L4.23706 10.7292" stroke="#3F69FF" stroke-width="0.583333" stroke-linecap="round"/>
<path d="M6.25629 17L6.25629 10" stroke="#3F69FF" stroke-width="0.583333" stroke-linecap="round"/>
<path d="M8.27551 15.5416L8.27551 11.4583" stroke="#3F69FF" stroke-width="0.583333" stroke-linecap="round"/>
<path d="M10.2947 15.5416L10.2947 11.4583" stroke="#3F69FF" stroke-width="0.583333" stroke-linecap="round"/>
<path d="M12.314 16.2709V10.7292" stroke="#3F69FF" stroke-width="0.583333" stroke-linecap="round"/>
<path d="M14.3332 14.9584L14.3332 12.0417" stroke="#3F69FF" stroke-width="0.583333" stroke-linecap="round"/>
<path d="M10.3442 18.75L8.8442 16.7143L9.37992 15L7.45135 15.1071L7.23706 16.8214L9.5942 18.75L8.62992 21L10.3442 18.75Z" fill="#F7B50A" stroke="black" stroke-width="0.075"/>
<path d="M11.3085 17.5L10.3085 16.1429L10.6656 15L9.37992 15.0714L9.23706 16.2143L10.8085 17.5L10.1656 19L11.3085 17.5Z" fill="#F7B50A" stroke="black" stroke-width="0.05"/>
<path d="M15.2571 10.1862L15.2546 10.1964V10.2068C15.2546 10.2088 15.2546 10.2109 15.2546 10.2132C15.2544 10.265 15.2541 10.376 15.3273 10.4582C15.3666 10.529 15.4444 10.606 15.564 10.6085C16.64 10.7489 17.4397 11.6883 17.4121 12.7649L17.4121 12.7649V12.7671C17.4121 13.9858 16.4146 14.9833 15.196 14.9833C15.1466 14.9833 15.0383 14.9702 14.8903 14.9449C14.7456 14.9202 14.5687 14.8849 14.3845 14.8424C14.2684 14.8058 14.1169 14.842 14.0355 14.9583C13.5915 15.4557 12.9832 15.7312 12.3193 15.7312C11.6277 15.7312 10.9954 15.4568 10.5816 14.9674C10.5299 14.8413 10.3996 14.8107 10.3056 14.8107C10.2269 14.8107 10.1185 14.8474 10.0439 14.9219L10.0438 14.9218L10.041 14.925C9.50914 15.5128 8.78354 15.8463 8.06172 15.8463C7.28035 15.8463 6.52841 15.5114 6.02769 14.8995L6.02802 14.8992L6.02199 14.8932C5.98819 14.8594 5.951 14.8306 5.90644 14.8108C5.8615 14.7908 5.81344 14.7819 5.76035 14.7819H5.73158C5.65351 14.7819 5.58003 14.8187 5.52776 14.845C5.52542 14.8461 5.52312 14.8473 5.52086 14.8484L5.51157 14.8531L5.50366 14.8598C5.02383 15.2691 4.57529 15.4651 4.13501 15.4651C3.69533 15.4651 3.24742 15.2696 2.76833 14.8615C2.7393 14.8341 2.69641 14.8156 2.66247 14.8042C2.6245 14.7916 2.57912 14.7819 2.53843 14.7819C1.31975 14.7819 0.322296 13.7844 0.322296 12.5658C0.322296 11.3471 1.31975 10.3496 2.53843 10.3496H2.5672C2.79232 10.3496 2.9401 10.162 2.9401 9.97671V9.97654V9.97638V9.97621V9.97604V9.97587V9.9757V9.97553V9.97536V9.9752V9.97503V9.97486V9.97469V9.97452V9.97435V9.97418V9.97402V9.97385V9.97368V9.97351V9.97334V9.97317V9.973V9.97284V9.97267V9.9725V9.97233V9.97216V9.97199V9.97182V9.97166V9.97149V9.97132V9.97115V9.97098V9.97081V9.97064V9.97048V9.97031V9.97014V9.96997V9.9698V9.96963V9.96946V9.9693V9.96913V9.96896V9.96879V9.96862V9.96845V9.96828V9.96812V9.96795V9.96778V9.96761V9.96744V9.96727V9.9671V9.96694V9.96677V9.9666V9.96643V9.96626V9.96609V9.96592V9.96576V9.96559V9.96542V9.96525V9.96508V9.96491V9.96474V9.96458V9.96441V9.96424V9.96407V9.9639V9.96373V9.96356V9.9634V9.96323V9.96306V9.96289V9.96272V9.96255V9.96238V9.96222V9.96205V9.96188V9.96171V9.96154V9.96137V9.96121V9.96104V9.96087V9.9607V9.96053V9.96036V9.96019V9.96002V9.95986V9.95969V9.95952V9.95935V9.95918V9.95901V9.95885V9.95868V9.95851V9.95834V9.95817V9.958V9.95783V9.95767V9.9575V9.95733V9.95716V9.95699V9.95682V9.95665V9.95649V9.95632V9.95615V9.95598V9.95581V9.95564V9.95547V9.95531V9.95514V9.95497V9.9548V9.95463V9.95446V9.95429V9.95413V9.95396V9.95379V9.95362V9.95345V9.95328V9.95311V9.95295V9.95278V9.95261V9.95244V9.95227V9.9521V9.95193V9.95177V9.9516V9.95143V9.95126V9.95109V9.95092V9.95075V9.95059V9.95042V9.95025V9.95008V9.94991V9.94974V9.94957V9.94941V9.94924V9.94907V9.9489V9.94873V9.94856V9.94839V9.94823V9.94806V9.94789V9.94772V9.94755V9.94738V9.94721V9.94705V9.94688V9.94671V9.94654V9.94637V9.9462V9.94603V9.94587V9.9457V9.94553V9.94536V9.94519V9.94502V9.94485V9.94469V9.94452V9.94435V9.94418V9.94401V9.94384V9.94368V9.94351V9.94334V9.94317V9.943V9.94283V9.94266V9.94249V9.94233V9.94216V9.94199V9.94182V9.94165V9.94148V9.94132V9.94115V9.94098V9.94081V9.94064V9.94047V9.9403V9.94014V9.93997V9.9398V9.93963V9.93946V9.93929V9.93912V9.93896V9.93879V9.93862V9.93845V9.93828V9.93811V9.93794V9.93778V9.93761V9.93744V9.93727V9.9371V9.93693V9.93676V9.9366V9.93643V9.93626V9.93609V9.93592V9.93575V9.93558V9.93542V9.93525V9.93508V9.93491V9.93474V9.93457V9.9344V9.93424V9.93407V9.9339V9.93373V9.93356V9.93339V9.93322V9.93306V9.93289V9.93272V9.93255V9.93238V9.93221V9.93204V9.93188V9.93171V9.93154V9.93137V9.9312V9.93103V9.93086V9.9307V9.93053V9.93036V9.93019V9.93002V9.92985V9.92968V9.92952V9.92935V9.92918V9.92901V9.92884V9.92867V9.9285V9.92834V9.92817V9.928V9.92783V9.92766V9.92749V9.92732V9.92716V9.92699V9.92682V9.92665V9.92648V9.92631V9.92615V9.92598V9.92581V9.92564V9.92547V9.9253V9.92513V9.92496V9.9248V9.92463V9.92446V9.92429V9.92412V9.92395V9.92379V9.92362V9.92345V9.92328V9.92311V9.92294V9.92277V9.92261V9.92244V9.92227V9.9221V9.92193V9.92176V9.92159V9.92143V9.92126V9.92109V9.92092V9.92075V9.92058V9.92041V9.92025V9.92008V9.91991V9.91974V9.91957V9.9194V9.91923V9.91907V9.9189V9.91873V9.91856V9.91839V9.91822V9.91805V9.91789V9.91772V9.91755V9.91738V9.91721V9.91704V9.91687V9.91671V9.91654V9.91637V9.9162V9.91603V9.91586V9.91569V9.91553V9.91536V9.91519V9.91502V9.91485V9.91468V9.91451V9.91435V9.91418V9.91401V9.91384V9.91367V9.9135V9.91333V9.91317V9.913V9.91283V9.91266V9.91249V9.91232V9.91215V9.91199V9.91182V9.91165V9.91148V9.91131V9.91114V9.91097V9.91081V9.91064V9.91047V9.9103V9.91013V9.90996V9.90979V9.90963V9.90946V9.90929V9.90912V9.90895V9.90878V9.90862V9.90845V9.90828V9.90811V9.90794V9.90777V9.9076V9.90744V9.90727V9.9071V9.90693V9.90676V9.90659V9.90642V9.90626V9.90609V9.90592V9.90575V9.90558V9.90541V9.90524V9.90508V9.90491V9.90474V9.90457V9.9044V9.90423V9.90406V9.9039V9.90373V9.90356V9.90339V9.90322V9.90305V9.90288V9.90272V9.90255V9.90238V9.90221V9.90204V9.90187V9.9017V9.90154V9.90137V9.9012V9.90103V9.90086V9.90069V9.90052V9.90036V9.90019V9.90002V9.89985V9.89968V9.89951V9.89934V9.89918V9.89901V9.89884V9.89867V9.8985V9.89833V9.89816V9.898V9.89783V9.89766V9.89749V9.89732V9.89715V9.89698V9.89682V9.89665V9.89648V9.89631V9.89614V9.89597V9.8958V9.89564V9.89547V9.8953V9.89513V9.89496V9.89479V9.89462V9.89446V9.89429V9.89412V9.89395V9.89378V9.89361V9.89345V9.89328V9.89311V9.89294V9.89277V9.8926V9.89243V9.89226V9.8921V9.89193V9.89176V9.89159V9.89142V9.89125V9.89109V9.89092V9.89075V9.89058V9.89041V9.88197L2.93845 9.87369C2.91165 9.73972 2.91134 9.57608 2.91134 9.43014C2.91134 8.21146 3.90879 7.214 5.12747 7.214C5.62656 7.214 6.06659 7.35171 6.45197 7.65319C6.52907 7.72771 6.64626 7.76714 6.76538 7.72744L6.76566 7.72826L6.77655 7.72281C6.78114 7.72052 6.78717 7.7177 6.7942 7.71442C6.81803 7.70329 6.85333 7.6868 6.8828 7.66715C6.92377 7.63984 6.96679 7.59918 6.9897 7.53601C7.75288 6.01402 9.24684 5.08524 10.9384 5.08524C13.3366 5.08524 15.3121 7.06077 15.3121 9.4589C15.3121 9.72031 15.3116 9.96813 15.2571 10.1862ZM13.4124 9.28524H13.4208L13.4291 9.28358C13.5226 9.26489 13.6066 9.20922 13.6588 9.13322C13.7104 9.05817 13.7324 8.96031 13.6965 8.8613C13.487 7.59329 12.693 6.97785 11.9516 6.68279C11.5814 6.53544 11.224 6.46756 10.9578 6.4364C10.8245 6.4208 10.7136 6.41436 10.6349 6.41182C10.5955 6.41055 10.5642 6.41026 10.542 6.41029L10.516 6.41049L10.5086 6.41062C10.507 6.41065 10.5066 6.41065 10.5066 6.41065H10.5069C10.4054 6.41065 10.3185 6.4614 10.2591 6.52996C10.1999 6.59829 10.1628 6.68971 10.1628 6.78356C10.1628 6.8851 10.2135 6.97194 10.2821 7.03136C10.3504 7.09058 10.4418 7.1277 10.5357 7.1277C10.5379 7.1277 10.5415 7.12765 10.5462 7.12757C10.6341 7.1262 11.1397 7.11829 11.6729 7.33023C12.2305 7.55192 12.8167 8.01284 12.9832 8.98426L12.9832 8.98427L12.9836 8.98658C13.0209 9.17321 13.1735 9.28524 13.3549 9.28524H13.355H13.3552H13.3554H13.3555H13.3557H13.3559H13.356H13.3562H13.3564H13.3565H13.3567H13.3568H13.357H13.3572H13.3573H13.3575H13.3576H13.3578H13.358H13.3581H13.3583H13.3584H13.3586H13.3587H13.3589H13.359H13.3592H13.3593H13.3595H13.3596H13.3598H13.3599H13.3601H13.3602H13.3604H13.3605H13.3607H13.3608H13.361H13.3611H13.3613H13.3614H13.3615H13.3617H13.3618H13.362H13.3621H13.3622H13.3624H13.3625H13.3627H13.3628H13.3629H13.3631H13.3632H13.3633H13.3635H13.3636H13.3638H13.3639H13.364H13.3642H13.3643H13.3644H13.3646H13.3647H13.3648H13.3649H13.3651H13.3652H13.3653H13.3655H13.3656H13.3657H13.3658H13.366H13.3661H13.3662H13.3663H13.3665H13.3666H13.3667H13.3668H13.367H13.3671H13.3672H13.3673H13.3674H13.3676H13.3677H13.3678H13.3679H13.368H13.3682H13.3683H13.3684H13.3685H13.3686H13.3687H13.3689H13.369H13.3691H13.3692H13.3693H13.3694H13.3695H13.3697H13.3698H13.3699H13.37H13.3701H13.3702H13.3703H13.3704H13.3705H13.3707H13.3708H13.3709H13.371H13.3711H13.3712H13.3713H13.3714H13.3715H13.3716H13.3717H13.3718H13.3719H13.3721H13.3722H13.3723H13.3724H13.3725H13.3726H13.3727H13.3728H13.3729H13.373H13.3731H13.3732H13.3733H13.3734H13.3735H13.3736H13.3737H13.3738H13.3739H13.374H13.3741H13.3742H13.3743H13.3744H13.3745H13.3746H13.3747H13.3748H13.3749H13.375H13.3751H13.3752H13.3753H13.3754H13.3755H13.3755H13.3756H13.3757H13.3758H13.3759H13.376H13.3761H13.3762H13.3763H13.3764H13.3765H13.3766H13.3767H13.3768H13.3769H13.3769H13.377H13.3771H13.3772H13.3773H13.3774H13.3775H13.3776H13.3777H13.3778H13.3779H13.3779H13.378H13.3781H13.3782H13.3783H13.3784H13.3785H13.3786H13.3787H13.3788H13.3788H13.3789H13.379H13.3791H13.3792H13.3793H13.3794H13.3795H13.3795H13.3796H13.3797H13.3798H13.3799H13.38H13.3801H13.3801H13.3802H13.3803H13.3804H13.3805H13.3806H13.3807H13.3808H13.3808H13.3809H13.381H13.3811H13.3812H13.3813H13.3814H13.3814H13.3815H13.3816H13.3817H13.3818H13.3819H13.3819H13.382H13.3821H13.3822H13.3823H13.3824H13.3825H13.3825H13.3826H13.3827H13.3828H13.3829H13.383H13.383H13.3831H13.3832H13.3833H13.3834H13.3835H13.3836H13.3836H13.3837H13.3838H13.3839H13.384H13.3841H13.3841H13.3842H13.3843H13.3844H13.3845H13.3846H13.3846H13.3847H13.3848H13.3849H13.385H13.3851H13.3852H13.3852H13.3853H13.3854H13.3855H13.3856H13.3857H13.3857H13.3858H13.3859H13.386H13.3861H13.3862H13.3863H13.3863H13.3864H13.3865H13.3866H13.3867H13.3868H13.3869H13.3869H13.387H13.3871H13.3872H13.3873H13.3874H13.3875H13.3876H13.3876H13.3877H13.3878H13.3879H13.388H13.3881H13.3882H13.3883H13.3883H13.3884H13.3885H13.3886H13.3887H13.3888H13.3889H13.389H13.3891H13.3891H13.3892H13.3893H13.3894H13.3895H13.3896H13.3897H13.3898H13.3899H13.39H13.39H13.3901H13.3902H13.3903H13.3904H13.3905H13.3906H13.3907H13.3908H13.3909H13.391H13.3911H13.3912H13.3912H13.3913H13.3914H13.3915H13.3916H13.3917H13.3918H13.3919H13.392H13.3921H13.3922H13.3923H13.3924H13.3925H13.3926H13.3927H13.3928H13.3929H13.393H13.3931H13.3932H13.3933H13.3934H13.3935H13.3936H13.3937H13.3938H13.3939H13.394H13.3941H13.3942H13.3943H13.3944H13.3945H13.3946H13.3947H13.3948H13.3949H13.395H13.3951H13.3952H13.3953H13.3954H13.3955H13.3956H13.3957H13.3959H13.396H13.3961H13.3962H13.3963H13.3964H13.3965H13.3966H13.3967H13.3968H13.3969H13.3971H13.3972H13.3973H13.3974H13.3975H13.3976H13.3977H13.3978H13.398H13.3981H13.3982H13.3983H13.3984H13.3985H13.3986H13.3988H13.3989H13.399H13.3991H13.3992H13.3993H13.3995H13.3996H13.3997H13.3998H13.3999H13.4001H13.4002H13.4003H13.4004H13.4006H13.4007H13.4008H13.4009H13.4011H13.4012H13.4013H13.4014H13.4016H13.4017H13.4018H13.4019H13.4021H13.4022H13.4023H13.4025H13.4026H13.4027H13.4029H13.403H13.4031H13.4032H13.4034H13.4035H13.4036H13.4038H13.4039H13.4041H13.4042H13.4043H13.4045H13.4046H13.4047H13.4049H13.405H13.4052H13.4053H13.4054H13.4056H13.4057H13.4059H13.406H13.4062H13.4063H13.4064H13.4066H13.4067H13.4069H13.407H13.4072H13.4073H13.4075H13.4076H13.4078H13.4079H13.4081H13.4082H13.4084H13.4085H13.4087H13.4088H13.409H13.4092H13.4093H13.4095H13.4096H13.4098H13.4099H13.4101H13.4103H13.4104H13.4106H13.4107H13.4109H13.4111H13.4112H13.4114H13.4116H13.4117H13.4119H13.4121H13.4122H13.4124Z" fill="white" stroke="black" stroke-width="0.170472"/>
<defs>
<clipPath id="clip0_34_826">
<rect x="5.23706" width="25" height="25" rx="12.5" fill="white"/>
</clipPath>
</defs>
</svg>
