<svg width="28" height="25" viewBox="0 0 28 25" fill="none" xmlns="http://www.w3.org/2000/svg">
<g clip-path="url(#clip0_32_533)">
<rect x="0.5" width="25" height="25" rx="12.5" fill="#F7B50A"/>
<circle cx="13" cy="12.5" r="14.4676" fill="#F7B50A" stroke="black" stroke-width="3.93519"/>
<circle cx="10.3379" cy="11.9212" r="13.0787" fill="#FAC63E"/>
</g>
<path d="M26.7427 16.8462L26.7441 16.8465C26.774 16.7269 26.7743 16.5908 26.7743 16.4474C26.7743 15.1311 25.69 14.0468 24.3737 14.0468C23.4452 14.0468 22.6252 14.5566 22.2063 15.3919C22.1938 15.4266 22.1701 15.4489 22.1477 15.4639C22.1315 15.4747 22.1121 15.4838 22.099 15.4899C22.0952 15.4917 22.0919 15.4932 22.0893 15.4945L22.0834 15.4975L22.0832 15.497C22.0178 15.5188 21.9535 15.4972 21.9112 15.4563C21.6997 15.2908 21.4581 15.2152 21.1842 15.2152C20.5153 15.2152 19.9678 15.7627 19.9678 16.4316C19.9678 16.5117 19.968 16.6015 19.9827 16.675L19.9846 16.6842H19.9836V16.6843V16.6844V16.6845V16.6846V16.6847V16.6848V16.6849V16.685V16.685V16.6851V16.6852V16.6853V16.6854V16.6855V16.6856V16.6857V16.6858V16.6859V16.686V16.6861V16.6862V16.6862V16.6863V16.6864V16.6865V16.6866V16.6867V16.6868V16.6869V16.687V16.6871V16.6872V16.6873V16.6874V16.6874V16.6875V16.6876V16.6877V16.6878V16.6879V16.688V16.6881V16.6882V16.6883V16.6884V16.6885V16.6886V16.6887V16.6887V16.6888V16.6889V16.689V16.6891V16.6892V16.6893V16.6894V16.6895V16.6896V16.6897V16.6898V16.6899V16.6899V16.69V16.6901V16.6902V16.6903V16.6904V16.6905V16.6906V16.6907V16.6908V16.6909V16.691V16.6911V16.6911V16.6912V16.6913V16.6914V16.6915V16.6916V16.6917V16.6918V16.6919V16.692V16.6921V16.6922V16.6923V16.6924V16.6924V16.6925V16.6926V16.6927V16.6928V16.6929V16.693V16.6931V16.6932V16.6933V16.6934V16.6935V16.6936V16.6936V16.6937V16.6938V16.6939V16.694V16.6941V16.6942V16.6943V16.6944V16.6945V16.6946V16.6947V16.6948V16.6948V16.6949V16.695V16.6951V16.6952V16.6953V16.6954V16.6955V16.6956V16.6957V16.6958V16.6959V16.696V16.6961V16.6961V16.6962V16.6963V16.6964V16.6965V16.6966V16.6967V16.6968V16.6969V16.697V16.6971V16.6972V16.6973V16.6973V16.6974V16.6975V16.6976V16.6977V16.6978V16.6979V16.698V16.6981V16.6982V16.6983V16.6984V16.6985V16.6986V16.6986V16.6987V16.6988V16.6989V16.699V16.6991V16.6992V16.6993V16.6994V16.6995V16.6996V16.6997V16.6998V16.6998V16.6999V16.7V16.7001V16.7002V16.7003V16.7004V16.7005V16.7006V16.7007V16.7008V16.7009V16.701V16.701V16.7011V16.7012V16.7013V16.7014V16.7015V16.7016V16.7017V16.7018V16.7019V16.702V16.7021V16.7022V16.7023V16.7023V16.7024V16.7025V16.7026V16.7027V16.7028V16.7029V16.703V16.7031V16.7032V16.7033V16.7034V16.7035V16.7035V16.7036V16.7037V16.7038V16.7039V16.704V16.7041V16.7042V16.7043V16.7044V16.7045V16.7046V16.7047V16.7047V16.7048V16.7049V16.705V16.7051V16.7052V16.7053V16.7054V16.7055V16.7056V16.7057V16.7058V16.7059V16.706V16.706V16.7061V16.7062V16.7063V16.7064V16.7065V16.7066V16.7067V16.7068V16.7069V16.707V16.7071V16.7072V16.7072V16.7073V16.7074V16.7075V16.7076V16.7077V16.7078V16.7079V16.708V16.7081V16.7082V16.7083V16.7084V16.7084V16.7085V16.7086V16.7087V16.7088V16.7089V16.709V16.7091V16.7092V16.7093V16.7094V16.7095V16.7096V16.7097V16.7097V16.7098V16.7099V16.71V16.7101V16.7102V16.7103V16.7104V16.7105V16.7106V16.7107V16.7108V16.7109V16.7109V16.711V16.7111V16.7112V16.7113V16.7114V16.7115V16.7116V16.7117V16.7118V16.7119V16.712V16.7121V16.7122V16.7122V16.7123V16.7124V16.7125V16.7126V16.7127V16.7128V16.7129V16.713V16.7131V16.7132V16.7133V16.7134V16.7134V16.7135V16.7136V16.7137V16.7138V16.7139V16.714V16.7141V16.7142V16.7143V16.7144V16.7145V16.7146V16.7146V16.7147V16.7148V16.7149V16.715V16.7151V16.7152V16.7153V16.7154V16.7155V16.7156V16.7157V16.7158V16.7159V16.7159V16.716V16.7161V16.7162V16.7163V16.7164V16.7165V16.7166V16.7167V16.7168V16.7169V16.717V16.7171V16.7171V16.7172V16.7173V16.7174V16.7175V16.7176V16.7177V16.7178V16.7179V16.718V16.7181V16.7182V16.7183V16.7183V16.7184V16.7185V16.7186V16.7187V16.7188V16.7189V16.719V16.7191V16.7192V16.7193V16.7194V16.7195V16.7196V16.7196V16.7197V16.7198V16.7199V16.72V16.7201V16.7202V16.7203V16.7204V16.7205V16.7206V16.7207V16.7208V16.7208V16.7209V16.721V16.7211V16.7212V16.7213V16.7214V16.7215V16.7216V16.7217V16.7218V16.7219V16.722V16.722V16.7221V16.7222V16.7223V16.7224V16.7225V16.7226V16.7227V16.7228V16.7229V16.723V16.7231V16.7232V16.7233V16.7233V16.7234V16.7235V16.7236V16.7237V16.7238V16.7239V16.724V16.7241V16.7242V16.7243V16.7244V16.7245V16.7245V16.7246V16.7247V16.7248V16.7249V16.725V16.7251V16.7252V16.7253V16.7254V16.7255V16.7256V16.7257V16.7258V16.7258V16.7259V16.726V16.7261V16.7262V16.7263V16.7264V16.7265V16.7266V16.7267V16.7268V16.7269V16.727V16.727V16.7271V16.7272V16.7273V16.7274V16.7275V16.7276V16.7277V16.7278V16.7279V16.728V16.7281V16.7282V16.7282V16.7283V16.7284V16.7285V16.7286V16.7287V16.7288V16.7289V16.729V16.7291V16.7292V16.7293V16.7294V16.7295V16.7295V16.7296V16.7297V16.7298V16.7299V16.73V16.7301V16.7302V16.7303V16.7304V16.7305V16.7306V16.7307V16.7307V16.7308V16.7309V16.731V16.7311V16.7312V16.7313V16.7314V16.7315V16.7316C19.9836 16.8333 19.9025 16.9363 19.7789 16.9363H19.7632C19.0943 16.9363 18.5468 17.4837 18.5468 18.1526C18.5468 18.8215 19.0943 19.369 19.7632 19.369C19.7855 19.369 19.8104 19.3743 19.8312 19.3813C19.8499 19.3875 19.8734 19.3977 19.8893 19.4127C20.1523 19.6367 20.3981 19.744 20.6395 19.744C20.8811 19.744 21.1273 19.6364 21.3907 19.4118L21.3995 19.4043L21.4001 19.4055C21.4014 19.4049 21.4026 19.4043 21.4039 19.4036C21.4326 19.3892 21.4729 19.369 21.5158 19.369H21.5316C21.5607 19.369 21.5871 19.3739 21.6118 19.3849C21.6362 19.3958 21.6566 19.4115 21.6752 19.4301L21.6785 19.4334L21.6783 19.4335C21.9531 19.7694 22.3659 19.9532 22.7947 19.9532C23.1909 19.9532 23.5892 19.7702 23.8811 19.4476L23.8827 19.4458L23.8827 19.4459C23.9236 19.4049 23.9832 19.3848 24.0263 19.3848C24.0779 19.3848 24.1495 19.4016 24.1778 19.4708C24.405 19.7394 24.752 19.8901 25.1316 19.8901C25.496 19.8901 25.8299 19.7388 26.0736 19.4659C26.1182 19.402 26.2014 19.3821 26.2651 19.4022C26.3663 19.4255 26.4633 19.4449 26.5427 19.4585C26.624 19.4724 26.6835 19.4795 26.7105 19.4795C27.3794 19.4795 27.9269 18.9321 27.9269 18.2632V18.262L27.9269 18.262C27.9421 17.671 27.5031 17.1554 26.9125 17.0783C26.9116 17.0782 26.9107 17.0781 26.9098 17.078L26.9158 17.0316C26.8684 17.0316 26.8368 17 26.8211 16.9684L26.7427 16.8462ZM26.7427 16.8462V16.8579C26.7427 16.859 26.7427 16.8601 26.7427 16.8614C26.7426 16.8898 26.7424 16.9507 26.7826 16.9959L26.7427 16.8462ZM25.7316 16.352V16.353L25.7408 16.3511C25.792 16.3409 25.8382 16.3103 25.8668 16.2686C25.8952 16.2274 25.9072 16.1737 25.8875 16.1194C25.7725 15.4234 25.3367 15.0856 24.9298 14.9236C24.7266 14.8428 24.5304 14.8055 24.3843 14.7884C24.3112 14.7798 24.2503 14.7763 24.2071 14.7749C24.1855 14.7742 24.1683 14.7741 24.1561 14.7741L24.1418 14.7742L24.1378 14.7742C24.1368 14.7743 24.1366 14.7743 24.1367 14.7743L24.1368 14.7743C24.0811 14.7743 24.0334 14.8021 24.0008 14.8398C23.9683 14.8773 23.948 14.9274 23.948 14.9789C23.948 15.0347 23.9758 15.0823 24.0134 15.115C24.0509 15.1475 24.1011 15.1678 24.1526 15.1678C24.1539 15.1678 24.1558 15.1678 24.1584 15.1678C24.2066 15.167 24.4842 15.1627 24.7768 15.279C25.0829 15.4007 25.4046 15.6537 25.496 16.1869L25.496 16.1869L25.4962 16.1881C25.5167 16.2906 25.6004 16.352 25.7 16.352H25.7001H25.7002H25.7003H25.7004H25.7005H25.7005H25.7006H25.7007H25.7008H25.7009H25.701H25.7011H25.7012H25.7013H25.7013H25.7014H25.7015H25.7016H25.7017H25.7018H25.7019H25.7019H25.702H25.7021H25.7022H25.7023H25.7024H25.7025H25.7025H25.7026H25.7027H25.7028H25.7029H25.7029H25.703H25.7031H25.7032H25.7033H25.7033H25.7034H25.7035H25.7036H25.7037H25.7037H25.7038H25.7039H25.704H25.704H25.7041H25.7042H25.7043H25.7044H25.7044H25.7045H25.7046H25.7047H25.7047H25.7048H25.7049H25.705H25.705H25.7051H25.7052H25.7052H25.7053H25.7054H25.7055H25.7055H25.7056H25.7057H25.7057H25.7058H25.7059H25.706H25.706H25.7061H25.7062H25.7062H25.7063H25.7064H25.7064H25.7065H25.7066H25.7066H25.7067H25.7068H25.7068H25.7069H25.707H25.707H25.7071H25.7072H25.7072H25.7073H25.7074H25.7074H25.7075H25.7076H25.7076H25.7077H25.7077H25.7078H25.7079H25.7079H25.708H25.7081H25.7081H25.7082H25.7082H25.7083H25.7084H25.7084H25.7085H25.7085H25.7086H25.7087H25.7087H25.7088H25.7088H25.7089H25.709H25.709H25.7091H25.7091H25.7092H25.7093H25.7093H25.7094H25.7094H25.7095H25.7095H25.7096H25.7097H25.7097H25.7098H25.7098H25.7099H25.7099H25.71H25.7101H25.7101H25.7102H25.7102H25.7103H25.7103H25.7104H25.7104H25.7105H25.7106H25.7106H25.7107H25.7107H25.7108H25.7108H25.7109H25.7109H25.711H25.711H25.7111H25.7111H25.7112H25.7112H25.7113H25.7113H25.7114H25.7115H25.7115H25.7116H25.7116H25.7117H25.7117H25.7118H25.7118H25.7119H25.7119H25.712H25.712H25.7121H25.7121H25.7122H25.7122H25.7123H25.7123H25.7124H25.7124H25.7125H25.7125H25.7126H25.7126H25.7127H25.7127H25.7128H25.7128H25.7129H25.7129H25.713H25.713H25.7131H25.7131H25.7132H25.7132H25.7133H25.7133H25.7133H25.7134H25.7134H25.7135H25.7135H25.7136H25.7136H25.7137H25.7137H25.7138H25.7138H25.7139H25.7139H25.714H25.714H25.7141H25.7141H25.7142H25.7142H25.7143H25.7143H25.7143H25.7144H25.7144H25.7145H25.7145H25.7146H25.7146H25.7147H25.7147H25.7148H25.7148H25.7149H25.7149H25.715H25.715H25.715H25.7151H25.7151H25.7152H25.7152H25.7153H25.7153H25.7154H25.7154H25.7155H25.7155H25.7156H25.7156H25.7156H25.7157H25.7157H25.7158H25.7158H25.7159H25.7159H25.716H25.716H25.7161H25.7161H25.7162H25.7162H25.7163H25.7163H25.7163H25.7164H25.7164H25.7165H25.7165H25.7166H25.7166H25.7167H25.7167H25.7168H25.7168H25.7169H25.7169H25.7169H25.717H25.717H25.7171H25.7171H25.7172H25.7172H25.7173H25.7173H25.7174H25.7174H25.7175H25.7175H25.7176H25.7176H25.7177H25.7177H25.7177H25.7178H25.7178H25.7179H25.7179H25.718H25.718H25.7181H25.7181H25.7182H25.7182H25.7183H25.7183H25.7184H25.7184H25.7185H25.7185H25.7186H25.7186H25.7187H25.7187H25.7188H25.7188H25.7189H25.7189H25.719H25.719H25.7191H25.7191H25.7192H25.7192H25.7193H25.7193H25.7194H25.7194H25.7195H25.7195H25.7196H25.7196H25.7197H25.7197H25.7198H25.7198H25.7199H25.7199H25.72H25.72H25.7201H25.7201H25.7202H25.7202H25.7203H25.7203H25.7204H25.7204H25.7205H25.7205H25.7206H25.7206H25.7207H25.7208H25.7208H25.7209H25.7209H25.721H25.721H25.7211H25.7211H25.7212H25.7212H25.7213H25.7214H25.7214H25.7215H25.7215H25.7216H25.7216H25.7217H25.7217H25.7218H25.7219H25.7219H25.722H25.722H25.7221H25.7221H25.7222H25.7223H25.7223H25.7224H25.7224H25.7225H25.7226H25.7226H25.7227H25.7227H25.7228H25.7229H25.7229H25.723H25.723H25.7231H25.7232H25.7232H25.7233H25.7233H25.7234H25.7235H25.7235H25.7236H25.7236H25.7237H25.7238H25.7238H25.7239H25.724H25.724H25.7241H25.7242H25.7242H25.7243H25.7243H25.7244H25.7245H25.7245H25.7246H25.7247H25.7247H25.7248H25.7249H25.7249H25.725H25.7251H25.7251H25.7252H25.7253H25.7253H25.7254H25.7255H25.7256H25.7256H25.7257H25.7258H25.7258H25.7259H25.726H25.726H25.7261H25.7262H25.7263H25.7263H25.7264H25.7265H25.7266H25.7266H25.7267H25.7268H25.7268H25.7269H25.727H25.7271H25.7271H25.7272H25.7273H25.7274H25.7275H25.7275H25.7276H25.7277H25.7278H25.7278H25.7279H25.728H25.7281H25.7282H25.7282H25.7283H25.7284H25.7285H25.7286H25.7286H25.7287H25.7288H25.7289H25.729H25.729H25.7291H25.7292H25.7293H25.7294H25.7295H25.7295H25.7296H25.7297H25.7298H25.7299H25.73H25.7301H25.7301H25.7302H25.7303H25.7304H25.7305H25.7306H25.7307H25.7308H25.7308H25.7309H25.731H25.7311H25.7312H25.7313H25.7314H25.7315H25.7316Z" fill="white" stroke="black" stroke-width="0.0935673"/>
<path d="M23.7427 19.8462L23.7441 19.8465C23.774 19.7269 23.7743 19.5908 23.7743 19.4474C23.7743 18.1311 22.69 17.0468 21.3737 17.0468C20.4452 17.0468 19.6252 17.5566 19.2063 18.3919C19.1938 18.4266 19.1701 18.4489 19.1477 18.4639C19.1315 18.4747 19.1121 18.4838 19.099 18.4899C19.0952 18.4917 19.0919 18.4932 19.0893 18.4945L19.0834 18.4975L19.0832 18.497C19.0178 18.5188 18.9535 18.4972 18.9112 18.4563C18.6997 18.2908 18.4581 18.2152 18.1842 18.2152C17.5153 18.2152 16.9678 18.7627 16.9678 19.4316C16.9678 19.5117 16.968 19.6015 16.9827 19.675L16.9846 19.6842H16.9836V19.6843V19.6844V19.6845V19.6846V19.6847V19.6848V19.6849V19.685V19.685V19.6851V19.6852V19.6853V19.6854V19.6855V19.6856V19.6857V19.6858V19.6859V19.686V19.6861V19.6862V19.6862V19.6863V19.6864V19.6865V19.6866V19.6867V19.6868V19.6869V19.687V19.6871V19.6872V19.6873V19.6874V19.6874V19.6875V19.6876V19.6877V19.6878V19.6879V19.688V19.6881V19.6882V19.6883V19.6884V19.6885V19.6886V19.6887V19.6887V19.6888V19.6889V19.689V19.6891V19.6892V19.6893V19.6894V19.6895V19.6896V19.6897V19.6898V19.6899V19.6899V19.69V19.6901V19.6902V19.6903V19.6904V19.6905V19.6906V19.6907V19.6908V19.6909V19.691V19.6911V19.6911V19.6912V19.6913V19.6914V19.6915V19.6916V19.6917V19.6918V19.6919V19.692V19.6921V19.6922V19.6923V19.6924V19.6924V19.6925V19.6926V19.6927V19.6928V19.6929V19.693V19.6931V19.6932V19.6933V19.6934V19.6935V19.6936V19.6936V19.6937V19.6938V19.6939V19.694V19.6941V19.6942V19.6943V19.6944V19.6945V19.6946V19.6947V19.6948V19.6948V19.6949V19.695V19.6951V19.6952V19.6953V19.6954V19.6955V19.6956V19.6957V19.6958V19.6959V19.696V19.6961V19.6961V19.6962V19.6963V19.6964V19.6965V19.6966V19.6967V19.6968V19.6969V19.697V19.6971V19.6972V19.6973V19.6973V19.6974V19.6975V19.6976V19.6977V19.6978V19.6979V19.698V19.6981V19.6982V19.6983V19.6984V19.6985V19.6986V19.6986V19.6987V19.6988V19.6989V19.699V19.6991V19.6992V19.6993V19.6994V19.6995V19.6996V19.6997V19.6998V19.6998V19.6999V19.7V19.7001V19.7002V19.7003V19.7004V19.7005V19.7006V19.7007V19.7008V19.7009V19.701V19.701V19.7011V19.7012V19.7013V19.7014V19.7015V19.7016V19.7017V19.7018V19.7019V19.702V19.7021V19.7022V19.7023V19.7023V19.7024V19.7025V19.7026V19.7027V19.7028V19.7029V19.703V19.7031V19.7032V19.7033V19.7034V19.7035V19.7035V19.7036V19.7037V19.7038V19.7039V19.704V19.7041V19.7042V19.7043V19.7044V19.7045V19.7046V19.7047V19.7047V19.7048V19.7049V19.705V19.7051V19.7052V19.7053V19.7054V19.7055V19.7056V19.7057V19.7058V19.7059V19.706V19.706V19.7061V19.7062V19.7063V19.7064V19.7065V19.7066V19.7067V19.7068V19.7069V19.707V19.7071V19.7072V19.7072V19.7073V19.7074V19.7075V19.7076V19.7077V19.7078V19.7079V19.708V19.7081V19.7082V19.7083V19.7084V19.7084V19.7085V19.7086V19.7087V19.7088V19.7089V19.709V19.7091V19.7092V19.7093V19.7094V19.7095V19.7096V19.7097V19.7097V19.7098V19.7099V19.71V19.7101V19.7102V19.7103V19.7104V19.7105V19.7106V19.7107V19.7108V19.7109V19.7109V19.711V19.7111V19.7112V19.7113V19.7114V19.7115V19.7116V19.7117V19.7118V19.7119V19.712V19.7121V19.7122V19.7122V19.7123V19.7124V19.7125V19.7126V19.7127V19.7128V19.7129V19.713V19.7131V19.7132V19.7133V19.7134V19.7134V19.7135V19.7136V19.7137V19.7138V19.7139V19.714V19.7141V19.7142V19.7143V19.7144V19.7145V19.7146V19.7146V19.7147V19.7148V19.7149V19.715V19.7151V19.7152V19.7153V19.7154V19.7155V19.7156V19.7157V19.7158V19.7159V19.7159V19.716V19.7161V19.7162V19.7163V19.7164V19.7165V19.7166V19.7167V19.7168V19.7169V19.717V19.7171V19.7171V19.7172V19.7173V19.7174V19.7175V19.7176V19.7177V19.7178V19.7179V19.718V19.7181V19.7182V19.7183V19.7183V19.7184V19.7185V19.7186V19.7187V19.7188V19.7189V19.719V19.7191V19.7192V19.7193V19.7194V19.7195V19.7196V19.7196V19.7197V19.7198V19.7199V19.72V19.7201V19.7202V19.7203V19.7204V19.7205V19.7206V19.7207V19.7208V19.7208V19.7209V19.721V19.7211V19.7212V19.7213V19.7214V19.7215V19.7216V19.7217V19.7218V19.7219V19.722V19.722V19.7221V19.7222V19.7223V19.7224V19.7225V19.7226V19.7227V19.7228V19.7229V19.723V19.7231V19.7232V19.7233V19.7233V19.7234V19.7235V19.7236V19.7237V19.7238V19.7239V19.724V19.7241V19.7242V19.7243V19.7244V19.7245V19.7245V19.7246V19.7247V19.7248V19.7249V19.725V19.7251V19.7252V19.7253V19.7254V19.7255V19.7256V19.7257V19.7258V19.7258V19.7259V19.726V19.7261V19.7262V19.7263V19.7264V19.7265V19.7266V19.7267V19.7268V19.7269V19.727V19.727V19.7271V19.7272V19.7273V19.7274V19.7275V19.7276V19.7277V19.7278V19.7279V19.728V19.7281V19.7282V19.7282V19.7283V19.7284V19.7285V19.7286V19.7287V19.7288V19.7289V19.729V19.7291V19.7292V19.7293V19.7294V19.7295V19.7295V19.7296V19.7297V19.7298V19.7299V19.73V19.7301V19.7302V19.7303V19.7304V19.7305V19.7306V19.7307V19.7307V19.7308V19.7309V19.731V19.7311V19.7312V19.7313V19.7314V19.7315V19.7316C16.9836 19.8333 16.9025 19.9363 16.7789 19.9363H16.7632C16.0943 19.9363 15.5468 20.4837 15.5468 21.1526C15.5468 21.8215 16.0943 22.369 16.7632 22.369C16.7855 22.369 16.8104 22.3743 16.8312 22.3813C16.8499 22.3875 16.8734 22.3977 16.8893 22.4127C17.1523 22.6367 17.3981 22.744 17.6395 22.744C17.8811 22.744 18.1273 22.6364 18.3907 22.4118L18.3995 22.4043L18.4001 22.4055C18.4014 22.4049 18.4026 22.4043 18.4039 22.4036C18.4326 22.3892 18.4729 22.369 18.5158 22.369H18.5316C18.5607 22.369 18.5871 22.3739 18.6118 22.3849C18.6362 22.3958 18.6566 22.4115 18.6752 22.4301L18.6785 22.4334L18.6783 22.4335C18.9531 22.7694 19.3659 22.9532 19.7947 22.9532C20.1909 22.9532 20.5892 22.7702 20.8811 22.4476L20.8827 22.4458L20.8827 22.4459C20.9236 22.4049 20.9832 22.3848 21.0263 22.3848C21.0779 22.3848 21.1495 22.4016 21.1778 22.4708C21.405 22.7394 21.752 22.8901 22.1316 22.8901C22.496 22.8901 22.8299 22.7388 23.0736 22.4659C23.1182 22.402 23.2014 22.3821 23.2651 22.4022C23.3663 22.4255 23.4633 22.4449 23.5427 22.4585C23.624 22.4724 23.6835 22.4795 23.7105 22.4795C24.3794 22.4795 24.9269 21.9321 24.9269 21.2632V21.262L24.9269 21.262C24.9421 20.671 24.5031 20.1554 23.9125 20.0783C23.9116 20.0782 23.9107 20.0781 23.9098 20.078L23.9158 20.0316C23.8684 20.0316 23.8368 20 23.8211 19.9684L23.7427 19.8462ZM23.7427 19.8462V19.8579C23.7427 19.859 23.7427 19.8601 23.7427 19.8614C23.7426 19.8898 23.7424 19.9507 23.7826 19.9959L23.7427 19.8462ZM22.7316 19.352V19.353L22.7408 19.3511C22.792 19.3409 22.8382 19.3103 22.8668 19.2686C22.8952 19.2274 22.9072 19.1737 22.8875 19.1194C22.7725 18.4234 22.3367 18.0856 21.9298 17.9236C21.7266 17.8428 21.5304 17.8055 21.3843 17.7884C21.3112 17.7798 21.2503 17.7763 21.2071 17.7749C21.1855 17.7742 21.1683 17.7741 21.1561 17.7741L21.1418 17.7742L21.1378 17.7742C21.1368 17.7743 21.1366 17.7743 21.1367 17.7743L21.1368 17.7743C21.0811 17.7743 21.0334 17.8021 21.0008 17.8398C20.9683 17.8773 20.948 17.9274 20.948 17.9789C20.948 18.0347 20.9758 18.0823 21.0134 18.115C21.0509 18.1475 21.1011 18.1678 21.1526 18.1678C21.1539 18.1678 21.1558 18.1678 21.1584 18.1678C21.2066 18.167 21.4842 18.1627 21.7768 18.279C22.0829 18.4007 22.4046 18.6537 22.496 19.1869L22.496 19.1869L22.4962 19.1881C22.5167 19.2906 22.6004 19.352 22.7 19.352H22.7001H22.7002H22.7003H22.7004H22.7005H22.7005H22.7006H22.7007H22.7008H22.7009H22.701H22.7011H22.7012H22.7013H22.7013H22.7014H22.7015H22.7016H22.7017H22.7018H22.7019H22.7019H22.702H22.7021H22.7022H22.7023H22.7024H22.7025H22.7025H22.7026H22.7027H22.7028H22.7029H22.7029H22.703H22.7031H22.7032H22.7033H22.7033H22.7034H22.7035H22.7036H22.7037H22.7037H22.7038H22.7039H22.704H22.704H22.7041H22.7042H22.7043H22.7044H22.7044H22.7045H22.7046H22.7047H22.7047H22.7048H22.7049H22.705H22.705H22.7051H22.7052H22.7052H22.7053H22.7054H22.7055H22.7055H22.7056H22.7057H22.7057H22.7058H22.7059H22.706H22.706H22.7061H22.7062H22.7062H22.7063H22.7064H22.7064H22.7065H22.7066H22.7066H22.7067H22.7068H22.7068H22.7069H22.707H22.707H22.7071H22.7072H22.7072H22.7073H22.7074H22.7074H22.7075H22.7076H22.7076H22.7077H22.7077H22.7078H22.7079H22.7079H22.708H22.7081H22.7081H22.7082H22.7082H22.7083H22.7084H22.7084H22.7085H22.7085H22.7086H22.7087H22.7087H22.7088H22.7088H22.7089H22.709H22.709H22.7091H22.7091H22.7092H22.7093H22.7093H22.7094H22.7094H22.7095H22.7095H22.7096H22.7097H22.7097H22.7098H22.7098H22.7099H22.7099H22.71H22.7101H22.7101H22.7102H22.7102H22.7103H22.7103H22.7104H22.7104H22.7105H22.7106H22.7106H22.7107H22.7107H22.7108H22.7108H22.7109H22.7109H22.711H22.711H22.7111H22.7111H22.7112H22.7112H22.7113H22.7113H22.7114H22.7115H22.7115H22.7116H22.7116H22.7117H22.7117H22.7118H22.7118H22.7119H22.7119H22.712H22.712H22.7121H22.7121H22.7122H22.7122H22.7123H22.7123H22.7124H22.7124H22.7125H22.7125H22.7126H22.7126H22.7127H22.7127H22.7128H22.7128H22.7129H22.7129H22.713H22.713H22.7131H22.7131H22.7132H22.7132H22.7133H22.7133H22.7133H22.7134H22.7134H22.7135H22.7135H22.7136H22.7136H22.7137H22.7137H22.7138H22.7138H22.7139H22.7139H22.714H22.714H22.7141H22.7141H22.7142H22.7142H22.7143H22.7143H22.7143H22.7144H22.7144H22.7145H22.7145H22.7146H22.7146H22.7147H22.7147H22.7148H22.7148H22.7149H22.7149H22.715H22.715H22.715H22.7151H22.7151H22.7152H22.7152H22.7153H22.7153H22.7154H22.7154H22.7155H22.7155H22.7156H22.7156H22.7156H22.7157H22.7157H22.7158H22.7158H22.7159H22.7159H22.716H22.716H22.7161H22.7161H22.7162H22.7162H22.7163H22.7163H22.7163H22.7164H22.7164H22.7165H22.7165H22.7166H22.7166H22.7167H22.7167H22.7168H22.7168H22.7169H22.7169H22.7169H22.717H22.717H22.7171H22.7171H22.7172H22.7172H22.7173H22.7173H22.7174H22.7174H22.7175H22.7175H22.7176H22.7176H22.7177H22.7177H22.7177H22.7178H22.7178H22.7179H22.7179H22.718H22.718H22.7181H22.7181H22.7182H22.7182H22.7183H22.7183H22.7184H22.7184H22.7185H22.7185H22.7186H22.7186H22.7187H22.7187H22.7188H22.7188H22.7189H22.7189H22.719H22.719H22.7191H22.7191H22.7192H22.7192H22.7193H22.7193H22.7194H22.7194H22.7195H22.7195H22.7196H22.7196H22.7197H22.7197H22.7198H22.7198H22.7199H22.7199H22.72H22.72H22.7201H22.7201H22.7202H22.7202H22.7203H22.7203H22.7204H22.7204H22.7205H22.7205H22.7206H22.7206H22.7207H22.7208H22.7208H22.7209H22.7209H22.721H22.721H22.7211H22.7211H22.7212H22.7212H22.7213H22.7214H22.7214H22.7215H22.7215H22.7216H22.7216H22.7217H22.7217H22.7218H22.7219H22.7219H22.722H22.722H22.7221H22.7221H22.7222H22.7223H22.7223H22.7224H22.7224H22.7225H22.7226H22.7226H22.7227H22.7227H22.7228H22.7229H22.7229H22.723H22.723H22.7231H22.7232H22.7232H22.7233H22.7233H22.7234H22.7235H22.7235H22.7236H22.7236H22.7237H22.7238H22.7238H22.7239H22.724H22.724H22.7241H22.7242H22.7242H22.7243H22.7243H22.7244H22.7245H22.7245H22.7246H22.7247H22.7247H22.7248H22.7249H22.7249H22.725H22.7251H22.7251H22.7252H22.7253H22.7253H22.7254H22.7255H22.7256H22.7256H22.7257H22.7258H22.7258H22.7259H22.726H22.726H22.7261H22.7262H22.7263H22.7263H22.7264H22.7265H22.7266H22.7266H22.7267H22.7268H22.7268H22.7269H22.727H22.7271H22.7271H22.7272H22.7273H22.7274H22.7275H22.7275H22.7276H22.7277H22.7278H22.7278H22.7279H22.728H22.7281H22.7282H22.7282H22.7283H22.7284H22.7285H22.7286H22.7286H22.7287H22.7288H22.7289H22.729H22.729H22.7291H22.7292H22.7293H22.7294H22.7295H22.7295H22.7296H22.7297H22.7298H22.7299H22.73H22.7301H22.7301H22.7302H22.7303H22.7304H22.7305H22.7306H22.7307H22.7308H22.7308H22.7309H22.731H22.7311H22.7312H22.7313H22.7314H22.7315H22.7316Z" fill="white" stroke="black" stroke-width="0.0935673"/>
<defs>
<clipPath id="clip0_32_533">
<rect x="0.5" width="25" height="25" rx="12.5" fill="white"/>
</clipPath>
</defs>
</svg>
