<svg width="31" height="26" viewBox="0 0 31 26" fill="none" xmlns="http://www.w3.org/2000/svg">
<mask id="path-1-outside-1_34_827" maskUnits="userSpaceOnUse" x="6.67908" y="-0.545654" width="21" height="25" fill="black">
<rect fill="white" x="6.67908" y="-0.545654" width="21" height="25"/>
<path fill-rule="evenodd" clip-rule="evenodd" d="M8.03136 20.5054C14.6643 20.5054 20.0414 15.1283 20.0414 8.49533C20.0414 5.40277 18.8725 2.58321 16.9525 0.454346C22.4404 1.31506 26.6384 6.06419 26.6384 11.7938C26.6384 18.1333 21.4992 23.2725 15.1597 23.2725C12.302 23.2725 9.68818 22.2281 7.67908 20.5003C7.79609 20.5037 7.91353 20.5054 8.03136 20.5054Z"/>
</mask>
<path fill-rule="evenodd" clip-rule="evenodd" d="M8.03136 20.5054C14.6643 20.5054 20.0414 15.1283 20.0414 8.49533C20.0414 5.40277 18.8725 2.58321 16.9525 0.454346C22.4404 1.31506 26.6384 6.06419 26.6384 11.7938C26.6384 18.1333 21.4992 23.2725 15.1597 23.2725C12.302 23.2725 9.68818 22.2281 7.67908 20.5003C7.79609 20.5037 7.91353 20.5054 8.03136 20.5054Z" fill="#DDDDDD"/>
<path d="M16.9525 0.454346L16.9835 0.256761L16.4261 0.169346L16.804 0.588296L16.9525 0.454346ZM7.67908 20.5003L7.68484 20.3004L7.121 20.2842L7.54867 20.652L7.67908 20.5003ZM19.8414 8.49533C19.8414 15.0178 14.5539 20.3054 8.03136 20.3054V20.7054C14.7748 20.7054 20.2414 15.2388 20.2414 8.49533H19.8414ZM16.804 0.588296C18.6922 2.68185 19.8414 5.45414 19.8414 8.49533H20.2414C20.2414 5.35139 19.0529 2.48457 17.101 0.320395L16.804 0.588296ZM16.9215 0.65193C22.3137 1.49762 26.4384 6.16421 26.4384 11.7938H26.8384C26.8384 5.96417 22.5672 1.13249 16.9835 0.256761L16.9215 0.65193ZM26.4384 11.7938C26.4384 18.0228 21.3888 23.0725 15.1597 23.0725V23.4725C21.6097 23.4725 26.8384 18.2437 26.8384 11.7938H26.4384ZM15.1597 23.0725C12.3516 23.0725 9.78368 22.0465 7.80948 20.3487L7.54867 20.652C9.59268 22.4098 12.2524 23.4725 15.1597 23.4725V23.0725ZM8.03136 20.3054C7.91545 20.3054 7.79993 20.3037 7.68484 20.3004L7.67332 20.7002C7.79225 20.7037 7.91161 20.7054 8.03136 20.7054V20.3054Z" fill="black" mask="url(#path-1-outside-1_34_827)"/>
<path d="M19.6894 13.709L19.6868 13.7192V13.7297C19.6868 13.7317 19.6868 13.7338 19.6868 13.736C19.6867 13.7879 19.6863 13.8988 19.7596 13.981C19.7988 14.0518 19.8767 14.1288 19.9962 14.1313C21.0723 14.2718 21.872 15.2111 21.8444 16.2878L21.8443 16.2878V16.29C21.8443 17.5086 20.8469 18.5061 19.6282 18.5061C19.5789 18.5061 19.4706 18.493 19.3225 18.4677C19.1778 18.443 19.001 18.4077 18.8167 18.3653C18.7006 18.3286 18.5491 18.3648 18.4678 18.4812C18.0238 18.9785 17.4154 19.254 16.7515 19.254C16.06 19.254 15.4277 18.9796 15.0139 18.4902C14.9622 18.3641 14.8318 18.3335 14.7378 18.3335C14.6592 18.3335 14.5507 18.3702 14.4762 18.4447L14.4761 18.4447L14.4732 18.4478C13.9414 19.0357 13.2158 19.3691 12.494 19.3691C11.7126 19.3691 10.9607 19.0343 10.4599 18.4223L10.4603 18.422L10.4542 18.416C10.4204 18.3822 10.3833 18.3534 10.3387 18.3336C10.2938 18.3137 10.2457 18.3047 10.1926 18.3047H10.1638C10.0858 18.3047 10.0123 18.3416 9.96001 18.3678C9.95767 18.369 9.95537 18.3701 9.95311 18.3712L9.94382 18.3759L9.93592 18.3826C9.45608 18.7919 9.00754 18.9879 8.56726 18.9879C8.12758 18.9879 7.67967 18.7924 7.20058 18.3843C7.17155 18.3569 7.12866 18.3384 7.09472 18.3271C7.05675 18.3144 7.01137 18.3047 6.97068 18.3047C5.752 18.3047 4.75455 17.3073 4.75455 16.0886C4.75455 14.8699 5.752 13.8724 6.97068 13.8724H6.99945C7.22457 13.8724 7.37236 13.6848 7.37236 13.4995V13.4994V13.4992V13.499V13.4989V13.4987V13.4985V13.4984V13.4982V13.498V13.4979V13.4977V13.4975V13.4973V13.4972V13.497V13.4968V13.4967V13.4965V13.4963V13.4962V13.496V13.4958V13.4957V13.4955V13.4953V13.4952V13.495V13.4948V13.4947V13.4945V13.4943V13.4941V13.494V13.4938V13.4936V13.4935V13.4933V13.4931V13.493V13.4928V13.4926V13.4925V13.4923V13.4921V13.492V13.4918V13.4916V13.4914V13.4913V13.4911V13.4909V13.4908V13.4906V13.4904V13.4903V13.4901V13.4899V13.4898V13.4896V13.4894V13.4893V13.4891V13.4889V13.4888V13.4886V13.4884V13.4882V13.4881V13.4879V13.4877V13.4876V13.4874V13.4872V13.4871V13.4869V13.4867V13.4866V13.4864V13.4862V13.4861V13.4859V13.4857V13.4855V13.4854V13.4852V13.485V13.4849V13.4847V13.4845V13.4844V13.4842V13.484V13.4839V13.4837V13.4835V13.4834V13.4832V13.483V13.4829V13.4827V13.4825V13.4823V13.4822V13.482V13.4818V13.4817V13.4815V13.4813V13.4812V13.481V13.4808V13.4807V13.4805V13.4803V13.4802V13.48V13.4798V13.4796V13.4795V13.4793V13.4791V13.479V13.4788V13.4786V13.4785V13.4783V13.4781V13.478V13.4778V13.4776V13.4775V13.4773V13.4771V13.477V13.4768V13.4766V13.4764V13.4763V13.4761V13.4759V13.4758V13.4756V13.4754V13.4753V13.4751V13.4749V13.4748V13.4746V13.4744V13.4743V13.4741V13.4739V13.4738V13.4736V13.4734V13.4732V13.4731V13.4729V13.4727V13.4726V13.4724V13.4722V13.4721V13.4719V13.4717V13.4716V13.4714V13.4712V13.4711V13.4709V13.4707V13.4705V13.4704V13.4702V13.47V13.4699V13.4697V13.4695V13.4694V13.4692V13.469V13.4689V13.4687V13.4685V13.4684V13.4682V13.468V13.4679V13.4677V13.4675V13.4673V13.4672V13.467V13.4668V13.4667V13.4665V13.4663V13.4662V13.466V13.4658V13.4657V13.4655V13.4653V13.4652V13.465V13.4648V13.4646V13.4645V13.4643V13.4641V13.464V13.4638V13.4636V13.4635V13.4633V13.4631V13.463V13.4628V13.4626V13.4625V13.4623V13.4621V13.462V13.4618V13.4616V13.4614V13.4613V13.4611V13.4609V13.4608V13.4606V13.4604V13.4603V13.4601V13.4599V13.4598V13.4596V13.4594V13.4593V13.4591V13.4589V13.4587V13.4586V13.4584V13.4582V13.4581V13.4579V13.4577V13.4576V13.4574V13.4572V13.4571V13.4569V13.4567V13.4566V13.4564V13.4562V13.4561V13.4559V13.4557V13.4555V13.4554V13.4552V13.455V13.4549V13.4547V13.4545V13.4544V13.4542V13.454V13.4539V13.4537V13.4535V13.4534V13.4532V13.453V13.4528V13.4527V13.4525V13.4523V13.4522V13.452V13.4518V13.4517V13.4515V13.4513V13.4512V13.451V13.4508V13.4507V13.4505V13.4503V13.4502V13.45V13.4498V13.4496V13.4495V13.4493V13.4491V13.449V13.4488V13.4486V13.4485V13.4483V13.4481V13.448V13.4478V13.4476V13.4475V13.4473V13.4471V13.4469V13.4468V13.4466V13.4464V13.4463V13.4461V13.4459V13.4458V13.4456V13.4454V13.4453V13.4451V13.4449V13.4448V13.4446V13.4444V13.4443V13.4441V13.4439V13.4437V13.4436V13.4434V13.4432V13.4431V13.4429V13.4427V13.4426V13.4424V13.4422V13.4421V13.4419V13.4417V13.4416V13.4414V13.4412V13.4411V13.4409V13.4407V13.4405V13.4404V13.4402V13.44V13.4399V13.4397V13.4395V13.4394V13.4392V13.439V13.4389V13.4387V13.4385V13.4384V13.4382V13.438V13.4378V13.4377V13.4375V13.4373V13.4372V13.437V13.4368V13.4367V13.4365V13.4363V13.4362V13.436V13.4358V13.4357V13.4355V13.4353V13.4352V13.435V13.4348V13.4346V13.4345V13.4343V13.4341V13.434V13.4338V13.4336V13.4335V13.4333V13.4331V13.433V13.4328V13.4326V13.4325V13.4323V13.4321V13.4319V13.4318V13.4316V13.4314V13.4313V13.4311V13.4309V13.4308V13.4306V13.4304V13.4303V13.4301V13.4299V13.4298V13.4296V13.4294V13.4293V13.4291V13.4289V13.4287V13.4286V13.4284V13.4282V13.4281V13.4279V13.4277V13.4276V13.4274V13.4272V13.4271V13.4269V13.4267V13.4266V13.4264V13.4262V13.426V13.4259V13.4257V13.4255V13.4254V13.4252V13.425V13.4249V13.4247V13.4245V13.4244V13.4242V13.424V13.4239V13.4237V13.4235V13.4234V13.4232V13.423V13.4228V13.4227V13.4225V13.4223V13.4222V13.422V13.4218V13.4217V13.4215V13.4213V13.4212V13.421V13.4208V13.4207V13.4205V13.4203V13.4201V13.42V13.4198V13.4196V13.4195V13.4193V13.4191V13.419V13.4188V13.4186V13.4185V13.4183V13.4181V13.418V13.4178V13.4176V13.4175V13.4173V13.4171V13.4169V13.4168V13.4166V13.4164V13.4163V13.4161V13.4159V13.4158V13.4156V13.4154V13.4153V13.4151V13.4149V13.4148V13.4146V13.4144V13.4142V13.4141V13.4139V13.4137V13.4136V13.4134V13.4132V13.4048L7.3707 13.3965C7.34391 13.2625 7.34359 13.0989 7.34359 12.953C7.34359 11.7343 8.34104 10.7368 9.55972 10.7368C10.0588 10.7368 10.4988 10.8745 10.8842 11.176C10.9613 11.2505 11.0785 11.29 11.1976 11.2503L11.1979 11.2511L11.2088 11.2456C11.2134 11.2433 11.2194 11.2405 11.2264 11.2372C11.2503 11.2261 11.2856 11.2096 11.3151 11.19C11.356 11.1627 11.399 11.122 11.4219 11.0588C12.1851 9.53684 13.6791 8.60806 15.3707 8.60806C17.7688 8.60806 19.7443 10.5836 19.7443 12.9817C19.7443 13.2431 19.7439 13.491 19.6894 13.709ZM17.8447 12.8081H17.8531L17.8614 12.8064C17.9548 12.7877 18.0388 12.7321 18.0911 12.656C18.1427 12.581 18.1647 12.4831 18.1287 12.3841C17.9192 11.1161 17.1252 10.5007 16.3839 10.2056C16.0137 10.0583 15.6563 9.99039 15.39 9.95923C15.2568 9.94363 15.1459 9.93719 15.0672 9.93465C15.0278 9.93338 14.9964 9.93309 14.9743 9.93312L14.9482 9.93332L14.9409 9.93344C14.9393 9.93347 14.9388 9.93348 14.9388 9.93348H14.9392C14.8376 9.93348 14.7508 9.98422 14.6914 10.0528C14.6322 10.1211 14.595 10.2125 14.595 10.3064C14.595 10.4079 14.6458 10.4948 14.7143 10.5542C14.7827 10.6134 14.8741 10.6505 14.9679 10.6505C14.9702 10.6505 14.9737 10.6505 14.9785 10.6504C15.0663 10.649 15.5719 10.6411 16.1051 10.8531C16.6628 11.0747 17.2489 11.5357 17.4154 12.5071L17.4154 12.5071L17.4159 12.5094C17.4532 12.696 17.6057 12.8081 17.7871 12.8081H17.7873H17.7875H17.7876H17.7878H17.788H17.7881H17.7883H17.7884H17.7886H17.7888H17.7889H17.7891H17.7893H17.7894H17.7896H17.7897H17.7899H17.79H17.7902H17.7904H17.7905H17.7907H17.7908H17.791H17.7911H17.7913H17.7914H17.7916H17.7917H17.7919H17.792H17.7922H17.7923H17.7925H17.7926H17.7928H17.7929H17.7931H17.7932H17.7934H17.7935H17.7936H17.7938H17.7939H17.7941H17.7942H17.7944H17.7945H17.7946H17.7948H17.7949H17.7951H17.7952H17.7953H17.7955H17.7956H17.7957H17.7959H17.796H17.7961H17.7963H17.7964H17.7965H17.7967H17.7968H17.7969H17.7971H17.7972H17.7973H17.7975H17.7976H17.7977H17.7978H17.798H17.7981H17.7982H17.7983H17.7985H17.7986H17.7987H17.7988H17.799H17.7991H17.7992H17.7993H17.7995H17.7996H17.7997H17.7998H17.7999H17.8001H17.8002H17.8003H17.8004H17.8005H17.8006H17.8008H17.8009H17.801H17.8011H17.8012H17.8013H17.8015H17.8016H17.8017H17.8018H17.8019H17.802H17.8021H17.8022H17.8024H17.8025H17.8026H17.8027H17.8028H17.8029H17.803H17.8031H17.8032H17.8033H17.8035H17.8036H17.8037H17.8038H17.8039H17.804H17.8041H17.8042H17.8043H17.8044H17.8045H17.8046H17.8047H17.8048H17.8049H17.805H17.8051H17.8052H17.8053H17.8054H17.8055H17.8056H17.8057H17.8058H17.8059H17.806H17.8061H17.8062H17.8063H17.8064H17.8065H17.8066H17.8067H17.8068H17.8069H17.807H17.8071H17.8072H17.8073H17.8074H17.8075H17.8076H17.8077H17.8078H17.8079H17.808H17.8081H17.8082H17.8083H17.8084H17.8085H17.8086H17.8086H17.8087H17.8088H17.8089H17.809H17.8091H17.8092H17.8093H17.8094H17.8095H17.8096H17.8097H17.8097H17.8098H17.8099H17.81H17.8101H17.8102H17.8103H17.8104H17.8105H17.8106H17.8106H17.8107H17.8108H17.8109H17.811H17.8111H17.8112H17.8113H17.8114H17.8114H17.8115H17.8116H17.8117H17.8118H17.8119H17.812H17.8121H17.8121H17.8122H17.8123H17.8124H17.8125H17.8126H17.8127H17.8127H17.8128H17.8129H17.813H17.8131H17.8132H17.8133H17.8133H17.8134H17.8135H17.8136H17.8137H17.8138H17.8139H17.8139H17.814H17.8141H17.8142H17.8143H17.8144H17.8145H17.8145H17.8146H17.8147H17.8148H17.8149H17.815H17.815H17.8151H17.8152H17.8153H17.8154H17.8155H17.8155H17.8156H17.8157H17.8158H17.8159H17.816H17.8161H17.8161H17.8162H17.8163H17.8164H17.8165H17.8166H17.8166H17.8167H17.8168H17.8169H17.817H17.8171H17.8172H17.8172H17.8173H17.8174H17.8175H17.8176H17.8177H17.8177H17.8178H17.8179H17.818H17.8181H17.8182H17.8183H17.8183H17.8184H17.8185H17.8186H17.8187H17.8188H17.8189H17.8189H17.819H17.8191H17.8192H17.8193H17.8194H17.8195H17.8195H17.8196H17.8197H17.8198H17.8199H17.82H17.8201H17.8202H17.8202H17.8203H17.8204H17.8205H17.8206H17.8207H17.8208H17.8209H17.8209H17.821H17.8211H17.8212H17.8213H17.8214H17.8215H17.8216H17.8217H17.8218H17.8218H17.8219H17.822H17.8221H17.8222H17.8223H17.8224H17.8225H17.8226H17.8227H17.8228H17.8228H17.8229H17.823H17.8231H17.8232H17.8233H17.8234H17.8235H17.8236H17.8237H17.8238H17.8239H17.824H17.8241H17.8242H17.8243H17.8244H17.8245H17.8245H17.8246H17.8247H17.8248H17.8249H17.825H17.8251H17.8252H17.8253H17.8254H17.8255H17.8256H17.8257H17.8258H17.8259H17.826H17.8261H17.8262H17.8263H17.8264H17.8265H17.8266H17.8267H17.8268H17.8269H17.827H17.8272H17.8273H17.8274H17.8275H17.8276H17.8277H17.8278H17.8279H17.828H17.8281H17.8282H17.8283H17.8284H17.8285H17.8286H17.8288H17.8289H17.829H17.8291H17.8292H17.8293H17.8294H17.8295H17.8296H17.8297H17.8299H17.83H17.8301H17.8302H17.8303H17.8304H17.8305H17.8307H17.8308H17.8309H17.831H17.8311H17.8312H17.8314H17.8315H17.8316H17.8317H17.8318H17.832H17.8321H17.8322H17.8323H17.8324H17.8326H17.8327H17.8328H17.8329H17.8331H17.8332H17.8333H17.8334H17.8336H17.8337H17.8338H17.8339H17.8341H17.8342H17.8343H17.8344H17.8346H17.8347H17.8348H17.835H17.8351H17.8352H17.8354H17.8355H17.8356H17.8358H17.8359H17.836H17.8362H17.8363H17.8364H17.8366H17.8367H17.8369H17.837H17.8371H17.8373H17.8374H17.8376H17.8377H17.8378H17.838H17.8381H17.8383H17.8384H17.8386H17.8387H17.8388H17.839H17.8391H17.8393H17.8394H17.8396H17.8397H17.8399H17.84H17.8402H17.8403H17.8405H17.8406H17.8408H17.8409H17.8411H17.8413H17.8414H17.8416H17.8417H17.8419H17.842H17.8422H17.8424H17.8425H17.8427H17.8428H17.843H17.8432H17.8433H17.8435H17.8437H17.8438H17.844H17.8441H17.8443H17.8445H17.8447Z" fill="white" stroke="black" stroke-width="0.170472"/>
<path d="M4.23706 17.7252L4.23706 12.1836" stroke="#3F69FF" stroke-width="0.583333" stroke-linecap="round"/>
<path d="M6.25629 18.4543L6.25629 11.4543" stroke="#3F69FF" stroke-width="0.583333" stroke-linecap="round"/>
<path d="M8.27551 16.9961L8.27551 12.9128" stroke="#3F69FF" stroke-width="0.583333" stroke-linecap="round"/>
<path d="M10.2948 16.9961L10.2948 12.9128" stroke="#3F69FF" stroke-width="0.583333" stroke-linecap="round"/>
<path d="M12.314 17.7252V12.1836" stroke="#3F69FF" stroke-width="0.583333" stroke-linecap="round"/>
<path d="M14.3333 16.4127L14.3333 13.4961" stroke="#3F69FF" stroke-width="0.583333" stroke-linecap="round"/>
<path d="M15.2571 10.6405L15.2546 10.6507V10.6612C15.2546 10.6632 15.2546 10.6653 15.2546 10.6675C15.2544 10.7194 15.2541 10.8303 15.3273 10.9125C15.3666 10.9833 15.4444 11.0603 15.564 11.0628C16.64 11.2033 17.4397 12.1427 17.4121 13.2193L17.4121 13.2193V13.2215C17.4121 14.4401 16.4146 15.4376 15.196 15.4376C15.1466 15.4376 15.0383 15.4245 14.8903 15.3993C14.7456 15.3746 14.5687 15.3392 14.3845 15.2968C14.2684 15.2601 14.1169 15.2963 14.0355 15.4127C13.5915 15.91 12.9832 16.1855 12.3193 16.1855C11.6277 16.1855 10.9954 15.9111 10.5816 15.4217C10.5299 15.2957 10.3996 15.265 10.3056 15.265C10.2269 15.265 10.1185 15.3017 10.0439 15.3763L10.0438 15.3762L10.041 15.3794C9.50914 15.9672 8.78354 16.3006 8.06172 16.3006C7.28035 16.3006 6.52841 15.9658 6.02769 15.3538L6.02802 15.3535L6.02199 15.3475C5.98819 15.3137 5.951 15.285 5.90644 15.2652C5.8615 15.2452 5.81344 15.2362 5.76035 15.2362H5.73158C5.65351 15.2362 5.58003 15.2731 5.52776 15.2993C5.52542 15.3005 5.52312 15.3016 5.52086 15.3028L5.51157 15.3074L5.50366 15.3142C5.02383 15.7234 4.57529 15.9195 4.13501 15.9195C3.69533 15.9195 3.24742 15.724 2.76833 15.3158C2.7393 15.2884 2.69641 15.2699 2.66247 15.2586C2.6245 15.2459 2.57912 15.2362 2.53843 15.2362C1.31975 15.2362 0.322296 14.2388 0.322296 13.0201C0.322296 11.8014 1.31975 10.804 2.53843 10.804H2.5672C2.79232 10.804 2.9401 10.6163 2.9401 10.4311V10.4309V10.4307V10.4306V10.4304V10.4302V10.43V10.4299V10.4297V10.4295V10.4294V10.4292V10.429V10.4289V10.4287V10.4285V10.4284V10.4282V10.428V10.4279V10.4277V10.4275V10.4273V10.4272V10.427V10.4268V10.4267V10.4265V10.4263V10.4262V10.426V10.4258V10.4257V10.4255V10.4253V10.4252V10.425V10.4248V10.4247V10.4245V10.4243V10.4241V10.424V10.4238V10.4236V10.4235V10.4233V10.4231V10.423V10.4228V10.4226V10.4225V10.4223V10.4221V10.422V10.4218V10.4216V10.4215V10.4213V10.4211V10.4209V10.4208V10.4206V10.4204V10.4203V10.4201V10.4199V10.4198V10.4196V10.4194V10.4193V10.4191V10.4189V10.4188V10.4186V10.4184V10.4182V10.4181V10.4179V10.4177V10.4176V10.4174V10.4172V10.4171V10.4169V10.4167V10.4166V10.4164V10.4162V10.4161V10.4159V10.4157V10.4156V10.4154V10.4152V10.415V10.4149V10.4147V10.4145V10.4144V10.4142V10.414V10.4139V10.4137V10.4135V10.4134V10.4132V10.413V10.4129V10.4127V10.4125V10.4123V10.4122V10.412V10.4118V10.4117V10.4115V10.4113V10.4112V10.411V10.4108V10.4107V10.4105V10.4103V10.4102V10.41V10.4098V10.4097V10.4095V10.4093V10.4091V10.409V10.4088V10.4086V10.4085V10.4083V10.4081V10.408V10.4078V10.4076V10.4075V10.4073V10.4071V10.407V10.4068V10.4066V10.4064V10.4063V10.4061V10.4059V10.4058V10.4056V10.4054V10.4053V10.4051V10.4049V10.4048V10.4046V10.4044V10.4043V10.4041V10.4039V10.4038V10.4036V10.4034V10.4032V10.4031V10.4029V10.4027V10.4026V10.4024V10.4022V10.4021V10.4019V10.4017V10.4016V10.4014V10.4012V10.4011V10.4009V10.4007V10.4005V10.4004V10.4002V10.4V10.3999V10.3997V10.3995V10.3994V10.3992V10.399V10.3989V10.3987V10.3985V10.3984V10.3982V10.398V10.3979V10.3977V10.3975V10.3973V10.3972V10.397V10.3968V10.3967V10.3965V10.3963V10.3962V10.396V10.3958V10.3957V10.3955V10.3953V10.3952V10.395V10.3948V10.3946V10.3945V10.3943V10.3941V10.394V10.3938V10.3936V10.3935V10.3933V10.3931V10.393V10.3928V10.3926V10.3925V10.3923V10.3921V10.392V10.3918V10.3916V10.3914V10.3913V10.3911V10.3909V10.3908V10.3906V10.3904V10.3903V10.3901V10.3899V10.3898V10.3896V10.3894V10.3893V10.3891V10.3889V10.3888V10.3886V10.3884V10.3882V10.3881V10.3879V10.3877V10.3876V10.3874V10.3872V10.3871V10.3869V10.3867V10.3866V10.3864V10.3862V10.3861V10.3859V10.3857V10.3855V10.3854V10.3852V10.385V10.3849V10.3847V10.3845V10.3844V10.3842V10.384V10.3839V10.3837V10.3835V10.3834V10.3832V10.383V10.3829V10.3827V10.3825V10.3823V10.3822V10.382V10.3818V10.3817V10.3815V10.3813V10.3812V10.381V10.3808V10.3807V10.3805V10.3803V10.3802V10.38V10.3798V10.3796V10.3795V10.3793V10.3791V10.379V10.3788V10.3786V10.3785V10.3783V10.3781V10.378V10.3778V10.3776V10.3775V10.3773V10.3771V10.377V10.3768V10.3766V10.3764V10.3763V10.3761V10.3759V10.3758V10.3756V10.3754V10.3753V10.3751V10.3749V10.3748V10.3746V10.3744V10.3743V10.3741V10.3739V10.3737V10.3736V10.3734V10.3732V10.3731V10.3729V10.3727V10.3726V10.3724V10.3722V10.3721V10.3719V10.3717V10.3716V10.3714V10.3712V10.3711V10.3709V10.3707V10.3705V10.3704V10.3702V10.37V10.3699V10.3697V10.3695V10.3694V10.3692V10.369V10.3689V10.3687V10.3685V10.3684V10.3682V10.368V10.3678V10.3677V10.3675V10.3673V10.3672V10.367V10.3668V10.3667V10.3665V10.3663V10.3662V10.366V10.3658V10.3657V10.3655V10.3653V10.3652V10.365V10.3648V10.3646V10.3645V10.3643V10.3641V10.364V10.3638V10.3636V10.3635V10.3633V10.3631V10.363V10.3628V10.3626V10.3625V10.3623V10.3621V10.3619V10.3618V10.3616V10.3614V10.3613V10.3611V10.3609V10.3608V10.3606V10.3604V10.3603V10.3601V10.3599V10.3598V10.3596V10.3594V10.3593V10.3591V10.3589V10.3587V10.3586V10.3584V10.3582V10.3581V10.3579V10.3577V10.3576V10.3574V10.3572V10.3571V10.3569V10.3567V10.3566V10.3564V10.3562V10.3561V10.3559V10.3557V10.3555V10.3554V10.3552V10.355V10.3549V10.3547V10.3545V10.3544V10.3542V10.354V10.3539V10.3537V10.3535V10.3534V10.3532V10.353V10.3528V10.3527V10.3525V10.3523V10.3522V10.352V10.3518V10.3517V10.3515V10.3513V10.3512V10.351V10.3508V10.3507V10.3505V10.3503V10.3502V10.35V10.3498V10.3496V10.3495V10.3493V10.3491V10.349V10.3488V10.3486V10.3485V10.3483V10.3481V10.348V10.3478V10.3476V10.3475V10.3473V10.3471V10.3469V10.3468V10.3466V10.3464V10.3463V10.3461V10.3459V10.3458V10.3456V10.3454V10.3453V10.3451V10.3449V10.3448V10.3363L2.93845 10.328C2.91165 10.1941 2.91134 10.0304 2.91134 9.88448C2.91134 8.6658 3.90879 7.66835 5.12747 7.66835C5.62656 7.66835 6.06659 7.80605 6.45197 8.10754C6.52907 8.18206 6.64626 8.22149 6.76538 8.18178L6.76566 8.1826L6.77655 8.17716C6.78114 8.17487 6.78717 8.17205 6.7942 8.16876C6.81803 8.15763 6.85333 8.14114 6.8828 8.1215C6.92377 8.09418 6.96679 8.05353 6.9897 7.99036C7.75288 6.46836 9.24684 5.53958 10.9384 5.53958C13.3366 5.53958 15.3121 7.51512 15.3121 9.91325C15.3121 10.1747 15.3116 10.4225 15.2571 10.6405ZM13.4124 9.73958H13.4208L13.4291 9.73793C13.5226 9.71924 13.6066 9.66357 13.6588 9.58757C13.7104 9.51252 13.7324 9.41465 13.6965 9.31565C13.487 8.04764 12.693 7.4322 11.9516 7.13714C11.5814 6.98979 11.224 6.92191 10.9578 6.89075C10.8245 6.87515 10.7136 6.86871 10.6349 6.86617C10.5955 6.8649 10.5642 6.86461 10.542 6.86463L10.516 6.86484L10.5086 6.86496C10.507 6.86499 10.5066 6.865 10.5066 6.865H10.5069C10.4054 6.865 10.3185 6.91574 10.2591 6.98431C10.1999 7.05264 10.1628 7.14406 10.1628 7.23791C10.1628 7.33944 10.2135 7.42628 10.2821 7.48571C10.3504 7.54493 10.4418 7.58205 10.5357 7.58205C10.5379 7.58205 10.5415 7.58199 10.5462 7.58192C10.6341 7.58054 11.1397 7.57263 11.6729 7.78458C12.2305 8.00626 12.8167 8.46718 12.9832 9.43861L12.9832 9.43862L12.9836 9.44093C13.0209 9.62755 13.1735 9.73958 13.3549 9.73958H13.355H13.3552H13.3554H13.3555H13.3557H13.3559H13.356H13.3562H13.3564H13.3565H13.3567H13.3568H13.357H13.3572H13.3573H13.3575H13.3576H13.3578H13.358H13.3581H13.3583H13.3584H13.3586H13.3587H13.3589H13.359H13.3592H13.3593H13.3595H13.3596H13.3598H13.3599H13.3601H13.3602H13.3604H13.3605H13.3607H13.3608H13.361H13.3611H13.3613H13.3614H13.3615H13.3617H13.3618H13.362H13.3621H13.3622H13.3624H13.3625H13.3627H13.3628H13.3629H13.3631H13.3632H13.3633H13.3635H13.3636H13.3638H13.3639H13.364H13.3642H13.3643H13.3644H13.3646H13.3647H13.3648H13.3649H13.3651H13.3652H13.3653H13.3655H13.3656H13.3657H13.3658H13.366H13.3661H13.3662H13.3663H13.3665H13.3666H13.3667H13.3668H13.367H13.3671H13.3672H13.3673H13.3674H13.3676H13.3677H13.3678H13.3679H13.368H13.3682H13.3683H13.3684H13.3685H13.3686H13.3687H13.3689H13.369H13.3691H13.3692H13.3693H13.3694H13.3695H13.3697H13.3698H13.3699H13.37H13.3701H13.3702H13.3703H13.3704H13.3705H13.3707H13.3708H13.3709H13.371H13.3711H13.3712H13.3713H13.3714H13.3715H13.3716H13.3717H13.3718H13.3719H13.3721H13.3722H13.3723H13.3724H13.3725H13.3726H13.3727H13.3728H13.3729H13.373H13.3731H13.3732H13.3733H13.3734H13.3735H13.3736H13.3737H13.3738H13.3739H13.374H13.3741H13.3742H13.3743H13.3744H13.3745H13.3746H13.3747H13.3748H13.3749H13.375H13.3751H13.3752H13.3753H13.3754H13.3755H13.3755H13.3756H13.3757H13.3758H13.3759H13.376H13.3761H13.3762H13.3763H13.3764H13.3765H13.3766H13.3767H13.3768H13.3769H13.3769H13.377H13.3771H13.3772H13.3773H13.3774H13.3775H13.3776H13.3777H13.3778H13.3779H13.3779H13.378H13.3781H13.3782H13.3783H13.3784H13.3785H13.3786H13.3787H13.3788H13.3788H13.3789H13.379H13.3791H13.3792H13.3793H13.3794H13.3795H13.3795H13.3796H13.3797H13.3798H13.3799H13.38H13.3801H13.3801H13.3802H13.3803H13.3804H13.3805H13.3806H13.3807H13.3808H13.3808H13.3809H13.381H13.3811H13.3812H13.3813H13.3814H13.3814H13.3815H13.3816H13.3817H13.3818H13.3819H13.3819H13.382H13.3821H13.3822H13.3823H13.3824H13.3825H13.3825H13.3826H13.3827H13.3828H13.3829H13.383H13.383H13.3831H13.3832H13.3833H13.3834H13.3835H13.3835H13.3836H13.3837H13.3838H13.3839H13.384H13.3841H13.3841H13.3842H13.3843H13.3844H13.3845H13.3846H13.3846H13.3847H13.3848H13.3849H13.385H13.3851H13.3852H13.3852H13.3853H13.3854H13.3855H13.3856H13.3857H13.3857H13.3858H13.3859H13.386H13.3861H13.3862H13.3863H13.3863H13.3864H13.3865H13.3866H13.3867H13.3868H13.3869H13.3869H13.387H13.3871H13.3872H13.3873H13.3874H13.3875H13.3876H13.3876H13.3877H13.3878H13.3879H13.388H13.3881H13.3882H13.3883H13.3883H13.3884H13.3885H13.3886H13.3887H13.3888H13.3889H13.389H13.3891H13.3891H13.3892H13.3893H13.3894H13.3895H13.3896H13.3897H13.3898H13.3899H13.39H13.39H13.3901H13.3902H13.3903H13.3904H13.3905H13.3906H13.3907H13.3908H13.3909H13.391H13.3911H13.3912H13.3912H13.3913H13.3914H13.3915H13.3916H13.3917H13.3918H13.3919H13.392H13.3921H13.3922H13.3923H13.3924H13.3925H13.3926H13.3927H13.3928H13.3929H13.393H13.3931H13.3932H13.3933H13.3934H13.3935H13.3936H13.3937H13.3938H13.3939H13.394H13.3941H13.3942H13.3943H13.3944H13.3945H13.3946H13.3947H13.3948H13.3949H13.395H13.3951H13.3952H13.3953H13.3954H13.3955H13.3956H13.3957H13.3959H13.396H13.3961H13.3962H13.3963H13.3964H13.3965H13.3966H13.3967H13.3968H13.3969H13.397H13.3972H13.3973H13.3974H13.3975H13.3976H13.3977H13.3978H13.3979H13.3981H13.3982H13.3983H13.3984H13.3985H13.3986H13.3988H13.3989H13.399H13.3991H13.3992H13.3993H13.3995H13.3996H13.3997H13.3998H13.3999H13.4001H13.4002H13.4003H13.4004H13.4006H13.4007H13.4008H13.4009H13.4011H13.4012H13.4013H13.4014H13.4016H13.4017H13.4018H13.4019H13.4021H13.4022H13.4023H13.4025H13.4026H13.4027H13.4028H13.403H13.4031H13.4032H13.4034H13.4035H13.4036H13.4038H13.4039H13.4041H13.4042H13.4043H13.4045H13.4046H13.4047H13.4049H13.405H13.4052H13.4053H13.4054H13.4056H13.4057H13.4059H13.406H13.4062H13.4063H13.4064H13.4066H13.4067H13.4069H13.407H13.4072H13.4073H13.4075H13.4076H13.4078H13.4079H13.4081H13.4082H13.4084H13.4085H13.4087H13.4088H13.409H13.4092H13.4093H13.4095H13.4096H13.4098H13.4099H13.4101H13.4103H13.4104H13.4106H13.4107H13.4109H13.4111H13.4112H13.4114H13.4116H13.4117H13.4119H13.4121H13.4122H13.4124Z" fill="white" stroke="black" stroke-width="0.170472"/>
</svg>
