<svg width="26" height="24" viewBox="0 0 26 24" fill="none" xmlns="http://www.w3.org/2000/svg">
<mask id="path-1-outside-1_34_637" maskUnits="userSpaceOnUse" x="-0.278992" y="-0.181885" width="21" height="25" fill="black">
<rect fill="white" x="-0.278992" y="-0.181885" width="21" height="25"/>
<path fill-rule="evenodd" clip-rule="evenodd" d="M1.07325 20.8692C7.70623 20.8692 13.0833 15.4921 13.0833 8.8591C13.0833 5.76654 11.9144 2.94698 9.99438 0.81812C15.4823 1.67883 19.6803 6.42797 19.6803 12.1576C19.6803 18.4971 14.5411 23.6362 8.20164 23.6362C5.3439 23.6362 2.73008 22.5919 0.720968 20.8641C0.837985 20.8675 0.955421 20.8692 1.07325 20.8692Z"/>
</mask>
<path fill-rule="evenodd" clip-rule="evenodd" d="M1.07325 20.8692C7.70623 20.8692 13.0833 15.4921 13.0833 8.8591C13.0833 5.76654 11.9144 2.94698 9.99438 0.81812C15.4823 1.67883 19.6803 6.42797 19.6803 12.1576C19.6803 18.4971 14.5411 23.6362 8.20164 23.6362C5.3439 23.6362 2.73008 22.5919 0.720968 20.8641C0.837985 20.8675 0.955421 20.8692 1.07325 20.8692Z" fill="#DDDDDD"/>
<path d="M9.99438 0.81812L10.0254 0.620536L9.46801 0.533121L9.84586 0.95207L9.99438 0.81812ZM0.720968 20.8641L0.726726 20.6642L0.16289 20.6479L0.590561 21.0157L0.720968 20.8641ZM12.8833 8.8591C12.8833 15.3816 7.59577 20.6692 1.07325 20.6692V21.0692C7.81668 21.0692 13.2833 15.6025 13.2833 8.8591H12.8833ZM9.84586 0.95207C11.7341 3.04562 12.8833 5.81792 12.8833 8.8591H13.2833C13.2833 5.71516 12.0948 2.84834 10.1429 0.68417L9.84586 0.95207ZM9.96339 1.0157C15.3556 1.86139 19.4803 6.52798 19.4803 12.1576H19.8803C19.8803 6.32795 15.6091 1.49627 10.0254 0.620536L9.96339 1.0157ZM19.4803 12.1576C19.4803 18.3866 14.4307 23.4362 8.20164 23.4362V23.8362C14.6516 23.8362 19.8803 18.6075 19.8803 12.1576H19.4803ZM8.20164 23.4362C5.39354 23.4362 2.82558 22.4103 0.851375 20.7125L0.590561 21.0157C2.63457 22.7736 5.29426 23.8362 8.20164 23.8362V23.4362ZM1.07325 20.6692C0.957342 20.6692 0.841825 20.6675 0.726726 20.6642L0.71521 21.064C0.834144 21.0674 0.9535 21.0692 1.07325 21.0692V20.6692Z" fill="black" mask="url(#path-1-outside-1_34_637)"/>
<path d="M24.5217 14.6643L24.5231 14.6647C24.553 14.545 24.5533 14.409 24.5533 14.2655C24.5533 12.9492 23.4689 11.8649 22.1527 11.8649C21.2242 11.8649 20.4042 12.3747 19.9853 13.2101C19.9728 13.2447 19.9491 13.267 19.9267 13.282C19.9105 13.2928 19.8911 13.3019 19.878 13.308C19.8742 13.3098 19.8709 13.3113 19.8683 13.3126L19.8624 13.3156L19.8622 13.3151C19.7968 13.3369 19.7325 13.3153 19.6902 13.2744C19.4787 13.1089 19.2371 13.0333 18.9632 13.0333C18.2943 13.0333 17.7468 13.5808 17.7468 14.2497C17.7468 14.3298 17.747 14.4196 17.7617 14.4932L17.7635 14.5023H17.7626V14.5024V14.5025V14.5026V14.5027V14.5028V14.5029V14.503V14.5031V14.5032V14.5033V14.5033V14.5034V14.5035V14.5036V14.5037V14.5038V14.5039V14.504V14.5041V14.5042V14.5043V14.5044V14.5045V14.5045V14.5046V14.5047V14.5048V14.5049V14.505V14.5051V14.5052V14.5053V14.5054V14.5055V14.5056V14.5057V14.5057V14.5058V14.5059V14.506V14.5061V14.5062V14.5063V14.5064V14.5065V14.5066V14.5067V14.5068V14.5069V14.507V14.507V14.5071V14.5072V14.5073V14.5074V14.5075V14.5076V14.5077V14.5078V14.5079V14.508V14.5081V14.5082V14.5082V14.5083V14.5084V14.5085V14.5086V14.5087V14.5088V14.5089V14.509V14.5091V14.5092V14.5093V14.5094V14.5094V14.5095V14.5096V14.5097V14.5098V14.5099V14.51V14.5101V14.5102V14.5103V14.5104V14.5105V14.5106V14.5107V14.5107V14.5108V14.5109V14.511V14.5111V14.5112V14.5113V14.5114V14.5115V14.5116V14.5117V14.5118V14.5119V14.5119V14.512V14.5121V14.5122V14.5123V14.5124V14.5125V14.5126V14.5127V14.5128V14.5129V14.513V14.5131V14.5131V14.5132V14.5133V14.5134V14.5135V14.5136V14.5137V14.5138V14.5139V14.514V14.5141V14.5142V14.5143V14.5144V14.5144V14.5145V14.5146V14.5147V14.5148V14.5149V14.515V14.5151V14.5152V14.5153V14.5154V14.5155V14.5156V14.5156V14.5157V14.5158V14.5159V14.516V14.5161V14.5162V14.5163V14.5164V14.5165V14.5166V14.5167V14.5168V14.5169V14.5169V14.517V14.5171V14.5172V14.5173V14.5174V14.5175V14.5176V14.5177V14.5178V14.5179V14.518V14.5181V14.5181V14.5182V14.5183V14.5184V14.5185V14.5186V14.5187V14.5188V14.5189V14.519V14.5191V14.5192V14.5193V14.5193V14.5194V14.5195V14.5196V14.5197V14.5198V14.5199V14.52V14.5201V14.5202V14.5203V14.5204V14.5205V14.5206V14.5206V14.5207V14.5208V14.5209V14.521V14.5211V14.5212V14.5213V14.5214V14.5215V14.5216V14.5217V14.5218V14.5218V14.5219V14.522V14.5221V14.5222V14.5223V14.5224V14.5225V14.5226V14.5227V14.5228V14.5229V14.523V14.523V14.5231V14.5232V14.5233V14.5234V14.5235V14.5236V14.5237V14.5238V14.5239V14.524V14.5241V14.5242V14.5243V14.5243V14.5244V14.5245V14.5246V14.5247V14.5248V14.5249V14.525V14.5251V14.5252V14.5253V14.5254V14.5255V14.5255V14.5256V14.5257V14.5258V14.5259V14.526V14.5261V14.5262V14.5263V14.5264V14.5265V14.5266V14.5267V14.5267V14.5268V14.5269V14.527V14.5271V14.5272V14.5273V14.5274V14.5275V14.5276V14.5277V14.5278V14.5279V14.528V14.528V14.5281V14.5282V14.5283V14.5284V14.5285V14.5286V14.5287V14.5288V14.5289V14.529V14.5291V14.5292V14.5292V14.5293V14.5294V14.5295V14.5296V14.5297V14.5298V14.5299V14.53V14.5301V14.5302V14.5303V14.5304V14.5305V14.5305V14.5306V14.5307V14.5308V14.5309V14.531V14.5311V14.5312V14.5313V14.5314V14.5315V14.5316V14.5317V14.5317V14.5318V14.5319V14.532V14.5321V14.5322V14.5323V14.5324V14.5325V14.5326V14.5327V14.5328V14.5329V14.5329V14.533V14.5331V14.5332V14.5333V14.5334V14.5335V14.5336V14.5337V14.5338V14.5339V14.534V14.5341V14.5342V14.5342V14.5343V14.5344V14.5345V14.5346V14.5347V14.5348V14.5349V14.535V14.5351V14.5352V14.5353V14.5354V14.5354V14.5355V14.5356V14.5357V14.5358V14.5359V14.536V14.5361V14.5362V14.5363V14.5364V14.5365V14.5366V14.5366V14.5367V14.5368V14.5369V14.537V14.5371V14.5372V14.5373V14.5374V14.5375V14.5376V14.5377V14.5378V14.5379V14.5379V14.538V14.5381V14.5382V14.5383V14.5384V14.5385V14.5386V14.5387V14.5388V14.5389V14.539V14.5391V14.5391V14.5392V14.5393V14.5394V14.5395V14.5396V14.5397V14.5398V14.5399V14.54V14.5401V14.5402V14.5403V14.5403V14.5404V14.5405V14.5406V14.5407V14.5408V14.5409V14.541V14.5411V14.5412V14.5413V14.5414V14.5415V14.5416V14.5416V14.5417V14.5418V14.5419V14.542V14.5421V14.5422V14.5423V14.5424V14.5425V14.5426V14.5427V14.5428V14.5428V14.5429V14.543V14.5431V14.5432V14.5433V14.5434V14.5435V14.5436V14.5437V14.5438V14.5439V14.544V14.5441V14.5441V14.5442V14.5443V14.5444V14.5445V14.5446V14.5447V14.5448V14.5449V14.545V14.5451V14.5452V14.5453V14.5453V14.5454V14.5455V14.5456V14.5457V14.5458V14.5459V14.546V14.5461V14.5462V14.5463V14.5464V14.5465V14.5465V14.5466V14.5467V14.5468V14.5469V14.547V14.5471V14.5472V14.5473V14.5474V14.5475V14.5476V14.5477V14.5478V14.5478V14.5479V14.548V14.5481V14.5482V14.5483V14.5484V14.5485V14.5486V14.5487V14.5488V14.5489V14.549V14.549V14.5491V14.5492V14.5493V14.5494V14.5495V14.5496V14.5497C17.7626 14.6514 17.6815 14.7544 17.5579 14.7544H17.5421C16.8733 14.7544 16.3258 15.3018 16.3258 15.9707C16.3258 16.6396 16.8733 17.1871 17.5421 17.1871C17.5645 17.1871 17.5894 17.1924 17.6102 17.1994C17.6289 17.2056 17.6524 17.2158 17.6683 17.2308C17.9313 17.4548 18.1771 17.5621 18.4185 17.5621C18.6601 17.5621 18.9063 17.4545 19.1697 17.2299L19.1785 17.2224L19.1791 17.2236C19.1804 17.223 19.1816 17.2224 19.1829 17.2217C19.2116 17.2074 19.2519 17.1871 19.2948 17.1871H19.3106C19.3397 17.1871 19.3661 17.192 19.3908 17.203C19.4152 17.2139 19.4356 17.2296 19.4542 17.2482L19.4575 17.2515L19.4573 17.2516C19.7321 17.5876 20.1449 17.7713 20.5737 17.7713C20.9699 17.7713 21.3682 17.5883 21.6601 17.2657L21.6617 17.2639L21.6617 17.264C21.7026 17.2231 21.7622 17.2029 21.8053 17.2029C21.8569 17.2029 21.9285 17.2197 21.9568 17.2889C22.184 17.5576 22.531 17.7082 22.9106 17.7082C23.275 17.7082 23.6089 17.5569 23.8526 17.284C23.8972 17.2201 23.9804 17.2002 24.0441 17.2204C24.1452 17.2437 24.2423 17.263 24.3217 17.2766C24.403 17.2905 24.4624 17.2976 24.4895 17.2976C25.1584 17.2976 25.7059 16.7502 25.7059 16.0813V16.0801L25.7059 16.0801C25.7211 15.4891 25.2821 14.9735 24.6915 14.8964C24.6906 14.8963 24.6897 14.8962 24.6888 14.8961L24.6948 14.8497C24.6474 14.8497 24.6158 14.8181 24.6 14.7865L24.5217 14.6643ZM24.5217 14.6643V14.676C24.5217 14.6771 24.5217 14.6783 24.5217 14.6795C24.5216 14.7079 24.5214 14.7688 24.5616 14.814L24.5217 14.6643ZM23.5106 14.1702V14.1711L23.5197 14.1693C23.571 14.159 23.6172 14.1284 23.6458 14.0867C23.6742 14.0455 23.6862 13.9918 23.6665 13.9375C23.5515 13.2415 23.1157 12.9037 22.7088 12.7418C22.5056 12.6609 22.3094 12.6236 22.1633 12.6065C22.0901 12.598 22.0293 12.5944 21.9861 12.593C21.9645 12.5923 21.9472 12.5922 21.9351 12.5922L21.9208 12.5923L21.9168 12.5924C21.9158 12.5924 21.9156 12.5924 21.9156 12.5924L21.9158 12.5924C21.8601 12.5924 21.8124 12.6202 21.7798 12.6579C21.7473 12.6954 21.7269 12.7456 21.7269 12.7971C21.7269 12.8528 21.7548 12.9005 21.7924 12.9331C21.8299 12.9656 21.8801 12.986 21.9316 12.986C21.9329 12.986 21.9348 12.9859 21.9374 12.9859C21.9856 12.9851 22.2631 12.9808 22.5558 13.0971C22.8619 13.2188 23.1836 13.4718 23.275 14.005L23.275 14.005L23.2752 14.0062C23.2957 14.1087 23.3794 14.1702 23.479 14.1702H23.4791H23.4792H23.4793H23.4794H23.4794H23.4795H23.4796H23.4797H23.4798H23.4799H23.48H23.4801H23.4802H23.4803H23.4803H23.4804H23.4805H23.4806H23.4807H23.4808H23.4809H23.4809H23.481H23.4811H23.4812H23.4813H23.4814H23.4814H23.4815H23.4816H23.4817H23.4818H23.4819H23.4819H23.482H23.4821H23.4822H23.4823H23.4823H23.4824H23.4825H23.4826H23.4827H23.4827H23.4828H23.4829H23.483H23.483H23.4831H23.4832H23.4833H23.4833H23.4834H23.4835H23.4836H23.4836H23.4837H23.4838H23.4839H23.4839H23.484H23.4841H23.4842H23.4842H23.4843H23.4844H23.4844H23.4845H23.4846H23.4847H23.4847H23.4848H23.4849H23.4849H23.485H23.4851H23.4852H23.4852H23.4853H23.4854H23.4854H23.4855H23.4856H23.4856H23.4857H23.4858H23.4858H23.4859H23.486H23.486H23.4861H23.4862H23.4862H23.4863H23.4864H23.4864H23.4865H23.4865H23.4866H23.4867H23.4867H23.4868H23.4869H23.4869H23.487H23.487H23.4871H23.4872H23.4872H23.4873H23.4874H23.4874H23.4875H23.4875H23.4876H23.4877H23.4877H23.4878H23.4878H23.4879H23.488H23.488H23.4881H23.4881H23.4882H23.4882H23.4883H23.4884H23.4884H23.4885H23.4885H23.4886H23.4887H23.4887H23.4888H23.4888H23.4889H23.4889H23.489H23.489H23.4891H23.4892H23.4892H23.4893H23.4893H23.4894H23.4894H23.4895H23.4895H23.4896H23.4897H23.4897H23.4898H23.4898H23.4899H23.4899H23.49H23.49H23.4901H23.4901H23.4902H23.4902H23.4903H23.4903H23.4904H23.4904H23.4905H23.4905H23.4906H23.4907H23.4907H23.4908H23.4908H23.4909H23.4909H23.491H23.491H23.4911H23.4911H23.4912H23.4912H23.4913H23.4913H23.4914H23.4914H23.4915H23.4915H23.4916H23.4916H23.4917H23.4917H23.4918H23.4918H23.4919H23.4919H23.492H23.492H23.4921H23.4921H23.4921H23.4922H23.4922H23.4923H23.4923H23.4924H23.4924H23.4925H23.4925H23.4926H23.4926H23.4927H23.4927H23.4928H23.4928H23.4929H23.4929H23.493H23.493H23.4931H23.4931H23.4932H23.4932H23.4932H23.4933H23.4933H23.4934H23.4934H23.4935H23.4935H23.4936H23.4936H23.4937H23.4937H23.4938H23.4938H23.4939H23.4939H23.4939H23.494H23.494H23.4941H23.4941H23.4942H23.4942H23.4943H23.4943H23.4944H23.4944H23.4945H23.4945H23.4945H23.4946H23.4946H23.4947H23.4947H23.4948H23.4948H23.4949H23.4949H23.495H23.495H23.4951H23.4951H23.4952H23.4952H23.4952H23.4953H23.4953H23.4954H23.4954H23.4955H23.4955H23.4956H23.4956H23.4957H23.4957H23.4958H23.4958H23.4958H23.4959H23.4959H23.496H23.496H23.4961H23.4961H23.4962H23.4962H23.4963H23.4963H23.4964H23.4964H23.4965H23.4965H23.4966H23.4966H23.4966H23.4967H23.4967H23.4968H23.4968H23.4969H23.4969H23.497H23.497H23.4971H23.4971H23.4972H23.4972H23.4973H23.4973H23.4974H23.4974H23.4975H23.4975H23.4976H23.4976H23.4977H23.4977H23.4978H23.4978H23.4979H23.4979H23.498H23.498H23.498H23.4981H23.4981H23.4982H23.4982H23.4983H23.4983H23.4984H23.4984H23.4985H23.4986H23.4986H23.4987H23.4987H23.4988H23.4988H23.4989H23.4989H23.499H23.499H23.4991H23.4991H23.4992H23.4992H23.4993H23.4993H23.4994H23.4994H23.4995H23.4995H23.4996H23.4996H23.4997H23.4997H23.4998H23.4999H23.4999H23.5H23.5H23.5001H23.5001H23.5002H23.5002H23.5003H23.5003H23.5004H23.5005H23.5005H23.5006H23.5006H23.5007H23.5007H23.5008H23.5009H23.5009H23.501H23.501H23.5011H23.5011H23.5012H23.5013H23.5013H23.5014H23.5014H23.5015H23.5015H23.5016H23.5017H23.5017H23.5018H23.5018H23.5019H23.502H23.502H23.5021H23.5021H23.5022H23.5023H23.5023H23.5024H23.5025H23.5025H23.5026H23.5026H23.5027H23.5028H23.5028H23.5029H23.503H23.503H23.5031H23.5031H23.5032H23.5033H23.5033H23.5034H23.5035H23.5035H23.5036H23.5037H23.5037H23.5038H23.5039H23.5039H23.504H23.5041H23.5041H23.5042H23.5043H23.5043H23.5044H23.5045H23.5045H23.5046H23.5047H23.5048H23.5048H23.5049H23.505H23.505H23.5051H23.5052H23.5053H23.5053H23.5054H23.5055H23.5055H23.5056H23.5057H23.5058H23.5058H23.5059H23.506H23.5061H23.5061H23.5062H23.5063H23.5064H23.5064H23.5065H23.5066H23.5067H23.5068H23.5068H23.5069H23.507H23.5071H23.5071H23.5072H23.5073H23.5074H23.5075H23.5075H23.5076H23.5077H23.5078H23.5079H23.508H23.508H23.5081H23.5082H23.5083H23.5084H23.5085H23.5085H23.5086H23.5087H23.5088H23.5089H23.509H23.509H23.5091H23.5092H23.5093H23.5094H23.5095H23.5096H23.5097H23.5098H23.5098H23.5099H23.51H23.5101H23.5102H23.5103H23.5104H23.5105H23.5106Z" fill="white" stroke="black" stroke-width="0.0935673"/>
<path d="M21.5217 17.6643L21.5231 17.6647C21.553 17.545 21.5533 17.409 21.5533 17.2655C21.5533 15.9492 20.4689 14.8649 19.1527 14.8649C18.2242 14.8649 17.4042 15.3747 16.9853 16.2101C16.9728 16.2447 16.9491 16.267 16.9267 16.282C16.9105 16.2928 16.8911 16.3019 16.878 16.308C16.8742 16.3098 16.8709 16.3113 16.8683 16.3126L16.8624 16.3156L16.8622 16.3151C16.7968 16.3369 16.7325 16.3153 16.6902 16.2744C16.4787 16.1089 16.2371 16.0333 15.9632 16.0333C15.2943 16.0333 14.7468 16.5808 14.7468 17.2497C14.7468 17.3298 14.747 17.4196 14.7617 17.4932L14.7635 17.5023H14.7626V17.5024V17.5025V17.5026V17.5027V17.5028V17.5029V17.503V17.5031V17.5032V17.5033V17.5033V17.5034V17.5035V17.5036V17.5037V17.5038V17.5039V17.504V17.5041V17.5042V17.5043V17.5044V17.5045V17.5045V17.5046V17.5047V17.5048V17.5049V17.505V17.5051V17.5052V17.5053V17.5054V17.5055V17.5056V17.5057V17.5057V17.5058V17.5059V17.506V17.5061V17.5062V17.5063V17.5064V17.5065V17.5066V17.5067V17.5068V17.5069V17.507V17.507V17.5071V17.5072V17.5073V17.5074V17.5075V17.5076V17.5077V17.5078V17.5079V17.508V17.5081V17.5082V17.5082V17.5083V17.5084V17.5085V17.5086V17.5087V17.5088V17.5089V17.509V17.5091V17.5092V17.5093V17.5094V17.5094V17.5095V17.5096V17.5097V17.5098V17.5099V17.51V17.5101V17.5102V17.5103V17.5104V17.5105V17.5106V17.5107V17.5107V17.5108V17.5109V17.511V17.5111V17.5112V17.5113V17.5114V17.5115V17.5116V17.5117V17.5118V17.5119V17.5119V17.512V17.5121V17.5122V17.5123V17.5124V17.5125V17.5126V17.5127V17.5128V17.5129V17.513V17.5131V17.5131V17.5132V17.5133V17.5134V17.5135V17.5136V17.5137V17.5138V17.5139V17.514V17.5141V17.5142V17.5143V17.5144V17.5144V17.5145V17.5146V17.5147V17.5148V17.5149V17.515V17.5151V17.5152V17.5153V17.5154V17.5155V17.5156V17.5156V17.5157V17.5158V17.5159V17.516V17.5161V17.5162V17.5163V17.5164V17.5165V17.5166V17.5167V17.5168V17.5169V17.5169V17.517V17.5171V17.5172V17.5173V17.5174V17.5175V17.5176V17.5177V17.5178V17.5179V17.518V17.5181V17.5181V17.5182V17.5183V17.5184V17.5185V17.5186V17.5187V17.5188V17.5189V17.519V17.5191V17.5192V17.5193V17.5193V17.5194V17.5195V17.5196V17.5197V17.5198V17.5199V17.52V17.5201V17.5202V17.5203V17.5204V17.5205V17.5206V17.5206V17.5207V17.5208V17.5209V17.521V17.5211V17.5212V17.5213V17.5214V17.5215V17.5216V17.5217V17.5218V17.5218V17.5219V17.522V17.5221V17.5222V17.5223V17.5224V17.5225V17.5226V17.5227V17.5228V17.5229V17.523V17.523V17.5231V17.5232V17.5233V17.5234V17.5235V17.5236V17.5237V17.5238V17.5239V17.524V17.5241V17.5242V17.5243V17.5243V17.5244V17.5245V17.5246V17.5247V17.5248V17.5249V17.525V17.5251V17.5252V17.5253V17.5254V17.5255V17.5255V17.5256V17.5257V17.5258V17.5259V17.526V17.5261V17.5262V17.5263V17.5264V17.5265V17.5266V17.5267V17.5267V17.5268V17.5269V17.527V17.5271V17.5272V17.5273V17.5274V17.5275V17.5276V17.5277V17.5278V17.5279V17.528V17.528V17.5281V17.5282V17.5283V17.5284V17.5285V17.5286V17.5287V17.5288V17.5289V17.529V17.5291V17.5292V17.5292V17.5293V17.5294V17.5295V17.5296V17.5297V17.5298V17.5299V17.53V17.5301V17.5302V17.5303V17.5304V17.5305V17.5305V17.5306V17.5307V17.5308V17.5309V17.531V17.5311V17.5312V17.5313V17.5314V17.5315V17.5316V17.5317V17.5317V17.5318V17.5319V17.532V17.5321V17.5322V17.5323V17.5324V17.5325V17.5326V17.5327V17.5328V17.5329V17.5329V17.533V17.5331V17.5332V17.5333V17.5334V17.5335V17.5336V17.5337V17.5338V17.5339V17.534V17.5341V17.5342V17.5342V17.5343V17.5344V17.5345V17.5346V17.5347V17.5348V17.5349V17.535V17.5351V17.5352V17.5353V17.5354V17.5354V17.5355V17.5356V17.5357V17.5358V17.5359V17.536V17.5361V17.5362V17.5363V17.5364V17.5365V17.5366V17.5366V17.5367V17.5368V17.5369V17.537V17.5371V17.5372V17.5373V17.5374V17.5375V17.5376V17.5377V17.5378V17.5379V17.5379V17.538V17.5381V17.5382V17.5383V17.5384V17.5385V17.5386V17.5387V17.5388V17.5389V17.539V17.5391V17.5391V17.5392V17.5393V17.5394V17.5395V17.5396V17.5397V17.5398V17.5399V17.54V17.5401V17.5402V17.5403V17.5403V17.5404V17.5405V17.5406V17.5407V17.5408V17.5409V17.541V17.5411V17.5412V17.5413V17.5414V17.5415V17.5416V17.5416V17.5417V17.5418V17.5419V17.542V17.5421V17.5422V17.5423V17.5424V17.5425V17.5426V17.5427V17.5428V17.5428V17.5429V17.543V17.5431V17.5432V17.5433V17.5434V17.5435V17.5436V17.5437V17.5438V17.5439V17.544V17.5441V17.5441V17.5442V17.5443V17.5444V17.5445V17.5446V17.5447V17.5448V17.5449V17.545V17.5451V17.5452V17.5453V17.5453V17.5454V17.5455V17.5456V17.5457V17.5458V17.5459V17.546V17.5461V17.5462V17.5463V17.5464V17.5465V17.5465V17.5466V17.5467V17.5468V17.5469V17.547V17.5471V17.5472V17.5473V17.5474V17.5475V17.5476V17.5477V17.5478V17.5478V17.5479V17.548V17.5481V17.5482V17.5483V17.5484V17.5485V17.5486V17.5487V17.5488V17.5489V17.549V17.549V17.5491V17.5492V17.5493V17.5494V17.5495V17.5496V17.5497C14.7626 17.6514 14.6815 17.7544 14.5579 17.7544H14.5421C13.8733 17.7544 13.3258 18.3018 13.3258 18.9707C13.3258 19.6396 13.8733 20.1871 14.5421 20.1871C14.5645 20.1871 14.5894 20.1924 14.6102 20.1994C14.6289 20.2056 14.6524 20.2158 14.6683 20.2308C14.9313 20.4548 15.1771 20.5621 15.4185 20.5621C15.6601 20.5621 15.9063 20.4545 16.1697 20.2299L16.1785 20.2224L16.1791 20.2236C16.1804 20.223 16.1816 20.2224 16.1829 20.2217C16.2116 20.2074 16.2519 20.1871 16.2948 20.1871H16.3106C16.3397 20.1871 16.3661 20.192 16.3908 20.203C16.4152 20.2139 16.4356 20.2296 16.4542 20.2482L16.4575 20.2515L16.4573 20.2516C16.7321 20.5876 17.1449 20.7713 17.5737 20.7713C17.9699 20.7713 18.3682 20.5883 18.6601 20.2657L18.6617 20.2639L18.6617 20.264C18.7026 20.2231 18.7622 20.2029 18.8053 20.2029C18.8569 20.2029 18.9285 20.2197 18.9568 20.2889C19.184 20.5576 19.531 20.7082 19.9106 20.7082C20.275 20.7082 20.6089 20.5569 20.8526 20.284C20.8972 20.2201 20.9804 20.2002 21.0441 20.2204C21.1452 20.2437 21.2423 20.263 21.3217 20.2766C21.403 20.2905 21.4624 20.2976 21.4895 20.2976C22.1584 20.2976 22.7059 19.7502 22.7059 19.0813V19.0801L22.7059 19.0801C22.7211 18.4891 22.2821 17.9735 21.6915 17.8964C21.6906 17.8963 21.6897 17.8962 21.6888 17.8961L21.6948 17.8497C21.6474 17.8497 21.6158 17.8181 21.6 17.7865L21.5217 17.6643ZM21.5217 17.6643V17.676C21.5217 17.6771 21.5217 17.6783 21.5217 17.6795C21.5216 17.7079 21.5214 17.7688 21.5616 17.814L21.5217 17.6643ZM20.5106 17.1702V17.1711L20.5197 17.1693C20.571 17.159 20.6172 17.1284 20.6458 17.0867C20.6742 17.0455 20.6862 16.9918 20.6665 16.9375C20.5515 16.2415 20.1157 15.9037 19.7088 15.7418C19.5056 15.6609 19.3094 15.6236 19.1633 15.6065C19.0901 15.598 19.0293 15.5944 18.9861 15.593C18.9645 15.5923 18.9472 15.5922 18.9351 15.5922L18.9208 15.5923L18.9168 15.5924C18.9158 15.5924 18.9156 15.5924 18.9156 15.5924L18.9158 15.5924C18.8601 15.5924 18.8124 15.6202 18.7798 15.6579C18.7473 15.6954 18.7269 15.7456 18.7269 15.7971C18.7269 15.8528 18.7548 15.9005 18.7924 15.9331C18.8299 15.9656 18.8801 15.986 18.9316 15.986C18.9329 15.986 18.9348 15.9859 18.9374 15.9859C18.9856 15.9851 19.2631 15.9808 19.5558 16.0971C19.8619 16.2188 20.1836 16.4718 20.275 17.005L20.275 17.005L20.2752 17.0062C20.2957 17.1087 20.3794 17.1702 20.479 17.1702H20.4791H20.4792H20.4793H20.4794H20.4794H20.4795H20.4796H20.4797H20.4798H20.4799H20.48H20.4801H20.4802H20.4803H20.4803H20.4804H20.4805H20.4806H20.4807H20.4808H20.4809H20.4809H20.481H20.4811H20.4812H20.4813H20.4814H20.4814H20.4815H20.4816H20.4817H20.4818H20.4819H20.4819H20.482H20.4821H20.4822H20.4823H20.4823H20.4824H20.4825H20.4826H20.4827H20.4827H20.4828H20.4829H20.483H20.483H20.4831H20.4832H20.4833H20.4833H20.4834H20.4835H20.4836H20.4836H20.4837H20.4838H20.4839H20.4839H20.484H20.4841H20.4842H20.4842H20.4843H20.4844H20.4844H20.4845H20.4846H20.4847H20.4847H20.4848H20.4849H20.4849H20.485H20.4851H20.4852H20.4852H20.4853H20.4854H20.4854H20.4855H20.4856H20.4856H20.4857H20.4858H20.4858H20.4859H20.486H20.486H20.4861H20.4862H20.4862H20.4863H20.4864H20.4864H20.4865H20.4865H20.4866H20.4867H20.4867H20.4868H20.4869H20.4869H20.487H20.487H20.4871H20.4872H20.4872H20.4873H20.4874H20.4874H20.4875H20.4875H20.4876H20.4877H20.4877H20.4878H20.4878H20.4879H20.488H20.488H20.4881H20.4881H20.4882H20.4882H20.4883H20.4884H20.4884H20.4885H20.4885H20.4886H20.4887H20.4887H20.4888H20.4888H20.4889H20.4889H20.489H20.489H20.4891H20.4892H20.4892H20.4893H20.4893H20.4894H20.4894H20.4895H20.4895H20.4896H20.4897H20.4897H20.4898H20.4898H20.4899H20.4899H20.49H20.49H20.4901H20.4901H20.4902H20.4902H20.4903H20.4903H20.4904H20.4904H20.4905H20.4905H20.4906H20.4907H20.4907H20.4908H20.4908H20.4909H20.4909H20.491H20.491H20.4911H20.4911H20.4912H20.4912H20.4913H20.4913H20.4914H20.4914H20.4915H20.4915H20.4916H20.4916H20.4917H20.4917H20.4918H20.4918H20.4919H20.4919H20.492H20.492H20.4921H20.4921H20.4921H20.4922H20.4922H20.4923H20.4923H20.4924H20.4924H20.4925H20.4925H20.4926H20.4926H20.4927H20.4927H20.4928H20.4928H20.4929H20.4929H20.493H20.493H20.4931H20.4931H20.4932H20.4932H20.4932H20.4933H20.4933H20.4934H20.4934H20.4935H20.4935H20.4936H20.4936H20.4937H20.4937H20.4938H20.4938H20.4939H20.4939H20.4939H20.494H20.494H20.4941H20.4941H20.4942H20.4942H20.4943H20.4943H20.4944H20.4944H20.4945H20.4945H20.4945H20.4946H20.4946H20.4947H20.4947H20.4948H20.4948H20.4949H20.4949H20.495H20.495H20.4951H20.4951H20.4952H20.4952H20.4952H20.4953H20.4953H20.4954H20.4954H20.4955H20.4955H20.4956H20.4956H20.4957H20.4957H20.4958H20.4958H20.4958H20.4959H20.4959H20.496H20.496H20.4961H20.4961H20.4962H20.4962H20.4963H20.4963H20.4964H20.4964H20.4965H20.4965H20.4966H20.4966H20.4966H20.4967H20.4967H20.4968H20.4968H20.4969H20.4969H20.497H20.497H20.4971H20.4971H20.4972H20.4972H20.4973H20.4973H20.4974H20.4974H20.4975H20.4975H20.4976H20.4976H20.4977H20.4977H20.4978H20.4978H20.4979H20.4979H20.498H20.498H20.498H20.4981H20.4981H20.4982H20.4982H20.4983H20.4983H20.4984H20.4984H20.4985H20.4986H20.4986H20.4987H20.4987H20.4988H20.4988H20.4989H20.4989H20.499H20.499H20.4991H20.4991H20.4992H20.4992H20.4993H20.4993H20.4994H20.4994H20.4995H20.4995H20.4996H20.4996H20.4997H20.4997H20.4998H20.4999H20.4999H20.5H20.5H20.5001H20.5001H20.5002H20.5002H20.5003H20.5003H20.5004H20.5005H20.5005H20.5006H20.5006H20.5007H20.5007H20.5008H20.5009H20.5009H20.501H20.501H20.5011H20.5011H20.5012H20.5013H20.5013H20.5014H20.5014H20.5015H20.5015H20.5016H20.5017H20.5017H20.5018H20.5018H20.5019H20.502H20.502H20.5021H20.5021H20.5022H20.5023H20.5023H20.5024H20.5025H20.5025H20.5026H20.5026H20.5027H20.5028H20.5028H20.5029H20.503H20.503H20.5031H20.5031H20.5032H20.5033H20.5033H20.5034H20.5035H20.5035H20.5036H20.5037H20.5037H20.5038H20.5039H20.5039H20.504H20.5041H20.5041H20.5042H20.5043H20.5043H20.5044H20.5045H20.5045H20.5046H20.5047H20.5048H20.5048H20.5049H20.505H20.505H20.5051H20.5052H20.5053H20.5053H20.5054H20.5055H20.5055H20.5056H20.5057H20.5058H20.5058H20.5059H20.506H20.5061H20.5061H20.5062H20.5063H20.5064H20.5064H20.5065H20.5066H20.5067H20.5068H20.5068H20.5069H20.507H20.5071H20.5071H20.5072H20.5073H20.5074H20.5075H20.5075H20.5076H20.5077H20.5078H20.5079H20.508H20.508H20.5081H20.5082H20.5083H20.5084H20.5085H20.5085H20.5086H20.5087H20.5088H20.5089H20.509H20.509H20.5091H20.5092H20.5093H20.5094H20.5095H20.5096H20.5097H20.5098H20.5098H20.5099H20.51H20.5101H20.5102H20.5103H20.5104H20.5105H20.5106Z" fill="white" stroke="black" stroke-width="0.0935673"/>
</svg>
