<svg width="33" height="25" viewBox="0 0 33 25" fill="none" xmlns="http://www.w3.org/2000/svg">
<mask id="path-1-outside-1_34_636" maskUnits="userSpaceOnUse" x="6.44202" y="0" width="21" height="25" fill="black">
<rect fill="white" x="6.44202" width="21" height="25"/>
<path fill-rule="evenodd" clip-rule="evenodd" d="M7.79426 21.051C14.4272 21.051 19.8043 15.674 19.8043 9.04099C19.8043 5.94843 18.6354 3.12887 16.7154 1.00001C22.2033 1.86071 26.4013 6.60985 26.4013 12.3395C26.4013 18.6789 21.2621 23.8181 14.9226 23.8181C12.0649 23.8181 9.45108 22.7738 7.44198 21.046C7.55899 21.0494 7.67643 21.051 7.79426 21.051Z"/>
</mask>
<path fill-rule="evenodd" clip-rule="evenodd" d="M7.79426 21.051C14.4272 21.051 19.8043 15.674 19.8043 9.04099C19.8043 5.94843 18.6354 3.12887 16.7154 1.00001C22.2033 1.86071 26.4013 6.60985 26.4013 12.3395C26.4013 18.6789 21.2621 23.8181 14.9226 23.8181C12.0649 23.8181 9.45108 22.7738 7.44198 21.046C7.55899 21.0494 7.67643 21.051 7.79426 21.051Z" fill="#DDDDDD"/>
<path d="M16.7154 1.00001L16.7464 0.80242L16.189 0.715005L16.5669 1.13396L16.7154 1.00001ZM7.44198 21.046L7.44773 20.8461L6.8839 20.8298L7.31157 21.1976L7.44198 21.046ZM19.6043 9.04099C19.6043 15.5635 14.3168 20.851 7.79426 20.851V21.251C14.5377 21.251 20.0043 15.7844 20.0043 9.04099H19.6043ZM16.5669 1.13396C18.4551 3.22751 19.6043 5.9998 19.6043 9.04099H20.0043C20.0043 5.89705 18.8158 3.03023 16.8639 0.866055L16.5669 1.13396ZM16.6844 1.19759C22.0766 2.04328 26.2013 6.70987 26.2013 12.3395H26.6013C26.6013 6.50983 22.3301 1.67815 16.7464 0.80242L16.6844 1.19759ZM26.2013 12.3395C26.2013 18.5685 21.1517 23.6181 14.9226 23.6181V24.0181C21.3726 24.0181 26.6013 18.7894 26.6013 12.3395H26.2013ZM14.9226 23.6181C12.1145 23.6181 9.54658 22.5921 7.57238 20.8943L7.31157 21.1976C9.35558 22.9555 12.0153 24.0181 14.9226 24.0181V23.6181ZM7.79426 20.851C7.67835 20.851 7.56283 20.8494 7.44773 20.8461L7.43622 21.2459C7.55515 21.2493 7.67451 21.251 7.79426 21.251V20.851Z" fill="black" mask="url(#path-1-outside-1_34_636)"/>
<path d="M19.4523 11.2547L19.4498 11.2648V11.2753C19.4498 11.2773 19.4497 11.2794 19.4497 11.2816C19.4496 11.3335 19.4493 11.4445 19.5225 11.5267C19.5618 11.5975 19.6396 11.6745 19.7592 11.6769C20.8352 11.8174 21.6349 12.7568 21.6073 13.8334L21.6073 13.8334V13.8356C21.6073 15.0543 20.6098 16.0517 19.3912 16.0517C19.3418 16.0517 19.2335 16.0387 19.0855 16.0134C18.9407 15.9887 18.7639 15.9534 18.5796 15.9109C18.4636 15.8743 18.3121 15.9105 18.2307 16.0268C17.7867 16.5242 17.1784 16.7997 16.5144 16.7997C15.8229 16.7997 15.1906 16.5253 14.7768 16.0359C14.7251 15.9098 14.5948 15.8791 14.5007 15.8791C14.4221 15.8791 14.3137 15.9158 14.2391 15.9904L14.239 15.9903L14.2362 15.9935C13.7043 16.5813 12.9787 16.9148 12.2569 16.9148C11.4755 16.9148 10.7236 16.5799 10.2229 15.9679L10.2232 15.9677L10.2172 15.9616C10.1834 15.9278 10.1462 15.8991 10.1016 15.8793C10.0567 15.8593 10.0086 15.8504 9.95554 15.8504H9.92677C9.8487 15.8504 9.77522 15.8872 9.72295 15.9134C9.72061 15.9146 9.71831 15.9158 9.71605 15.9169L9.70676 15.9215L9.69885 15.9283C9.21902 16.3376 8.77048 16.5336 8.3302 16.5336C7.89052 16.5336 7.44261 16.3381 6.96352 15.93C6.93449 15.9026 6.8916 15.884 6.85766 15.8727C6.81969 15.8601 6.77431 15.8504 6.73362 15.8504C5.51494 15.8504 4.51749 14.8529 4.51749 13.6342C4.51749 12.4156 5.51494 11.4181 6.73362 11.4181H6.76239C6.98751 11.4181 7.13529 11.2305 7.13529 11.0452V11.045V11.0449V11.0447V11.0445V11.0444V11.0442V11.044V11.0438V11.0437V11.0435V11.0433V11.0432V11.043V11.0428V11.0427V11.0425V11.0423V11.0422V11.042V11.0418V11.0417V11.0415V11.0413V11.0411V11.041V11.0408V11.0406V11.0405V11.0403V11.0401V11.04V11.0398V11.0396V11.0395V11.0393V11.0391V11.039V11.0388V11.0386V11.0385V11.0383V11.0381V11.0379V11.0378V11.0376V11.0374V11.0373V11.0371V11.0369V11.0368V11.0366V11.0364V11.0363V11.0361V11.0359V11.0358V11.0356V11.0354V11.0352V11.0351V11.0349V11.0347V11.0346V11.0344V11.0342V11.0341V11.0339V11.0337V11.0336V11.0334V11.0332V11.0331V11.0329V11.0327V11.0326V11.0324V11.0322V11.032V11.0319V11.0317V11.0315V11.0314V11.0312V11.031V11.0309V11.0307V11.0305V11.0304V11.0302V11.03V11.0299V11.0297V11.0295V11.0293V11.0292V11.029V11.0288V11.0287V11.0285V11.0283V11.0282V11.028V11.0278V11.0277V11.0275V11.0273V11.0272V11.027V11.0268V11.0267V11.0265V11.0263V11.0261V11.026V11.0258V11.0256V11.0255V11.0253V11.0251V11.025V11.0248V11.0246V11.0245V11.0243V11.0241V11.024V11.0238V11.0236V11.0234V11.0233V11.0231V11.0229V11.0228V11.0226V11.0224V11.0223V11.0221V11.0219V11.0218V11.0216V11.0214V11.0213V11.0211V11.0209V11.0208V11.0206V11.0204V11.0202V11.0201V11.0199V11.0197V11.0196V11.0194V11.0192V11.0191V11.0189V11.0187V11.0186V11.0184V11.0182V11.0181V11.0179V11.0177V11.0176V11.0174V11.0172V11.017V11.0169V11.0167V11.0165V11.0164V11.0162V11.016V11.0159V11.0157V11.0155V11.0154V11.0152V11.015V11.0149V11.0147V11.0145V11.0143V11.0142V11.014V11.0138V11.0137V11.0135V11.0133V11.0132V11.013V11.0128V11.0127V11.0125V11.0123V11.0122V11.012V11.0118V11.0117V11.0115V11.0113V11.0111V11.011V11.0108V11.0106V11.0105V11.0103V11.0101V11.01V11.0098V11.0096V11.0095V11.0093V11.0091V11.009V11.0088V11.0086V11.0084V11.0083V11.0081V11.0079V11.0078V11.0076V11.0074V11.0073V11.0071V11.0069V11.0068V11.0066V11.0064V11.0063V11.0061V11.0059V11.0058V11.0056V11.0054V11.0052V11.0051V11.0049V11.0047V11.0046V11.0044V11.0042V11.0041V11.0039V11.0037V11.0036V11.0034V11.0032V11.0031V11.0029V11.0027V11.0025V11.0024V11.0022V11.002V11.0019V11.0017V11.0015V11.0014V11.0012V11.001V11.0009V11.0007V11.0005V11.0004V11.0002V11V10.9999V10.9997V10.9995V10.9993V10.9992V10.999V10.9988V10.9987V10.9985V10.9983V10.9982V10.998V10.9978V10.9977V10.9975V10.9973V10.9972V10.997V10.9968V10.9966V10.9965V10.9963V10.9961V10.996V10.9958V10.9956V10.9955V10.9953V10.9951V10.995V10.9948V10.9946V10.9945V10.9943V10.9941V10.994V10.9938V10.9936V10.9934V10.9933V10.9931V10.9929V10.9928V10.9926V10.9924V10.9923V10.9921V10.9919V10.9918V10.9916V10.9914V10.9913V10.9911V10.9909V10.9907V10.9906V10.9904V10.9902V10.9901V10.9899V10.9897V10.9896V10.9894V10.9892V10.9891V10.9889V10.9887V10.9886V10.9884V10.9882V10.9881V10.9879V10.9877V10.9875V10.9874V10.9872V10.987V10.9869V10.9867V10.9865V10.9864V10.9862V10.986V10.9859V10.9857V10.9855V10.9854V10.9852V10.985V10.9848V10.9847V10.9845V10.9843V10.9842V10.984V10.9838V10.9837V10.9835V10.9833V10.9832V10.983V10.9828V10.9827V10.9825V10.9823V10.9822V10.982V10.9818V10.9816V10.9815V10.9813V10.9811V10.981V10.9808V10.9806V10.9805V10.9803V10.9801V10.98V10.9798V10.9796V10.9795V10.9793V10.9791V10.979V10.9788V10.9786V10.9784V10.9783V10.9781V10.9779V10.9778V10.9776V10.9774V10.9773V10.9771V10.9769V10.9768V10.9766V10.9764V10.9763V10.9761V10.9759V10.9757V10.9756V10.9754V10.9752V10.9751V10.9749V10.9747V10.9746V10.9744V10.9742V10.9741V10.9739V10.9737V10.9736V10.9734V10.9732V10.9731V10.9729V10.9727V10.9725V10.9724V10.9722V10.972V10.9719V10.9717V10.9715V10.9714V10.9712V10.971V10.9709V10.9707V10.9705V10.9704V10.9702V10.97V10.9698V10.9697V10.9695V10.9693V10.9692V10.969V10.9688V10.9687V10.9685V10.9683V10.9682V10.968V10.9678V10.9677V10.9675V10.9673V10.9672V10.967V10.9668V10.9666V10.9665V10.9663V10.9661V10.966V10.9658V10.9656V10.9655V10.9653V10.9651V10.965V10.9648V10.9646V10.9645V10.9643V10.9641V10.9639V10.9638V10.9636V10.9634V10.9633V10.9631V10.9629V10.9628V10.9626V10.9624V10.9623V10.9621V10.9619V10.9618V10.9616V10.9614V10.9613V10.9611V10.9609V10.9607V10.9606V10.9604V10.9602V10.9601V10.9599V10.9597V10.9596V10.9594V10.9592V10.9591V10.9589V10.9505L7.13364 10.9422C7.10685 10.8082 7.10653 10.6446 7.10653 10.4986C7.10653 9.27994 8.10398 8.28248 9.32266 8.28248C9.82175 8.28248 10.2618 8.42019 10.6472 8.72167C10.7243 8.79619 10.8415 8.83563 10.9606 8.79592L10.9608 8.79674L10.9717 8.79129C10.9763 8.789 10.9824 8.78618 10.9894 8.7829C11.0132 8.77177 11.0485 8.75528 11.078 8.73563C11.119 8.70832 11.162 8.66766 11.1849 8.60449C11.9481 7.0825 13.442 6.15372 15.1336 6.15372C17.5318 6.15372 19.5073 8.12926 19.5073 10.5274C19.5073 10.7888 19.5068 11.0366 19.4523 11.2547ZM17.6076 10.3537H17.616L17.6243 10.3521C17.7178 10.3334 17.8018 10.2777 17.854 10.2017C17.9056 10.1267 17.9276 10.0288 17.8917 9.92979C17.6822 8.66177 16.8882 8.04633 16.1468 7.75127C15.7766 7.60393 15.4192 7.53604 15.153 7.50489C15.0197 7.48929 14.9088 7.48284 14.8301 7.4803C14.7907 7.47903 14.7593 7.47874 14.7372 7.47877L14.7111 7.47897L14.7038 7.4791C14.7022 7.47913 14.7017 7.47913 14.7017 7.47914H14.7021C14.6006 7.47914 14.5137 7.52988 14.4543 7.59845C14.3951 7.66677 14.358 7.7582 14.358 7.85204C14.358 7.95358 14.4087 8.04042 14.4773 8.09985C14.5456 8.15906 14.637 8.19618 14.7309 8.19618C14.7331 8.19618 14.7367 8.19613 14.7414 8.19605C14.8293 8.19468 15.3349 8.18677 15.8681 8.39872C16.4257 8.6204 17.0118 9.08132 17.1784 10.0527L17.1783 10.0528L17.1788 10.0551C17.2161 10.2417 17.3687 10.3537 17.5501 10.3537H17.5502H17.5504H17.5506H17.5507H17.5509H17.5511H17.5512H17.5514H17.5515H17.5517H17.5519H17.552H17.5522H17.5524H17.5525H17.5527H17.5528H17.553H17.5531H17.5533H17.5535H17.5536H17.5538H17.5539H17.5541H17.5542H17.5544H17.5545H17.5547H17.5548H17.555H17.5551H17.5553H17.5554H17.5556H17.5557H17.5559H17.556H17.5562H17.5563H17.5564H17.5566H17.5567H17.5569H17.557H17.5572H17.5573H17.5574H17.5576H17.5577H17.5579H17.558H17.5581H17.5583H17.5584H17.5585H17.5587H17.5588H17.5589H17.5591H17.5592H17.5593H17.5595H17.5596H17.5597H17.5599H17.56H17.5601H17.5603H17.5604H17.5605H17.5606H17.5608H17.5609H17.561H17.5612H17.5613H17.5614H17.5615H17.5617H17.5618H17.5619H17.562H17.5621H17.5623H17.5624H17.5625H17.5626H17.5628H17.5629H17.563H17.5631H17.5632H17.5633H17.5635H17.5636H17.5637H17.5638H17.5639H17.564H17.5642H17.5643H17.5644H17.5645H17.5646H17.5647H17.5648H17.565H17.5651H17.5652H17.5653H17.5654H17.5655H17.5656H17.5657H17.5658H17.566H17.5661H17.5662H17.5663H17.5664H17.5665H17.5666H17.5667H17.5668H17.5669H17.567H17.5671H17.5672H17.5673H17.5675H17.5676H17.5677H17.5678H17.5679H17.568H17.5681H17.5682H17.5683H17.5684H17.5685H17.5686H17.5687H17.5688H17.5689H17.569H17.5691H17.5692H17.5693H17.5694H17.5695H17.5696H17.5697H17.5698H17.5699H17.57H17.5701H17.5702H17.5703H17.5704H17.5705H17.5705H17.5706H17.5707H17.5708H17.5709H17.571H17.5711H17.5712H17.5713H17.5714H17.5715H17.5716H17.5717H17.5718H17.5719H17.572H17.572H17.5721H17.5722H17.5723H17.5724H17.5725H17.5726H17.5727H17.5728H17.5729H17.573H17.573H17.5731H17.5732H17.5733H17.5734H17.5735H17.5736H17.5737H17.5738H17.5739H17.5739H17.574H17.5741H17.5742H17.5743H17.5744H17.5745H17.5746H17.5746H17.5747H17.5748H17.5749H17.575H17.5751H17.5752H17.5753H17.5753H17.5754H17.5755H17.5756H17.5757H17.5758H17.5759H17.5759H17.576H17.5761H17.5762H17.5763H17.5764H17.5765H17.5765H17.5766H17.5767H17.5768H17.5769H17.577H17.5771H17.5771H17.5772H17.5773H17.5774H17.5775H17.5776H17.5776H17.5777H17.5778H17.5779H17.578H17.5781H17.5782H17.5782H17.5783H17.5784H17.5785H17.5786H17.5787H17.5787H17.5788H17.5789H17.579H17.5791H17.5792H17.5792H17.5793H17.5794H17.5795H17.5796H17.5797H17.5798H17.5798H17.5799H17.58H17.5801H17.5802H17.5803H17.5803H17.5804H17.5805H17.5806H17.5807H17.5808H17.5809H17.5809H17.581H17.5811H17.5812H17.5813H17.5814H17.5815H17.5815H17.5816H17.5817H17.5818H17.5819H17.582H17.5821H17.5821H17.5822H17.5823H17.5824H17.5825H17.5826H17.5827H17.5827H17.5828H17.5829H17.583H17.5831H17.5832H17.5833H17.5834H17.5834H17.5835H17.5836H17.5837H17.5838H17.5839H17.584H17.5841H17.5842H17.5842H17.5843H17.5844H17.5845H17.5846H17.5847H17.5848H17.5849H17.585H17.5851H17.5851H17.5852H17.5853H17.5854H17.5855H17.5856H17.5857H17.5858H17.5859H17.586H17.5861H17.5862H17.5863H17.5863H17.5864H17.5865H17.5866H17.5867H17.5868H17.5869H17.587H17.5871H17.5872H17.5873H17.5874H17.5875H17.5876H17.5877H17.5878H17.5879H17.588H17.5881H17.5882H17.5883H17.5884H17.5885H17.5886H17.5887H17.5888H17.5889H17.589H17.5891H17.5892H17.5893H17.5894H17.5895H17.5896H17.5897H17.5898H17.5899H17.59H17.5901H17.5902H17.5903H17.5904H17.5905H17.5906H17.5907H17.5908H17.5909H17.591H17.5911H17.5913H17.5914H17.5915H17.5916H17.5917H17.5918H17.5919H17.592H17.5921H17.5922H17.5924H17.5925H17.5926H17.5927H17.5928H17.5929H17.593H17.5931H17.5933H17.5934H17.5935H17.5936H17.5937H17.5938H17.5939H17.5941H17.5942H17.5943H17.5944H17.5945H17.5947H17.5948H17.5949H17.595H17.5951H17.5953H17.5954H17.5955H17.5956H17.5957H17.5959H17.596H17.5961H17.5962H17.5964H17.5965H17.5966H17.5967H17.5969H17.597H17.5971H17.5973H17.5974H17.5975H17.5976H17.5978H17.5979H17.598H17.5982H17.5983H17.5984H17.5986H17.5987H17.5988H17.599H17.5991H17.5992H17.5994H17.5995H17.5997H17.5998H17.5999H17.6001H17.6002H17.6004H17.6005H17.6006H17.6008H17.6009H17.6011H17.6012H17.6013H17.6015H17.6016H17.6018H17.6019H17.6021H17.6022H17.6024H17.6025H17.6027H17.6028H17.603H17.6031H17.6033H17.6034H17.6036H17.6037H17.6039H17.604H17.6042H17.6043H17.6045H17.6047H17.6048H17.605H17.6051H17.6053H17.6055H17.6056H17.6058H17.6059H17.6061H17.6063H17.6064H17.6066H17.6068H17.6069H17.6071H17.6073H17.6074H17.6076Z" fill="white" stroke="black" stroke-width="0.170472"/>
<path d="M15.02 8.18618L15.0175 8.19636V8.20685C15.0175 8.20884 15.0175 8.21095 15.0175 8.21316C15.0173 8.26502 15.017 8.37598 15.0903 8.4582C15.1295 8.52897 15.2074 8.60597 15.3269 8.60846C16.403 8.74893 17.2027 9.68832 17.1751 10.7649L17.175 10.7649V10.7671C17.175 11.9858 16.1776 12.9833 14.9589 12.9833C14.9096 12.9833 14.8013 12.9702 14.6532 12.9449C14.5085 12.9202 14.3317 12.8849 14.1474 12.8424C14.0313 12.8058 13.8798 12.842 13.7985 12.9583C13.3545 13.4557 12.7461 13.7312 12.0822 13.7312C11.3906 13.7312 10.7584 13.4568 10.3446 12.9674C10.2929 12.8413 10.1625 12.8107 10.0685 12.8107C9.98987 12.8107 9.88142 12.8474 9.80685 12.9219L9.80678 12.9218L9.80392 12.925C9.27208 13.5128 8.54648 13.8463 7.82466 13.8463C7.04329 13.8463 6.29135 13.5114 5.79063 12.8995L5.79096 12.8992L5.78493 12.8932C5.75113 12.8594 5.71394 12.8306 5.66938 12.8108C5.62444 12.7908 5.57638 12.7819 5.52329 12.7819H5.49452C5.41645 12.7819 5.34297 12.8187 5.2907 12.845C5.28836 12.8461 5.28606 12.8473 5.2838 12.8484L5.27451 12.8531L5.2666 12.8598C4.78677 13.2691 4.33823 13.4651 3.89794 13.4651C3.45827 13.4651 3.01036 13.2696 2.53127 12.8615C2.50224 12.8341 2.45935 12.8156 2.42541 12.8042C2.38744 12.7916 2.34206 12.7819 2.30137 12.7819C1.08269 12.7819 0.0852359 11.7844 0.0852359 10.5658C0.0852359 9.34707 1.08269 8.34962 2.30137 8.34962H2.33014C2.55526 8.34962 2.70304 8.16199 2.70304 7.97671V7.97654V7.97638V7.97621V7.97604V7.97587V7.9757V7.97553V7.97536V7.9752V7.97503V7.97486V7.97469V7.97452V7.97435V7.97418V7.97402V7.97385V7.97368V7.97351V7.97334V7.97317V7.973V7.97284V7.97267V7.9725V7.97233V7.97216V7.97199V7.97182V7.97166V7.97149V7.97132V7.97115V7.97098V7.97081V7.97064V7.97048V7.97031V7.97014V7.96997V7.9698V7.96963V7.96946V7.9693V7.96913V7.96896V7.96879V7.96862V7.96845V7.96828V7.96812V7.96795V7.96778V7.96761V7.96744V7.96727V7.9671V7.96694V7.96677V7.9666V7.96643V7.96626V7.96609V7.96592V7.96576V7.96559V7.96542V7.96525V7.96508V7.96491V7.96474V7.96458V7.96441V7.96424V7.96407V7.9639V7.96373V7.96356V7.9634V7.96323V7.96306V7.96289V7.96272V7.96255V7.96238V7.96222V7.96205V7.96188V7.96171V7.96154V7.96137V7.96121V7.96104V7.96087V7.9607V7.96053V7.96036V7.96019V7.96002V7.95986V7.95969V7.95952V7.95935V7.95918V7.95901V7.95885V7.95868V7.95851V7.95834V7.95817V7.958V7.95783V7.95767V7.9575V7.95733V7.95716V7.95699V7.95682V7.95665V7.95649V7.95632V7.95615V7.95598V7.95581V7.95564V7.95547V7.95531V7.95514V7.95497V7.9548V7.95463V7.95446V7.95429V7.95413V7.95396V7.95379V7.95362V7.95345V7.95328V7.95311V7.95295V7.95278V7.95261V7.95244V7.95227V7.9521V7.95193V7.95177V7.9516V7.95143V7.95126V7.95109V7.95092V7.95075V7.95059V7.95042V7.95025V7.95008V7.94991V7.94974V7.94957V7.94941V7.94924V7.94907V7.9489V7.94873V7.94856V7.94839V7.94823V7.94806V7.94789V7.94772V7.94755V7.94738V7.94721V7.94705V7.94688V7.94671V7.94654V7.94637V7.9462V7.94603V7.94587V7.9457V7.94553V7.94536V7.94519V7.94502V7.94485V7.94469V7.94452V7.94435V7.94418V7.94401V7.94384V7.94368V7.94351V7.94334V7.94317V7.943V7.94283V7.94266V7.94249V7.94233V7.94216V7.94199V7.94182V7.94165V7.94148V7.94132V7.94115V7.94098V7.94081V7.94064V7.94047V7.9403V7.94014V7.93997V7.9398V7.93963V7.93946V7.93929V7.93912V7.93896V7.93879V7.93862V7.93845V7.93828V7.93811V7.93794V7.93778V7.93761V7.93744V7.93727V7.9371V7.93693V7.93676V7.9366V7.93643V7.93626V7.93609V7.93592V7.93575V7.93558V7.93542V7.93525V7.93508V7.93491V7.93474V7.93457V7.9344V7.93424V7.93407V7.9339V7.93373V7.93356V7.93339V7.93322V7.93306V7.93289V7.93272V7.93255V7.93238V7.93221V7.93204V7.93188V7.93171V7.93154V7.93137V7.9312V7.93103V7.93086V7.9307V7.93053V7.93036V7.93019V7.93002V7.92985V7.92968V7.92952V7.92935V7.92918V7.92901V7.92884V7.92867V7.9285V7.92834V7.92817V7.928V7.92783V7.92766V7.92749V7.92732V7.92716V7.92699V7.92682V7.92665V7.92648V7.92631V7.92615V7.92598V7.92581V7.92564V7.92547V7.9253V7.92513V7.92496V7.9248V7.92463V7.92446V7.92429V7.92412V7.92395V7.92379V7.92362V7.92345V7.92328V7.92311V7.92294V7.92277V7.92261V7.92244V7.92227V7.9221V7.92193V7.92176V7.92159V7.92143V7.92126V7.92109V7.92092V7.92075V7.92058V7.92041V7.92025V7.92008V7.91991V7.91974V7.91957V7.9194V7.91923V7.91907V7.9189V7.91873V7.91856V7.91839V7.91822V7.91805V7.91789V7.91772V7.91755V7.91738V7.91721V7.91704V7.91687V7.91671V7.91654V7.91637V7.9162V7.91603V7.91586V7.91569V7.91553V7.91536V7.91519V7.91502V7.91485V7.91468V7.91451V7.91435V7.91418V7.91401V7.91384V7.91367V7.9135V7.91333V7.91317V7.913V7.91283V7.91266V7.91249V7.91232V7.91215V7.91199V7.91182V7.91165V7.91148V7.91131V7.91114V7.91097V7.91081V7.91064V7.91047V7.9103V7.91013V7.90996V7.90979V7.90963V7.90946V7.90929V7.90912V7.90895V7.90878V7.90862V7.90845V7.90828V7.90811V7.90794V7.90777V7.9076V7.90744V7.90727V7.9071V7.90693V7.90676V7.90659V7.90642V7.90626V7.90609V7.90592V7.90575V7.90558V7.90541V7.90524V7.90508V7.90491V7.90474V7.90457V7.9044V7.90423V7.90406V7.9039V7.90373V7.90356V7.90339V7.90322V7.90305V7.90288V7.90272V7.90255V7.90238V7.90221V7.90204V7.90187V7.9017V7.90154V7.90137V7.9012V7.90103V7.90086V7.90069V7.90052V7.90036V7.90019V7.90002V7.89985V7.89968V7.89951V7.89934V7.89918V7.89901V7.89884V7.89867V7.8985V7.89833V7.89816V7.898V7.89783V7.89766V7.89749V7.89732V7.89715V7.89698V7.89682V7.89665V7.89648V7.89631V7.89614V7.89597V7.8958V7.89564V7.89547V7.8953V7.89513V7.89496V7.89479V7.89462V7.89446V7.89429V7.89412V7.89395V7.89378V7.89361V7.89345V7.89328V7.89311V7.89294V7.89277V7.8926V7.89243V7.89226V7.8921V7.89193V7.89176V7.89159V7.89142V7.89125V7.89109V7.89092V7.89075V7.89058V7.89041V7.88197L2.70139 7.87369C2.67459 7.73972 2.67428 7.57608 2.67428 7.43014C2.67428 6.21146 3.67173 5.214 4.89041 5.214C5.3895 5.214 5.82953 5.35171 6.21491 5.65319C6.29201 5.72771 6.4092 5.76714 6.52832 5.72744L6.5286 5.72826L6.53949 5.72281C6.54408 5.72052 6.55011 5.7177 6.55714 5.71442C6.58097 5.70329 6.61627 5.6868 6.64574 5.66715C6.68671 5.63984 6.72973 5.59918 6.75264 5.53601C7.51582 4.01402 9.00978 3.08524 10.7014 3.08524C13.0995 3.08524 15.075 5.06077 15.075 7.4589C15.075 7.72031 15.0746 7.96813 15.02 8.18618ZM13.1753 7.28524H13.1838L13.1921 7.28358C13.2855 7.26489 13.3695 7.20922 13.4218 7.13322C13.4734 7.05817 13.4954 6.96031 13.4594 6.8613C13.2499 5.59329 12.4559 4.97785 11.7146 4.68279C11.3444 4.53544 10.9869 4.46756 10.7207 4.4364C10.5874 4.4208 10.4766 4.41436 10.3978 4.41182C10.3585 4.41055 10.3271 4.41026 10.305 4.41029L10.2789 4.41049L10.2715 4.41062C10.27 4.41065 10.2695 4.41065 10.2695 4.41065H10.2699C10.1683 4.41065 10.0815 4.4614 10.0221 4.52996C9.96284 4.59829 9.92572 4.68971 9.92572 4.78356C9.92572 4.8851 9.97646 4.97194 10.045 5.03136C10.1134 5.09058 10.2048 5.1277 10.2986 5.1277C10.3009 5.1277 10.3044 5.12765 10.3092 5.12757C10.397 5.1262 10.9026 5.11829 11.4358 5.33023C11.9935 5.55192 12.5796 6.01284 12.7461 6.98426L12.7461 6.98427L12.7466 6.98658C12.7839 7.17321 12.9364 7.28524 13.1178 7.28524H13.118H13.1181H13.1183H13.1185H13.1186H13.1188H13.119H13.1191H13.1193H13.1195H13.1196H13.1198H13.1199H13.1201H13.1203H13.1204H13.1206H13.1207H13.1209H13.121H13.1212H13.1214H13.1215H13.1217H13.1218H13.122H13.1221H13.1223H13.1224H13.1226H13.1227H13.1229H13.123H13.1232H13.1233H13.1235H13.1236H13.1238H13.1239H13.124H13.1242H13.1243H13.1245H13.1246H13.1248H13.1249H13.125H13.1252H13.1253H13.1255H13.1256H13.1257H13.1259H13.126H13.1262H13.1263H13.1264H13.1266H13.1267H13.1268H13.127H13.1271H13.1272H13.1274H13.1275H13.1276H13.1278H13.1279H13.128H13.1281H13.1283H13.1284H13.1285H13.1287H13.1288H13.1289H13.129H13.1292H13.1293H13.1294H13.1295H13.1297H13.1298H13.1299H13.13H13.1301H13.1303H13.1304H13.1305H13.1306H13.1307H13.1309H13.131H13.1311H13.1312H13.1313H13.1315H13.1316H13.1317H13.1318H13.1319H13.132H13.1321H13.1323H13.1324H13.1325H13.1326H13.1327H13.1328H13.1329H13.133H13.1332H13.1333H13.1334H13.1335H13.1336H13.1337H13.1338H13.1339H13.134H13.1341H13.1342H13.1344H13.1345H13.1346H13.1347H13.1348H13.1349H13.135H13.1351H13.1352H13.1353H13.1354H13.1355H13.1356H13.1357H13.1358H13.1359H13.136H13.1361H13.1362H13.1363H13.1364H13.1365H13.1366H13.1367H13.1368H13.1369H13.137H13.1371H13.1372H13.1373H13.1374H13.1375H13.1376H13.1377H13.1378H13.1379H13.138H13.1381H13.1382H13.1383H13.1384H13.1385H13.1386H13.1387H13.1388H13.1389H13.139H13.1391H13.1391H13.1392H13.1393H13.1394H13.1395H13.1396H13.1397H13.1398H13.1399H13.14H13.1401H13.1402H13.1403H13.1403H13.1404H13.1405H13.1406H13.1407H13.1408H13.1409H13.141H13.1411H13.1412H13.1412H13.1413H13.1414H13.1415H13.1416H13.1417H13.1418H13.1419H13.142H13.142H13.1421H13.1422H13.1423H13.1424H13.1425H13.1426H13.1427H13.1427H13.1428H13.1429H13.143H13.1431H13.1432H13.1433H13.1433H13.1434H13.1435H13.1436H13.1437H13.1438H13.1439H13.1439H13.144H13.1441H13.1442H13.1443H13.1444H13.1445H13.1445H13.1446H13.1447H13.1448H13.1449H13.145H13.1451H13.1451H13.1452H13.1453H13.1454H13.1455H13.1456H13.1456H13.1457H13.1458H13.1459H13.146H13.1461H13.1462H13.1462H13.1463H13.1464H13.1465H13.1466H13.1467H13.1467H13.1468H13.1469H13.147H13.1471H13.1472H13.1472H13.1473H13.1474H13.1475H13.1476H13.1477H13.1478H13.1478H13.1479H13.148H13.1481H13.1482H13.1483H13.1483H13.1484H13.1485H13.1486H13.1487H13.1488H13.1489H13.1489H13.149H13.1491H13.1492H13.1493H13.1494H13.1495H13.1495H13.1496H13.1497H13.1498H13.1499H13.15H13.1501H13.1501H13.1502H13.1503H13.1504H13.1505H13.1506H13.1507H13.1508H13.1508H13.1509H13.151H13.1511H13.1512H13.1513H13.1514H13.1515H13.1515H13.1516H13.1517H13.1518H13.1519H13.152H13.1521H13.1522H13.1523H13.1523H13.1524H13.1525H13.1526H13.1527H13.1528H13.1529H13.153H13.1531H13.1532H13.1533H13.1534H13.1534H13.1535H13.1536H13.1537H13.1538H13.1539H13.154H13.1541H13.1542H13.1543H13.1544H13.1545H13.1546H13.1547H13.1548H13.1549H13.1549H13.155H13.1551H13.1552H13.1553H13.1554H13.1555H13.1556H13.1557H13.1558H13.1559H13.156H13.1561H13.1562H13.1563H13.1564H13.1565H13.1566H13.1567H13.1568H13.1569H13.157H13.1571H13.1572H13.1573H13.1574H13.1575H13.1576H13.1577H13.1578H13.1579H13.1581H13.1582H13.1583H13.1584H13.1585H13.1586H13.1587H13.1588H13.1589H13.159H13.1591H13.1592H13.1593H13.1594H13.1595H13.1597H13.1598H13.1599H13.16H13.1601H13.1602H13.1603H13.1604H13.1605H13.1607H13.1608H13.1609H13.161H13.1611H13.1612H13.1613H13.1615H13.1616H13.1617H13.1618H13.1619H13.162H13.1622H13.1623H13.1624H13.1625H13.1626H13.1628H13.1629H13.163H13.1631H13.1633H13.1634H13.1635H13.1636H13.1637H13.1639H13.164H13.1641H13.1642H13.1644H13.1645H13.1646H13.1648H13.1649H13.165H13.1651H13.1653H13.1654H13.1655H13.1657H13.1658H13.1659H13.1661H13.1662H13.1663H13.1665H13.1666H13.1667H13.1669H13.167H13.1671H13.1673H13.1674H13.1675H13.1677H13.1678H13.168H13.1681H13.1682H13.1684H13.1685H13.1687H13.1688H13.169H13.1691H13.1692H13.1694H13.1695H13.1697H13.1698H13.17H13.1701H13.1703H13.1704H13.1706H13.1707H13.1709H13.171H13.1712H13.1713H13.1715H13.1716H13.1718H13.1719H13.1721H13.1723H13.1724H13.1726H13.1727H13.1729H13.173H13.1732H13.1734H13.1735H13.1737H13.1739H13.174H13.1742H13.1743H13.1745H13.1747H13.1748H13.175H13.1752H13.1753Z" fill="white" stroke="black" stroke-width="0.170472"/>
<path d="M31.2427 14.8462L31.2441 14.8465C31.274 14.7269 31.2743 14.5908 31.2743 14.4474C31.2743 13.1311 30.19 12.0468 28.8737 12.0468C27.9452 12.0468 27.1252 12.5566 26.7063 13.3919C26.6938 13.4266 26.6701 13.4489 26.6477 13.4639C26.6315 13.4747 26.6121 13.4838 26.599 13.4899C26.5952 13.4917 26.5919 13.4932 26.5893 13.4945L26.5834 13.4975L26.5832 13.497C26.5178 13.5188 26.4535 13.4972 26.4112 13.4563C26.1997 13.2908 25.9581 13.2152 25.6842 13.2152C25.0153 13.2152 24.4678 13.7627 24.4678 14.4316C24.4678 14.5117 24.468 14.6015 24.4827 14.675L24.4846 14.6842H24.4836V14.6843V14.6844V14.6845V14.6846V14.6847V14.6848V14.6849V14.685V14.685V14.6851V14.6852V14.6853V14.6854V14.6855V14.6856V14.6857V14.6858V14.6859V14.686V14.6861V14.6862V14.6862V14.6863V14.6864V14.6865V14.6866V14.6867V14.6868V14.6869V14.687V14.6871V14.6872V14.6873V14.6874V14.6874V14.6875V14.6876V14.6877V14.6878V14.6879V14.688V14.6881V14.6882V14.6883V14.6884V14.6885V14.6886V14.6887V14.6887V14.6888V14.6889V14.689V14.6891V14.6892V14.6893V14.6894V14.6895V14.6896V14.6897V14.6898V14.6899V14.6899V14.69V14.6901V14.6902V14.6903V14.6904V14.6905V14.6906V14.6907V14.6908V14.6909V14.691V14.6911V14.6911V14.6912V14.6913V14.6914V14.6915V14.6916V14.6917V14.6918V14.6919V14.692V14.6921V14.6922V14.6923V14.6924V14.6924V14.6925V14.6926V14.6927V14.6928V14.6929V14.693V14.6931V14.6932V14.6933V14.6934V14.6935V14.6936V14.6936V14.6937V14.6938V14.6939V14.694V14.6941V14.6942V14.6943V14.6944V14.6945V14.6946V14.6947V14.6948V14.6948V14.6949V14.695V14.6951V14.6952V14.6953V14.6954V14.6955V14.6956V14.6957V14.6958V14.6959V14.696V14.6961V14.6961V14.6962V14.6963V14.6964V14.6965V14.6966V14.6967V14.6968V14.6969V14.697V14.6971V14.6972V14.6973V14.6973V14.6974V14.6975V14.6976V14.6977V14.6978V14.6979V14.698V14.6981V14.6982V14.6983V14.6984V14.6985V14.6986V14.6986V14.6987V14.6988V14.6989V14.699V14.6991V14.6992V14.6993V14.6994V14.6995V14.6996V14.6997V14.6998V14.6998V14.6999V14.7V14.7001V14.7002V14.7003V14.7004V14.7005V14.7006V14.7007V14.7008V14.7009V14.701V14.701V14.7011V14.7012V14.7013V14.7014V14.7015V14.7016V14.7017V14.7018V14.7019V14.702V14.7021V14.7022V14.7023V14.7023V14.7024V14.7025V14.7026V14.7027V14.7028V14.7029V14.703V14.7031V14.7032V14.7033V14.7034V14.7035V14.7035V14.7036V14.7037V14.7038V14.7039V14.704V14.7041V14.7042V14.7043V14.7044V14.7045V14.7046V14.7047V14.7047V14.7048V14.7049V14.705V14.7051V14.7052V14.7053V14.7054V14.7055V14.7056V14.7057V14.7058V14.7059V14.706V14.706V14.7061V14.7062V14.7063V14.7064V14.7065V14.7066V14.7067V14.7068V14.7069V14.707V14.7071V14.7072V14.7072V14.7073V14.7074V14.7075V14.7076V14.7077V14.7078V14.7079V14.708V14.7081V14.7082V14.7083V14.7084V14.7084V14.7085V14.7086V14.7087V14.7088V14.7089V14.709V14.7091V14.7092V14.7093V14.7094V14.7095V14.7096V14.7097V14.7097V14.7098V14.7099V14.71V14.7101V14.7102V14.7103V14.7104V14.7105V14.7106V14.7107V14.7108V14.7109V14.7109V14.711V14.7111V14.7112V14.7113V14.7114V14.7115V14.7116V14.7117V14.7118V14.7119V14.712V14.7121V14.7122V14.7122V14.7123V14.7124V14.7125V14.7126V14.7127V14.7128V14.7129V14.713V14.7131V14.7132V14.7133V14.7134V14.7134V14.7135V14.7136V14.7137V14.7138V14.7139V14.714V14.7141V14.7142V14.7143V14.7144V14.7145V14.7146V14.7146V14.7147V14.7148V14.7149V14.715V14.7151V14.7152V14.7153V14.7154V14.7155V14.7156V14.7157V14.7158V14.7159V14.7159V14.716V14.7161V14.7162V14.7163V14.7164V14.7165V14.7166V14.7167V14.7168V14.7169V14.717V14.7171V14.7171V14.7172V14.7173V14.7174V14.7175V14.7176V14.7177V14.7178V14.7179V14.718V14.7181V14.7182V14.7183V14.7183V14.7184V14.7185V14.7186V14.7187V14.7188V14.7189V14.719V14.7191V14.7192V14.7193V14.7194V14.7195V14.7196V14.7196V14.7197V14.7198V14.7199V14.72V14.7201V14.7202V14.7203V14.7204V14.7205V14.7206V14.7207V14.7208V14.7208V14.7209V14.721V14.7211V14.7212V14.7213V14.7214V14.7215V14.7216V14.7217V14.7218V14.7219V14.722V14.722V14.7221V14.7222V14.7223V14.7224V14.7225V14.7226V14.7227V14.7228V14.7229V14.723V14.7231V14.7232V14.7233V14.7233V14.7234V14.7235V14.7236V14.7237V14.7238V14.7239V14.724V14.7241V14.7242V14.7243V14.7244V14.7245V14.7245V14.7246V14.7247V14.7248V14.7249V14.725V14.7251V14.7252V14.7253V14.7254V14.7255V14.7256V14.7257V14.7258V14.7258V14.7259V14.726V14.7261V14.7262V14.7263V14.7264V14.7265V14.7266V14.7267V14.7268V14.7269V14.727V14.727V14.7271V14.7272V14.7273V14.7274V14.7275V14.7276V14.7277V14.7278V14.7279V14.728V14.7281V14.7282V14.7282V14.7283V14.7284V14.7285V14.7286V14.7287V14.7288V14.7289V14.729V14.7291V14.7292V14.7293V14.7294V14.7295V14.7295V14.7296V14.7297V14.7298V14.7299V14.73V14.7301V14.7302V14.7303V14.7304V14.7305V14.7306V14.7307V14.7307V14.7308V14.7309V14.731V14.7311V14.7312V14.7313V14.7314V14.7315V14.7316C24.4836 14.8333 24.4025 14.9363 24.2789 14.9363H24.2632C23.5943 14.9363 23.0468 15.4837 23.0468 16.1526C23.0468 16.8215 23.5943 17.369 24.2632 17.369C24.2855 17.369 24.3104 17.3743 24.3312 17.3813C24.3499 17.3875 24.3734 17.3977 24.3893 17.4127C24.6523 17.6367 24.8981 17.744 25.1395 17.744C25.3811 17.744 25.6273 17.6364 25.8907 17.4118L25.8995 17.4043L25.9001 17.4055C25.9014 17.4049 25.9026 17.4043 25.9039 17.4036C25.9326 17.3892 25.9729 17.369 26.0158 17.369H26.0316C26.0607 17.369 26.0871 17.3739 26.1118 17.3849C26.1362 17.3958 26.1566 17.4115 26.1752 17.4301L26.1785 17.4334L26.1783 17.4335C26.4531 17.7694 26.8659 17.9532 27.2947 17.9532C27.6909 17.9532 28.0892 17.7702 28.3811 17.4476L28.3827 17.4458L28.3827 17.4459C28.4236 17.4049 28.4832 17.3848 28.5263 17.3848C28.5779 17.3848 28.6495 17.4016 28.6778 17.4708C28.905 17.7394 29.252 17.8901 29.6316 17.8901C29.996 17.8901 30.3299 17.7388 30.5736 17.4659C30.6182 17.402 30.7014 17.3821 30.7651 17.4022C30.8663 17.4255 30.9633 17.4449 31.0427 17.4585C31.124 17.4724 31.1835 17.4795 31.2105 17.4795C31.8794 17.4795 32.4269 16.9321 32.4269 16.2632V16.262L32.4269 16.262C32.4421 15.671 32.0031 15.1554 31.4125 15.0783C31.4116 15.0782 31.4107 15.0781 31.4098 15.078L31.4158 15.0316C31.3684 15.0316 31.3368 15 31.3211 14.9684L31.2427 14.8462ZM31.2427 14.8462V14.8579C31.2427 14.859 31.2427 14.8601 31.2427 14.8614C31.2426 14.8898 31.2424 14.9507 31.2826 14.9959L31.2427 14.8462ZM30.2316 14.352V14.353L30.2408 14.3511C30.292 14.3409 30.3382 14.3103 30.3668 14.2686C30.3952 14.2274 30.4072 14.1737 30.3875 14.1194C30.2725 13.4234 29.8367 13.0856 29.4298 12.9236C29.2266 12.8428 29.0304 12.8055 28.8843 12.7884C28.8112 12.7798 28.7503 12.7763 28.7071 12.7749C28.6855 12.7742 28.6683 12.7741 28.6561 12.7741L28.6418 12.7742L28.6378 12.7742C28.6368 12.7743 28.6366 12.7743 28.6367 12.7743L28.6368 12.7743C28.5811 12.7743 28.5334 12.8021 28.5008 12.8398C28.4683 12.8773 28.448 12.9274 28.448 12.9789C28.448 13.0347 28.4758 13.0823 28.5134 13.115C28.5509 13.1475 28.6011 13.1678 28.6526 13.1678C28.6539 13.1678 28.6558 13.1678 28.6584 13.1678C28.7066 13.167 28.9842 13.1627 29.2768 13.279C29.5829 13.4007 29.9046 13.6537 29.996 14.1869L29.996 14.1869L29.9962 14.1881C30.0167 14.2906 30.1004 14.352 30.2 14.352H30.2001H30.2002H30.2003H30.2004H30.2005H30.2005H30.2006H30.2007H30.2008H30.2009H30.201H30.2011H30.2012H30.2013H30.2013H30.2014H30.2015H30.2016H30.2017H30.2018H30.2019H30.2019H30.202H30.2021H30.2022H30.2023H30.2024H30.2025H30.2025H30.2026H30.2027H30.2028H30.2029H30.2029H30.203H30.2031H30.2032H30.2033H30.2033H30.2034H30.2035H30.2036H30.2037H30.2037H30.2038H30.2039H30.204H30.204H30.2041H30.2042H30.2043H30.2044H30.2044H30.2045H30.2046H30.2047H30.2047H30.2048H30.2049H30.205H30.205H30.2051H30.2052H30.2052H30.2053H30.2054H30.2055H30.2055H30.2056H30.2057H30.2057H30.2058H30.2059H30.206H30.206H30.2061H30.2062H30.2062H30.2063H30.2064H30.2064H30.2065H30.2066H30.2066H30.2067H30.2068H30.2068H30.2069H30.207H30.207H30.2071H30.2072H30.2072H30.2073H30.2074H30.2074H30.2075H30.2076H30.2076H30.2077H30.2077H30.2078H30.2079H30.2079H30.208H30.2081H30.2081H30.2082H30.2082H30.2083H30.2084H30.2084H30.2085H30.2085H30.2086H30.2087H30.2087H30.2088H30.2088H30.2089H30.209H30.209H30.2091H30.2091H30.2092H30.2093H30.2093H30.2094H30.2094H30.2095H30.2095H30.2096H30.2097H30.2097H30.2098H30.2098H30.2099H30.2099H30.21H30.2101H30.2101H30.2102H30.2102H30.2103H30.2103H30.2104H30.2104H30.2105H30.2106H30.2106H30.2107H30.2107H30.2108H30.2108H30.2109H30.2109H30.211H30.211H30.2111H30.2111H30.2112H30.2112H30.2113H30.2113H30.2114H30.2115H30.2115H30.2116H30.2116H30.2117H30.2117H30.2118H30.2118H30.2119H30.2119H30.212H30.212H30.2121H30.2121H30.2122H30.2122H30.2123H30.2123H30.2124H30.2124H30.2125H30.2125H30.2126H30.2126H30.2127H30.2127H30.2128H30.2128H30.2129H30.2129H30.213H30.213H30.2131H30.2131H30.2132H30.2132H30.2133H30.2133H30.2133H30.2134H30.2134H30.2135H30.2135H30.2136H30.2136H30.2137H30.2137H30.2138H30.2138H30.2139H30.2139H30.214H30.214H30.2141H30.2141H30.2142H30.2142H30.2143H30.2143H30.2143H30.2144H30.2144H30.2145H30.2145H30.2146H30.2146H30.2147H30.2147H30.2148H30.2148H30.2149H30.2149H30.215H30.215H30.215H30.2151H30.2151H30.2152H30.2152H30.2153H30.2153H30.2154H30.2154H30.2155H30.2155H30.2156H30.2156H30.2156H30.2157H30.2157H30.2158H30.2158H30.2159H30.2159H30.216H30.216H30.2161H30.2161H30.2162H30.2162H30.2163H30.2163H30.2163H30.2164H30.2164H30.2165H30.2165H30.2166H30.2166H30.2167H30.2167H30.2168H30.2168H30.2169H30.2169H30.2169H30.217H30.217H30.2171H30.2171H30.2172H30.2172H30.2173H30.2173H30.2174H30.2174H30.2175H30.2175H30.2176H30.2176H30.2177H30.2177H30.2177H30.2178H30.2178H30.2179H30.2179H30.218H30.218H30.2181H30.2181H30.2182H30.2182H30.2183H30.2183H30.2184H30.2184H30.2185H30.2185H30.2186H30.2186H30.2187H30.2187H30.2188H30.2188H30.2189H30.2189H30.219H30.219H30.2191H30.2191H30.2192H30.2192H30.2193H30.2193H30.2194H30.2194H30.2195H30.2195H30.2196H30.2196H30.2197H30.2197H30.2198H30.2198H30.2199H30.2199H30.22H30.22H30.2201H30.2201H30.2202H30.2202H30.2203H30.2203H30.2204H30.2204H30.2205H30.2205H30.2206H30.2206H30.2207H30.2208H30.2208H30.2209H30.2209H30.221H30.221H30.2211H30.2211H30.2212H30.2212H30.2213H30.2214H30.2214H30.2215H30.2215H30.2216H30.2216H30.2217H30.2217H30.2218H30.2219H30.2219H30.222H30.222H30.2221H30.2221H30.2222H30.2223H30.2223H30.2224H30.2224H30.2225H30.2226H30.2226H30.2227H30.2227H30.2228H30.2229H30.2229H30.223H30.223H30.2231H30.2232H30.2232H30.2233H30.2233H30.2234H30.2235H30.2235H30.2236H30.2236H30.2237H30.2238H30.2238H30.2239H30.224H30.224H30.2241H30.2242H30.2242H30.2243H30.2243H30.2244H30.2245H30.2245H30.2246H30.2247H30.2247H30.2248H30.2249H30.2249H30.225H30.2251H30.2251H30.2252H30.2253H30.2253H30.2254H30.2255H30.2256H30.2256H30.2257H30.2258H30.2258H30.2259H30.226H30.226H30.2261H30.2262H30.2263H30.2263H30.2264H30.2265H30.2266H30.2266H30.2267H30.2268H30.2268H30.2269H30.227H30.2271H30.2271H30.2272H30.2273H30.2274H30.2275H30.2275H30.2276H30.2277H30.2278H30.2278H30.2279H30.228H30.2281H30.2282H30.2282H30.2283H30.2284H30.2285H30.2286H30.2286H30.2287H30.2288H30.2289H30.229H30.229H30.2291H30.2292H30.2293H30.2294H30.2295H30.2295H30.2296H30.2297H30.2298H30.2299H30.23H30.2301H30.2301H30.2302H30.2303H30.2304H30.2305H30.2306H30.2307H30.2308H30.2308H30.2309H30.231H30.2311H30.2312H30.2313H30.2314H30.2315H30.2316Z" fill="white" stroke="black" stroke-width="0.0935673"/>
<path d="M28.2427 17.8462L28.2441 17.8465C28.274 17.7269 28.2743 17.5908 28.2743 17.4474C28.2743 16.1311 27.19 15.0468 25.8737 15.0468C24.9452 15.0468 24.1252 15.5566 23.7063 16.3919C23.6938 16.4266 23.6701 16.4489 23.6477 16.4639C23.6315 16.4747 23.6121 16.4838 23.599 16.4899C23.5952 16.4917 23.5919 16.4932 23.5893 16.4945L23.5834 16.4975L23.5832 16.497C23.5178 16.5188 23.4535 16.4972 23.4112 16.4563C23.1997 16.2908 22.9581 16.2152 22.6842 16.2152C22.0153 16.2152 21.4678 16.7627 21.4678 17.4316C21.4678 17.5117 21.468 17.6015 21.4827 17.675L21.4846 17.6842H21.4836V17.6843V17.6844V17.6845V17.6846V17.6847V17.6848V17.6849V17.685V17.685V17.6851V17.6852V17.6853V17.6854V17.6855V17.6856V17.6857V17.6858V17.6859V17.686V17.6861V17.6862V17.6862V17.6863V17.6864V17.6865V17.6866V17.6867V17.6868V17.6869V17.687V17.6871V17.6872V17.6873V17.6874V17.6874V17.6875V17.6876V17.6877V17.6878V17.6879V17.688V17.6881V17.6882V17.6883V17.6884V17.6885V17.6886V17.6887V17.6887V17.6888V17.6889V17.689V17.6891V17.6892V17.6893V17.6894V17.6895V17.6896V17.6897V17.6898V17.6899V17.6899V17.69V17.6901V17.6902V17.6903V17.6904V17.6905V17.6906V17.6907V17.6908V17.6909V17.691V17.6911V17.6911V17.6912V17.6913V17.6914V17.6915V17.6916V17.6917V17.6918V17.6919V17.692V17.6921V17.6922V17.6923V17.6924V17.6924V17.6925V17.6926V17.6927V17.6928V17.6929V17.693V17.6931V17.6932V17.6933V17.6934V17.6935V17.6936V17.6936V17.6937V17.6938V17.6939V17.694V17.6941V17.6942V17.6943V17.6944V17.6945V17.6946V17.6947V17.6948V17.6948V17.6949V17.695V17.6951V17.6952V17.6953V17.6954V17.6955V17.6956V17.6957V17.6958V17.6959V17.696V17.6961V17.6961V17.6962V17.6963V17.6964V17.6965V17.6966V17.6967V17.6968V17.6969V17.697V17.6971V17.6972V17.6973V17.6973V17.6974V17.6975V17.6976V17.6977V17.6978V17.6979V17.698V17.6981V17.6982V17.6983V17.6984V17.6985V17.6986V17.6986V17.6987V17.6988V17.6989V17.699V17.6991V17.6992V17.6993V17.6994V17.6995V17.6996V17.6997V17.6998V17.6998V17.6999V17.7V17.7001V17.7002V17.7003V17.7004V17.7005V17.7006V17.7007V17.7008V17.7009V17.701V17.701V17.7011V17.7012V17.7013V17.7014V17.7015V17.7016V17.7017V17.7018V17.7019V17.702V17.7021V17.7022V17.7023V17.7023V17.7024V17.7025V17.7026V17.7027V17.7028V17.7029V17.703V17.7031V17.7032V17.7033V17.7034V17.7035V17.7035V17.7036V17.7037V17.7038V17.7039V17.704V17.7041V17.7042V17.7043V17.7044V17.7045V17.7046V17.7047V17.7047V17.7048V17.7049V17.705V17.7051V17.7052V17.7053V17.7054V17.7055V17.7056V17.7057V17.7058V17.7059V17.706V17.706V17.7061V17.7062V17.7063V17.7064V17.7065V17.7066V17.7067V17.7068V17.7069V17.707V17.7071V17.7072V17.7072V17.7073V17.7074V17.7075V17.7076V17.7077V17.7078V17.7079V17.708V17.7081V17.7082V17.7083V17.7084V17.7084V17.7085V17.7086V17.7087V17.7088V17.7089V17.709V17.7091V17.7092V17.7093V17.7094V17.7095V17.7096V17.7097V17.7097V17.7098V17.7099V17.71V17.7101V17.7102V17.7103V17.7104V17.7105V17.7106V17.7107V17.7108V17.7109V17.7109V17.711V17.7111V17.7112V17.7113V17.7114V17.7115V17.7116V17.7117V17.7118V17.7119V17.712V17.7121V17.7122V17.7122V17.7123V17.7124V17.7125V17.7126V17.7127V17.7128V17.7129V17.713V17.7131V17.7132V17.7133V17.7134V17.7134V17.7135V17.7136V17.7137V17.7138V17.7139V17.714V17.7141V17.7142V17.7143V17.7144V17.7145V17.7146V17.7146V17.7147V17.7148V17.7149V17.715V17.7151V17.7152V17.7153V17.7154V17.7155V17.7156V17.7157V17.7158V17.7159V17.7159V17.716V17.7161V17.7162V17.7163V17.7164V17.7165V17.7166V17.7167V17.7168V17.7169V17.717V17.7171V17.7171V17.7172V17.7173V17.7174V17.7175V17.7176V17.7177V17.7178V17.7179V17.718V17.7181V17.7182V17.7183V17.7183V17.7184V17.7185V17.7186V17.7187V17.7188V17.7189V17.719V17.7191V17.7192V17.7193V17.7194V17.7195V17.7196V17.7196V17.7197V17.7198V17.7199V17.72V17.7201V17.7202V17.7203V17.7204V17.7205V17.7206V17.7207V17.7208V17.7208V17.7209V17.721V17.7211V17.7212V17.7213V17.7214V17.7215V17.7216V17.7217V17.7218V17.7219V17.722V17.722V17.7221V17.7222V17.7223V17.7224V17.7225V17.7226V17.7227V17.7228V17.7229V17.723V17.7231V17.7232V17.7233V17.7233V17.7234V17.7235V17.7236V17.7237V17.7238V17.7239V17.724V17.7241V17.7242V17.7243V17.7244V17.7245V17.7245V17.7246V17.7247V17.7248V17.7249V17.725V17.7251V17.7252V17.7253V17.7254V17.7255V17.7256V17.7257V17.7258V17.7258V17.7259V17.726V17.7261V17.7262V17.7263V17.7264V17.7265V17.7266V17.7267V17.7268V17.7269V17.727V17.727V17.7271V17.7272V17.7273V17.7274V17.7275V17.7276V17.7277V17.7278V17.7279V17.728V17.7281V17.7282V17.7282V17.7283V17.7284V17.7285V17.7286V17.7287V17.7288V17.7289V17.729V17.7291V17.7292V17.7293V17.7294V17.7295V17.7295V17.7296V17.7297V17.7298V17.7299V17.73V17.7301V17.7302V17.7303V17.7304V17.7305V17.7306V17.7307V17.7307V17.7308V17.7309V17.731V17.7311V17.7312V17.7313V17.7314V17.7315V17.7316C21.4836 17.8333 21.4025 17.9363 21.2789 17.9363H21.2632C20.5943 17.9363 20.0468 18.4837 20.0468 19.1526C20.0468 19.8215 20.5943 20.369 21.2632 20.369C21.2855 20.369 21.3104 20.3743 21.3312 20.3813C21.3499 20.3875 21.3734 20.3977 21.3893 20.4127C21.6523 20.6367 21.8981 20.744 22.1395 20.744C22.3811 20.744 22.6273 20.6364 22.8907 20.4118L22.8995 20.4043L22.9001 20.4055C22.9014 20.4049 22.9026 20.4043 22.9039 20.4036C22.9326 20.3892 22.9729 20.369 23.0158 20.369H23.0316C23.0607 20.369 23.0871 20.3739 23.1118 20.3849C23.1362 20.3958 23.1566 20.4115 23.1752 20.4301L23.1785 20.4334L23.1783 20.4335C23.4531 20.7694 23.8659 20.9532 24.2947 20.9532C24.6909 20.9532 25.0892 20.7702 25.3811 20.4476L25.3827 20.4458L25.3827 20.4459C25.4236 20.4049 25.4832 20.3848 25.5263 20.3848C25.5779 20.3848 25.6495 20.4016 25.6778 20.4708C25.905 20.7394 26.252 20.8901 26.6316 20.8901C26.996 20.8901 27.3299 20.7388 27.5736 20.4659C27.6182 20.402 27.7014 20.3821 27.7651 20.4022C27.8663 20.4255 27.9633 20.4449 28.0427 20.4585C28.124 20.4724 28.1835 20.4795 28.2105 20.4795C28.8794 20.4795 29.4269 19.9321 29.4269 19.2632V19.262L29.4269 19.262C29.4421 18.671 29.0031 18.1554 28.4125 18.0783C28.4116 18.0782 28.4107 18.0781 28.4098 18.078L28.4158 18.0316C28.3684 18.0316 28.3368 18 28.3211 17.9684L28.2427 17.8462ZM28.2427 17.8462V17.8579C28.2427 17.859 28.2427 17.8601 28.2427 17.8614C28.2426 17.8898 28.2424 17.9507 28.2826 17.9959L28.2427 17.8462ZM27.2316 17.352V17.353L27.2408 17.3511C27.292 17.3409 27.3382 17.3103 27.3668 17.2686C27.3952 17.2274 27.4072 17.1737 27.3875 17.1194C27.2725 16.4234 26.8367 16.0856 26.4298 15.9236C26.2266 15.8428 26.0304 15.8055 25.8843 15.7884C25.8112 15.7798 25.7503 15.7763 25.7071 15.7749C25.6855 15.7742 25.6683 15.7741 25.6561 15.7741L25.6418 15.7742L25.6378 15.7742C25.6368 15.7743 25.6366 15.7743 25.6367 15.7743L25.6368 15.7743C25.5811 15.7743 25.5334 15.8021 25.5008 15.8398C25.4683 15.8773 25.448 15.9274 25.448 15.9789C25.448 16.0347 25.4758 16.0823 25.5134 16.115C25.5509 16.1475 25.6011 16.1678 25.6526 16.1678C25.6539 16.1678 25.6558 16.1678 25.6584 16.1678C25.7066 16.167 25.9842 16.1627 26.2768 16.279C26.5829 16.4007 26.9046 16.6537 26.996 17.1869L26.996 17.1869L26.9962 17.1881C27.0167 17.2906 27.1004 17.352 27.2 17.352H27.2001H27.2002H27.2003H27.2004H27.2005H27.2005H27.2006H27.2007H27.2008H27.2009H27.201H27.2011H27.2012H27.2013H27.2013H27.2014H27.2015H27.2016H27.2017H27.2018H27.2019H27.2019H27.202H27.2021H27.2022H27.2023H27.2024H27.2025H27.2025H27.2026H27.2027H27.2028H27.2029H27.2029H27.203H27.2031H27.2032H27.2033H27.2033H27.2034H27.2035H27.2036H27.2037H27.2037H27.2038H27.2039H27.204H27.204H27.2041H27.2042H27.2043H27.2044H27.2044H27.2045H27.2046H27.2047H27.2047H27.2048H27.2049H27.205H27.205H27.2051H27.2052H27.2052H27.2053H27.2054H27.2055H27.2055H27.2056H27.2057H27.2057H27.2058H27.2059H27.206H27.206H27.2061H27.2062H27.2062H27.2063H27.2064H27.2064H27.2065H27.2066H27.2066H27.2067H27.2068H27.2068H27.2069H27.207H27.207H27.2071H27.2072H27.2072H27.2073H27.2074H27.2074H27.2075H27.2076H27.2076H27.2077H27.2077H27.2078H27.2079H27.2079H27.208H27.2081H27.2081H27.2082H27.2082H27.2083H27.2084H27.2084H27.2085H27.2085H27.2086H27.2087H27.2087H27.2088H27.2088H27.2089H27.209H27.209H27.2091H27.2091H27.2092H27.2093H27.2093H27.2094H27.2094H27.2095H27.2095H27.2096H27.2097H27.2097H27.2098H27.2098H27.2099H27.2099H27.21H27.2101H27.2101H27.2102H27.2102H27.2103H27.2103H27.2104H27.2104H27.2105H27.2106H27.2106H27.2107H27.2107H27.2108H27.2108H27.2109H27.2109H27.211H27.211H27.2111H27.2111H27.2112H27.2112H27.2113H27.2113H27.2114H27.2115H27.2115H27.2116H27.2116H27.2117H27.2117H27.2118H27.2118H27.2119H27.2119H27.212H27.212H27.2121H27.2121H27.2122H27.2122H27.2123H27.2123H27.2124H27.2124H27.2125H27.2125H27.2126H27.2126H27.2127H27.2127H27.2128H27.2128H27.2129H27.2129H27.213H27.213H27.2131H27.2131H27.2132H27.2132H27.2133H27.2133H27.2133H27.2134H27.2134H27.2135H27.2135H27.2136H27.2136H27.2137H27.2137H27.2138H27.2138H27.2139H27.2139H27.214H27.214H27.2141H27.2141H27.2142H27.2142H27.2143H27.2143H27.2143H27.2144H27.2144H27.2145H27.2145H27.2146H27.2146H27.2147H27.2147H27.2148H27.2148H27.2149H27.2149H27.215H27.215H27.215H27.2151H27.2151H27.2152H27.2152H27.2153H27.2153H27.2154H27.2154H27.2155H27.2155H27.2156H27.2156H27.2156H27.2157H27.2157H27.2158H27.2158H27.2159H27.2159H27.216H27.216H27.2161H27.2161H27.2162H27.2162H27.2163H27.2163H27.2163H27.2164H27.2164H27.2165H27.2165H27.2166H27.2166H27.2167H27.2167H27.2168H27.2168H27.2169H27.2169H27.2169H27.217H27.217H27.2171H27.2171H27.2172H27.2172H27.2173H27.2173H27.2174H27.2174H27.2175H27.2175H27.2176H27.2176H27.2177H27.2177H27.2177H27.2178H27.2178H27.2179H27.2179H27.218H27.218H27.2181H27.2181H27.2182H27.2182H27.2183H27.2183H27.2184H27.2184H27.2185H27.2185H27.2186H27.2186H27.2187H27.2187H27.2188H27.2188H27.2189H27.2189H27.219H27.219H27.2191H27.2191H27.2192H27.2192H27.2193H27.2193H27.2194H27.2194H27.2195H27.2195H27.2196H27.2196H27.2197H27.2197H27.2198H27.2198H27.2199H27.2199H27.22H27.22H27.2201H27.2201H27.2202H27.2202H27.2203H27.2203H27.2204H27.2204H27.2205H27.2205H27.2206H27.2206H27.2207H27.2208H27.2208H27.2209H27.2209H27.221H27.221H27.2211H27.2211H27.2212H27.2212H27.2213H27.2214H27.2214H27.2215H27.2215H27.2216H27.2216H27.2217H27.2217H27.2218H27.2219H27.2219H27.222H27.222H27.2221H27.2221H27.2222H27.2223H27.2223H27.2224H27.2224H27.2225H27.2226H27.2226H27.2227H27.2227H27.2228H27.2229H27.2229H27.223H27.223H27.2231H27.2232H27.2232H27.2233H27.2233H27.2234H27.2235H27.2235H27.2236H27.2236H27.2237H27.2238H27.2238H27.2239H27.224H27.224H27.2241H27.2242H27.2242H27.2243H27.2243H27.2244H27.2245H27.2245H27.2246H27.2247H27.2247H27.2248H27.2249H27.2249H27.225H27.2251H27.2251H27.2252H27.2253H27.2253H27.2254H27.2255H27.2256H27.2256H27.2257H27.2258H27.2258H27.2259H27.226H27.226H27.2261H27.2262H27.2263H27.2263H27.2264H27.2265H27.2266H27.2266H27.2267H27.2268H27.2268H27.2269H27.227H27.2271H27.2271H27.2272H27.2273H27.2274H27.2275H27.2275H27.2276H27.2277H27.2278H27.2278H27.2279H27.228H27.2281H27.2282H27.2282H27.2283H27.2284H27.2285H27.2286H27.2286H27.2287H27.2288H27.2289H27.229H27.229H27.2291H27.2292H27.2293H27.2294H27.2295H27.2295H27.2296H27.2297H27.2298H27.2299H27.23H27.2301H27.2301H27.2302H27.2303H27.2304H27.2305H27.2306H27.2307H27.2308H27.2308H27.2309H27.231H27.2311H27.2312H27.2313H27.2314H27.2315H27.2316Z" fill="white" stroke="black" stroke-width="0.0935673"/>
</svg>
