<svg width="548" height="659" viewBox="0 0 548 659" fill="none" xmlns="http://www.w3.org/2000/svg">
<g clip-path="url(#clip0_49_903)">
<path fill-rule="evenodd" clip-rule="evenodd" d="M30.4032 567.532C212.147 567.532 359.479 420.2 359.479 238.456C359.479 153.72 327.451 76.4638 274.843 18.1329C425.212 41.7163 540.237 171.843 540.237 328.834C540.237 502.537 399.423 643.348 225.721 643.348C147.419 643.348 75.8 614.734 20.7505 567.392C23.9568 567.486 27.1746 567.532 30.4032 567.532Z" fill="#DDDDDD"/>
<mask id="mask0_49_903" style="mask-type:luminance" maskUnits="userSpaceOnUse" x="-7" y="-10" width="576" height="686">
<path d="M568.751 -9.26721H-6.64935V675.733H568.751V-9.26721Z" fill="white"/>
<path fill-rule="evenodd" clip-rule="evenodd" d="M30.4032 567.532C212.147 567.532 359.479 420.2 359.479 238.456C359.479 153.72 327.451 76.4638 274.843 18.1329C425.212 41.7163 540.237 171.843 540.237 328.834C540.237 502.537 399.423 643.348 225.721 643.348C147.419 643.348 75.8 614.734 20.7505 567.392C23.9568 567.486 27.1746 567.532 30.4032 567.532Z" fill="black"/>
</mask>
<g mask="url(#mask0_49_903)">
<path d="M274.842 18.1318L275.689 12.718L260.419 10.3229L270.772 21.8021L274.842 18.1318ZM20.7498 567.391L20.9076 561.914L5.4585 561.47L17.1767 571.545L20.7498 567.391ZM353.998 238.455C353.998 417.171 209.119 562.051 30.4024 562.051V573.011C215.172 573.011 364.958 423.223 364.958 238.455H353.998ZM270.772 21.8021C322.508 79.1655 353.998 155.126 353.998 238.455H364.958C364.958 152.311 332.393 73.76 278.911 14.4616L270.772 21.8021ZM273.992 23.5457C421.737 46.7176 534.756 174.582 534.756 328.833H545.716C545.716 169.101 428.685 36.713 275.689 12.718L273.992 23.5457ZM534.756 328.833C534.756 499.508 396.394 637.867 225.72 637.867V648.827C402.45 648.827 545.716 505.56 545.716 328.833H534.756ZM225.72 637.867C148.778 637.867 78.416 609.757 24.323 563.237L17.1767 571.545C73.1826 619.712 146.058 648.827 225.72 648.827V637.867ZM30.4024 562.051C27.2265 562.051 24.0613 562.004 20.9076 561.914L20.5921 572.869C23.8509 572.964 27.1212 573.011 30.4024 573.011V562.051Z" fill="black"/>
</g>
</g>
<defs>
<clipPath id="clip0_49_903">
<rect width="548" height="657.6" fill="white" transform="translate(0 0.699951)"/>
</clipPath>
</defs>
</svg>
